ChamferedBeveledAngled-Fit.ufo
<glyph name="exclamation" format="2">
  <advance width="248.2"/>
  <unicode hex="0021"/>
  <outline>
    <contour>
      <point x="44.099998474121094" y="230" type="line"/>
      <point x="204.0999984741211" y="230" type="line"/>
      <point x="204.0999984741211" y="800" type="line"/>
      <point x="44.099998474121094" y="800" type="line"/>
    </contour>
    <contour>
      <point x="44.1" y="0" type="line"/>
      <point x="204.1" y="0" type="line"/>
      <point x="204.1" y="160.0" type="line"/>
      <point x="44.1" y="160.0" type="line"/>
    </contour>
  </outline>
</glyph>
<glyph name="numbersign" format="2">
  <advance width="719.8666600000001"/>
  <unicode hex="0023"/>
  <outline>
    <contour>
      <point x="481.3187713623047" y="805" type="line"/>
      <point x="382.4333267211914" y="706.1145629882812" type="line"/>
      <point x="382.4333267211914" y="630" type="line"/>
      <point x="337.4333267211914" y="630" type="line"/>
      <point x="337.4333267211914" y="805" type="line"/>
      <point x="276.3187713623047" y="805" type="line"/>
      <point x="177.4333267211914" y="706.1145629882812" type="line"/>
      <point x="177.4333267211914" y="630" type="line"/>
      <point x="142.98544311523438" y="630" type="line"/>
      <point x="44.099998474121094" y="531.1145629882812" type="line"/>
      <point x="44.099998474121094" y="470" type="line"/>
      <point x="177.4333267211914" y="470" type="line"/>
      <point x="177.4333267211914" y="330" type="line"/>
      <point x="142.98544311523438" y="330" type="line"/>
      <point x="44.099998474121094" y="231.11456298828125" type="line"/>
      <point x="44.099998474121094" y="170" type="line"/>
      <point x="177.4333267211914" y="170" type="line"/>
      <point x="177.4333267211914" y="-5" type="line"/>
      <point x="238.54788970947266" y="-5" type="line"/>
      <point x="337.4333267211914" y="93.88543701171875" type="line"/>
      <point x="337.4333267211914" y="170" type="line"/>
      <point x="382.4333267211914" y="170" type="line"/>
      <point x="382.4333267211914" y="-5" type="line"/>
      <point x="443.54788970947266" y="-5" type="line"/>
      <point x="542.4333267211914" y="93.88543701171875" type="line"/>
      <point x="542.4333267211914" y="170" type="line"/>
      <point x="576.881217956543" y="170" type="line"/>
      <point x="675.7666625976562" y="268.88543701171875" type="line"/>
      <point x="675.7666625976562" y="330" type="line"/>
      <point x="542.4333267211914" y="330" type="line"/>
      <point x="542.4333267211914" y="470" type="line"/>
      <point x="576.881217956543" y="470" type="line"/>
      <point x="675.7666625976562" y="568.8854370117188" type="line"/>
      <point x="675.7666625976562" y="630" type="line"/>
      <point x="542.4333267211914" y="630" type="line"/>
      <point x="542.4333267211914" y="805" type="line"/>
    </contour>
    <contour>
      <point x="382.4333267211914" y="470" type="line"/>
      <point x="382.4333267211914" y="330" type="line"/>
      <point x="337.4333267211914" y="330" type="line"/>
      <point x="337.4333267211914" y="470" type="line"/>
    </contour>
  </outline>
</glyph>
<glyph name="dollar" format="2">
  <advance width="453.2"/>
  <unicode hex="0024"/>
  <outline>
    <contour>
      <point x="44.099998474121094" y="601.1145629882812" type="line"/>
      <point x="44.099998474121094" y="418.88543701171875" type="line"/>
      <point x="142.98544311523438" y="320" type="line"/>
      <point x="204.0999984741211" y="320" type="line"/>
      <point x="204.0999984741211" y="800" type="line"/>
      <point x="124.0999984741211" y="800" type="line"/>
      <point x="124.0999984741211" y="681.1145553588867" type="line"/>
    </contour>
    <contour>
      <point x="404.0999984741211" y="700" type="line"/>
      <point x="324.0999984741211" y="700" type="line"/>
      <point x="324.0999984741211" y="800" type="line"/>
      <point x="244.0999984741211" y="800" type="line"/>
      <point x="244.0999984741211" y="638.8854370117188" type="line"/>
      <point x="342.9854431152344" y="540" type="line"/>
      <point x="404.0999984741211" y="540" type="line"/>
    </contour>
    <contour>
      <point x="249.0999984741211" y="0" type="line"/>
      <point x="329.0999984741211" y="0" type="line"/>
      <point x="329.0999984741211" y="118.88543701171875" type="line"/>
      <point x="409.0999984741211" y="198.88543701171875" type="line"/>
      <point x="409.0999984741211" y="381.11456298828125" type="line"/>
      <point x="310.21456146240234" y="480" type="line"/>
      <point x="249.0999984741211" y="480" type="line"/>
    </contour>
    <contour>
      <point x="44.099998474121094" y="100" type="line"/>
      <point x="124.0999984741211" y="100" type="line"/>
      <point x="124.0999984741211" y="0" type="line"/>
      <point x="204.0999984741211" y="0" type="line"/>
      <point x="204.0999984741211" y="161.11456298828125" type="line"/>
      <point x="105.21456146240234" y="260" type="line"/>
      <point x="44.099998474121094" y="260" type="line"/>
    </contour>
  </outline>
</glyph>
<glyph name="ampersand" format="2">
  <advance width="613.2"/>
  <unicode hex="0026"/>
  <outline>
    <contour>
      <point x="142.98544311523438" y="400" type="line"/>
      <point x="44.099998474121094" y="301.11456298828125" type="line"/>
      <point x="44.099998474121094" y="93.88543701171875" type="line"/>
      <point x="142.98544311523438" y="-5" type="line"/>
      <point x="204.0999984741211" y="-5" type="line"/>
      <point x="204.0999984741211" y="800" type="line"/>
      <point x="142.98544311523438" y="800" type="line"/>
      <point x="44.099998474121094" y="701.1145629882812" type="line"/>
      <point x="44.099998474121094" y="498.88543701171875" type="line"/>
    </contour>
    <contour>
      <point x="399.1" y="800.0" type="line"/>
      <point x="239.1" y="800.0" type="line"/>
      <point x="239.1" y="738.88544" type="line"/>
      <point x="337.98544000000004" y="640.0" type="line"/>
      <point x="399.1" y="640.0" type="line"/>
    </contour>
    <contour>
      <point x="249.0999984741211" y="401.11456298828125" type="line"/>
      <point x="249.0999984741211" y="-5" type="line"/>
      <point x="310.21456146240234" y="-5" type="line"/>
      <point x="409.0999984741211" y="93.88543701171875" type="line"/>
      <point x="409.0999984741211" y="340" type="line"/>
      <point x="470.21456146240234" y="340" type="line"/>
      <point x="569.0999984741211" y="438.88543701171875" type="line"/>
      <point x="569.0999984741211" y="500" type="line"/>
      <point x="347.9854431152344" y="500" type="line"/>
    </contour>
  </outline>
</glyph>
<glyph name="quotesingle" format="2">
  <advance width="248.2"/>
  <unicode hex="0027"/>
  <outline>
    <contour>
      <point x="105.21456146240234" y="700" type="line"/>
      <point x="204.0999984741211" y="798.8854370117188" type="line"/>
      <point x="204.0999984741211" y="900" type="line"/>
      <point x="44.099998474121094" y="900" type="line"/>
      <point x="44.099998474121094" y="700" type="line"/>
    </contour>
  </outline>
</glyph>
<glyph name="parenright" format="2">
  <advance width="248.2"/>
  <unicode hex="0029"/>
  <outline>
    <contour>
      <point x="105.21456146240234" y="-100" type="line"/>
      <point x="204.0999984741211" y="-1.11456298828125" type="line"/>
      <point x="204.0999984741211" y="801.1145629882812" type="line"/>
      <point x="105.21456146240234" y="900" type="line"/>
      <point x="44.099998474121094" y="900" type="line"/>
      <point x="44.099998474121094" y="-100" type="line"/>
    </contour>
  </outline>
</glyph>
<glyph name="asterisk" format="2">
  <advance width="511.0375056146938"/>
  <unicode hex="002A"/>
  <outline>
    <contour>
      <point x="202.18541717529297" y="373.33333587646484" type="line"/>
      <point x="308.85208892822266" y="373.33333587646484" type="line"/>
      <point x="308.85208892822266" y="494.2906265258789" type="line"/>
      <point x="413.6041717529297" y="433.8119812011719" type="line"/>
      <point x="466.93750762939453" y="526.1880187988281" type="line"/>
      <point x="362.18541717529297" y="586.6666641235352" type="line"/>
      <point x="466.93750762939453" y="647.1453094482422" type="line"/>
      <point x="413.6041717529297" y="739.521354675293" type="line"/>
      <point x="308.85208892822266" y="679.0427093505859" type="line"/>
      <point x="308.85208892822266" y="800" type="line"/>
      <point x="202.18541717529297" y="800" type="line"/>
      <point x="202.18541717529297" y="679.0427093505859" type="line"/>
      <point x="97.43333435058594" y="739.521354675293" type="line"/>
      <point x="44.099998474121094" y="647.1453094482422" type="line"/>
      <point x="148.85208892822266" y="586.6666641235352" type="line"/>
      <point x="44.099998474121094" y="526.1880187988281" type="line"/>
      <point x="97.43333435058594" y="433.8119812011719" type="line"/>
      <point x="202.18541717529297" y="494.2906265258789" type="line"/>
    </contour>
  </outline>
</glyph>
<glyph name="plus" format="2">
  <advance width="658.2"/>
  <unicode hex="002B"/>
  <outline>
    <contour>
      <point x="249.0999984741211" y="140" type="line"/>
      <point x="409.0999984741211" y="140" type="line"/>
      <point x="409.0999984741211" y="320" type="line"/>
      <point x="569.0999984741211" y="320" type="line"/>
      <point x="569.0999984741211" y="480" type="line"/>
      <point x="409.0999984741211" y="480" type="line"/>
      <point x="409.0999984741211" y="660" type="line"/>
      <point x="249.0999984741211" y="660" type="line"/>
      <point x="249.0999984741211" y="480" type="line"/>
      <point x="89.0999984741211" y="480" type="line"/>
      <point x="89.0999984741211" y="320" type="line"/>
      <point x="249.0999984741211" y="320" type="line"/>
    </contour>
  </outline>
</glyph>
<glyph name="comma" format="2">
  <advance width="248.2"/>
  <unicode hex="002C"/>
  <outline>
    <contour>
      <point x="105.21456146240234" y="-100" type="line"/>
      <point x="204.0999984741211" y="-1.11456298828125" type="line"/>
      <point x="204.0999984741211" y="160" type="line"/>
      <point x="44.099998474121094" y="160" type="line"/>
      <point x="44.099998474121094" y="-100" type="line"/>
    </contour>
  </outline>
</glyph>
<glyph name="hyphen" format="2">
  <advance width="453.2"/>
  <unicode hex="002D"/>
  <outline>
    <contour>
      <point x="44.099998474121094" y="320" type="line"/>
      <point x="409.0999984741211" y="320" type="line"/>
      <point x="409.0999984741211" y="480" type="line"/>
      <point x="44.099998474121094" y="480" type="line"/>
    </contour>
  </outline>
</glyph>
<glyph name="period" format="2">
  <advance width="248.2"/>
  <unicode hex="002E"/>
  <outline>
    <contour>
      <point x="44.1" y="0" type="line"/>
      <point x="204.1" y="0" type="line"/>
      <point x="204.1" y="160.0" type="line"/>
      <point x="44.1" y="160.0" type="line"/>
    </contour>
  </outline>
</glyph>
<glyph name="slash" format="2">
  <advance width="474.50305003521197"/>
  <unicode hex="002F"/>
  <outline>
    <contour>
      <point x="80.99854278564453" y="87.614013671875" type="line"/>
      <point x="44.099998474121094" y="-68.07316589355469" type="line"/>
      <point x="103.56720733642578" y="-82.16715240478516" type="line"/>
      <point x="222.59172821044922" y="-8.751731872558594" type="line"/>
      <point x="236.68572235107422" y="50.715476989746094" type="line"/>
      <point x="245.9103546142578" y="89.63726806640625" type="line"/>
      <point x="292.03353118896484" y="284.2462463378906" type="line"/>
      <point x="338.15670013427734" y="478.85521697998047" type="line"/>
      <point x="384.2798767089844" y="673.4641952514648" type="line"/>
      <point x="393.50450897216797" y="712.385986328125" type="line"/>
      <point x="430.4030532836914" y="868.0731658935547" type="line"/>
      <point x="370.9358444213867" y="882.1671524047852" type="line"/>
      <point x="251.91131591796875" y="808.7517318725586" type="line"/>
      <point x="237.81732940673828" y="749.2845230102539" type="line"/>
      <point x="228.5926971435547" y="710.3627319335938" type="line"/>
      <point x="182.46952056884766" y="515.7537536621094" type="line"/>
      <point x="136.34635162353516" y="321.14478302001953" type="line"/>
      <point x="90.22317504882812" y="126.53580474853516" type="line"/>
    </contour>
  </outline>
</glyph>
<glyph name="one" format="2">
  <advance width="248.2"/>
  <unicode hex="0031"/>
  <outline>
    <contour>
      <point x="44.099998474121094" y="0" type="line"/>
      <point x="204.0999984741211" y="0" type="line"/>
      <point x="204.0999984741211" y="800" type="line"/>
      <point x="142.98544311523438" y="800" type="line"/>
      <point x="44.099998474121094" y="701.1145629882812" type="line"/>
    </contour>
  </outline>
</glyph>
<glyph name="two" format="2">
  <advance width="453.2"/>
  <unicode hex="0032"/>
  <outline>
    <contour>
      <point x="204.1" y="645.0" type="line"/>
      <point x="204.1" y="805.0" type="line"/>
      <point x="142.98544" y="805.0" type="line"/>
      <point x="44.1" y="706.11456" type="line"/>
      <point x="44.1" y="645.0" type="line"/>
    </contour>
    <contour>
      <point x="310.21456146240234" y="211.6666717529297" type="line"/>
      <point x="409.0999984741211" y="310.55210876464844" type="line"/>
      <point x="409.0999984741211" y="706.1145629882812" type="line"/>
      <point x="310.21456146240234" y="805" type="line"/>
      <point x="249.0999984741211" y="805" type="line"/>
      <point x="249.0999984741211" y="211.6666717529297" type="line"/>
    </contour>
    <contour>
      <point x="44.099998474121094" y="61.11456298828125" type="line"/>
      <point x="44.099998474121094" y="0" type="line"/>
      <point x="409.0999984741211" y="0" type="line"/>
      <point x="409.0999984741211" y="160" type="line"/>
      <point x="142.98544311523438" y="160" type="line"/>
    </contour>
  </outline>
</glyph>
<glyph name="three" format="2">
  <advance width="453.2"/>
  <unicode hex="0033"/>
  <outline>
    <contour>
      <point x="204.1" y="645.0" type="line"/>
      <point x="204.1" y="805.0" type="line"/>
      <point x="142.98544" y="805.0" type="line"/>
      <point x="44.1" y="706.11456" type="line"/>
      <point x="44.1" y="645.0" type="line"/>
    </contour>
    <contour>
      <point x="310.21456146240234" y="-5" type="line"/>
      <point x="409.0999984741211" y="93.88543701171875" type="line"/>
      <point x="409.0999984741211" y="301.11456298828125" type="line"/>
      <point x="310.21456146240234" y="400" type="line"/>
      <point x="409.0999984741211" y="498.88543701171875" type="line"/>
      <point x="409.0999984741211" y="706.1145629882812" type="line"/>
      <point x="310.21456146240234" y="805" type="line"/>
      <point x="249.0999984741211" y="805" type="line"/>
      <point x="249.0999984741211" y="-5" type="line"/>
    </contour>
    <contour>
      <point x="204.1" y="155.0" type="line"/>
      <point x="44.1" y="155.0" type="line"/>
      <point x="44.1" y="93.88544" type="line"/>
      <point x="142.98544" y="-5.0" type="line"/>
      <point x="204.1" y="-5.0" type="line"/>
    </contour>
  </outline>
</glyph>
<glyph name="four" format="2">
  <advance width="453.2"/>
  <unicode hex="0034"/>
  <outline>
    <contour>
      <point x="105.21456146240234" y="300" type="line"/>
      <point x="204.0999984741211" y="398.88543701171875" type="line"/>
      <point x="204.0999984741211" y="800" type="line"/>
      <point x="44.099998474121094" y="800" type="line"/>
      <point x="44.099998474121094" y="300" type="line"/>
    </contour>
    <contour>
      <point x="249.0999984741211" y="0" type="line"/>
      <point x="409.0999984741211" y="0" type="line"/>
      <point x="409.0999984741211" y="500" type="line"/>
      <point x="249.0999984741211" y="500" type="line"/>
    </contour>
  </outline>
</glyph>
<glyph name="five" format="2">
  <advance width="453.2"/>
  <unicode hex="0035"/>
  <outline>
    <contour>
      <point x="147.98544311523438" y="320" type="line"/>
      <point x="209.0999984741211" y="320" type="line"/>
      <point x="209.0999984741211" y="800" type="line"/>
      <point x="49.099998474121094" y="800" type="line"/>
      <point x="49.099998474121094" y="418.88543701171875" type="line"/>
    </contour>
    <contour>
      <point x="404.1" y="800.0" type="line"/>
      <point x="244.1" y="800.0" type="line"/>
      <point x="244.1" y="738.88544" type="line"/>
      <point x="342.98544000000004" y="640.0" type="line"/>
      <point x="404.1" y="640.0" type="line"/>
    </contour>
    <contour>
      <point x="310.21456146240234" y="-5" type="line"/>
      <point x="409.0999984741211" y="93.88543701171875" type="line"/>
      <point x="409.0999984741211" y="381.11456298828125" type="line"/>
      <point x="310.21456146240234" y="480" type="line"/>
      <point x="249.0999984741211" y="480" type="line"/>
      <point x="249.0999984741211" y="-5" type="line"/>
    </contour>
    <contour>
      <point x="204.1" y="155.0" type="line"/>
      <point x="44.1" y="155.0" type="line"/>
      <point x="44.1" y="93.88544" type="line"/>
      <point x="142.98544" y="-5.0" type="line"/>
      <point x="204.1" y="-5.0" type="line"/>
    </contour>
  </outline>
</glyph>
<glyph name="six" format="2">
  <advance width="453.2"/>
  <unicode hex="0036"/>
  <outline>
    <contour>
      <point x="142.98544311523438" y="-5" type="line"/>
      <point x="204.0999984741211" y="-5" type="line"/>
      <point x="204.0999984741211" y="805" type="line"/>
      <point x="142.98544311523438" y="805" type="line"/>
      <point x="44.099998474121094" y="706.1145629882812" type="line"/>
      <point x="44.099998474121094" y="93.88543701171875" type="line"/>
    </contour>
    <contour>
      <point x="249.1" y="645.0" type="line"/>
      <point x="409.1" y="645.0" type="line"/>
      <point x="409.1" y="706.11456" type="line"/>
      <point x="310.21456" y="805.0" type="line"/>
      <point x="249.1" y="805.0" type="line"/>
    </contour>
    <contour>
      <point x="310.21456146240234" y="-5" type="line"/>
      <point x="409.0999984741211" y="93.88543701171875" type="line"/>
      <point x="409.0999984741211" y="401.11456298828125" type="line"/>
      <point x="310.21456146240234" y="500" type="line"/>
      <point x="249.0999984741211" y="500" type="line"/>
      <point x="249.0999984741211" y="-5" type="line"/>
    </contour>
  </outline>
</glyph>
<glyph name="eight" format="2">
  <advance width="453.2"/>
  <unicode hex="0038"/>
  <outline>
    <contour>
      <point x="142.98544311523438" y="400" type="line"/>
      <point x="44.099998474121094" y="301.11456298828125" type="line"/>
      <point x="44.099998474121094" y="93.88543701171875" type="line"/>
      <point x="142.98544311523438" y="-5" type="line"/>
      <point x="204.0999984741211" y="-5" type="line"/>
      <point x="204.0999984741211" y="805" type="line"/>
      <point x="142.98544311523438" y="805" type="line"/>
      <point x="44.099998474121094" y="706.1145629882812" type="line"/>
      <point x="44.099998474121094" y="498.88543701171875" type="line"/>
    </contour>
    <contour>
      <point x="310.21456146240234" y="-5" type="line"/>
      <point x="409.0999984741211" y="93.88543701171875" type="line"/>
      <point x="409.0999984741211" y="301.11456298828125" type="line"/>
      <point x="310.21456146240234" y="400" type="line"/>
      <point x="409.0999984741211" y="498.88543701171875" type="line"/>
      <point x="409.0999984741211" y="706.1145629882812" type="line"/>
      <point x="310.21456146240234" y="805" type="line"/>
      <point x="249.0999984741211" y="805" type="line"/>
      <point x="249.0999984741211" y="-5" type="line"/>
    </contour>
  </outline>
</glyph>
<glyph name="nine" format="2">
  <advance width="453.2"/>
  <unicode hex="0039"/>
  <outline>
    <contour>
      <point x="142.98544311523438" y="300" type="line"/>
      <point x="204.0999984741211" y="300" type="line"/>
      <point x="204.0999984741211" y="805" type="line"/>
      <point x="142.98544311523438" y="805" type="line"/>
      <point x="44.099998474121094" y="706.1145629882812" type="line"/>
      <point x="44.099998474121094" y="398.88543701171875" type="line"/>
    </contour>
    <contour>
      <point x="310.21456146240234" y="-5" type="line"/>
      <point x="409.0999984741211" y="93.88543701171875" type="line"/>
      <point x="409.0999984741211" y="706.1145629882812" type="line"/>
      <point x="310.21456146240234" y="805" type="line"/>
      <point x="249.0999984741211" y="805" type="line"/>
      <point x="249.0999984741211" y="-5" type="line"/>
    </contour>
    <contour>
      <point x="204.1" y="155.0" type="line"/>
      <point x="44.1" y="155.0" type="line"/>
      <point x="44.1" y="93.88544" type="line"/>
      <point x="142.98544" y="-5.0" type="line"/>
      <point x="204.1" y="-5.0" type="line"/>
    </contour>
  </outline>
</glyph>
<glyph name="colon" format="2">
  <advance width="248.2"/>
  <unicode hex="003A"/>
  <outline>
    <contour>
      <point x="44.1" y="440.0" type="line"/>
      <point x="204.1" y="440.0" type="line"/>
      <point x="204.1" y="600.0" type="line"/>
      <point x="44.1" y="600.0" type="line"/>
    </contour>
    <contour>
      <point x="44.1" y="0" type="line"/>
      <point x="204.1" y="0" type="line"/>
      <point x="204.1" y="160.0" type="line"/>
      <point x="44.1" y="160.0" type="line"/>
    </contour>
  </outline>
</glyph>
<glyph name="semicolon" format="2">
  <advance width="248.2"/>
  <unicode hex="003B"/>
  <outline>
    <contour>
      <point x="44.1" y="440.0" type="line"/>
      <point x="204.1" y="440.0" type="line"/>
      <point x="204.1" y="600.0" type="line"/>
      <point x="44.1" y="600.0" type="line"/>
    </contour>
    <contour>
      <point x="105.21456146240234" y="-100" type="line"/>
      <point x="204.0999984741211" y="-1.11456298828125" type="line"/>
      <point x="204.0999984741211" y="160" type="line"/>
      <point x="44.099998474121094" y="160" type="line"/>
      <point x="44.099998474121094" y="-100" type="line"/>
    </contour>
  </outline>
</glyph>
<glyph name="less" format="2">
  <advance width="408.2"/>
  <unicode hex="003C"/>
  <outline>
    <contour>
      <point x="44.099998474121094" y="601.1145629882812" type="line"/>
      <point x="44.099998474121094" y="198.88543701171875" type="line"/>
      <point x="142.98544311523438" y="100" type="line"/>
      <point x="364.0999984741211" y="100" type="line"/>
      <point x="364.0999984741211" y="161.11456298828125" type="line"/>
      <point x="265.21456146240234" y="260" type="line"/>
      <point x="204.0999984741211" y="260" type="line"/>
      <point x="204.0999984741211" y="540" type="line"/>
      <point x="265.21456146240234" y="540" type="line"/>
      <point x="364.0999984741211" y="638.8854370117188" type="line"/>
      <point x="364.0999984741211" y="700" type="line"/>
      <point x="142.98544311523438" y="700" type="line"/>
    </contour>
  </outline>
</glyph>
<glyph name="equal" format="2">
  <advance width="658.2"/>
  <unicode hex="003D"/>
  <outline>
    <contour>
      <point x="89.0999984741211" y="450" type="line"/>
      <point x="569.0999984741211" y="450" type="line"/>
      <point x="569.0999984741211" y="610" type="line"/>
      <point x="89.0999984741211" y="610" type="line"/>
    </contour>
    <contour>
      <point x="89.0999984741211" y="190" type="line"/>
      <point x="569.0999984741211" y="190" type="line"/>
      <point x="569.0999984741211" y="350" type="line"/>
      <point x="89.0999984741211" y="350" type="line"/>
    </contour>
  </outline>
</glyph>
<glyph name="greater" format="2">
  <advance width="408.2"/>
  <unicode hex="003E"/>
  <outline>
    <contour>
      <point x="204.0999984741211" y="260" type="line"/>
      <point x="142.98544311523438" y="260" type="line"/>
      <point x="44.099998474121094" y="161.11456298828125" type="line"/>
      <point x="44.099998474121094" y="100" type="line"/>
      <point x="265.21456146240234" y="100" type="line"/>
      <point x="364.0999984741211" y="198.88543701171875" type="line"/>
      <point x="364.0999984741211" y="601.1145629882812" type="line"/>
      <point x="265.21456146240234" y="700" type="line"/>
      <point x="44.099998474121094" y="700" type="line"/>
      <point x="44.099998474121094" y="638.8854370117188" type="line"/>
      <point x="142.98544311523438" y="540" type="line"/>
      <point x="204.0999984741211" y="540" type="line"/>
    </contour>
  </outline>
</glyph>
<glyph name="question" format="2">
  <advance width="453.2"/>
  <unicode hex="003F"/>
  <outline>
    <contour>
      <point x="44.1" y="805.0" type="line"/>
      <point x="44.1" y="645.0" type="line"/>
      <point x="105.21456" y="645.0" type="line"/>
      <point x="204.1" y="743.88544" type="line"/>
      <point x="204.1" y="805.0" type="line"/>
    </contour>
    <contour>
      <point x="310.21456146240234" y="405" type="line"/>
      <point x="409.0999984741211" y="503.88543701171875" type="line"/>
      <point x="409.0999984741211" y="706.1145629882812" type="line"/>
      <point x="310.21456146240234" y="805" type="line"/>
      <point x="249.0999984741211" y="805" type="line"/>
      <point x="249.0999984741211" y="405" type="line"/>
    </contour>
    <contour>
      <point x="44.099998474121094" y="230" type="line"/>
      <point x="204.0999984741211" y="230" type="line"/>
      <point x="204.0999984741211" y="555" type="line"/>
      <point x="142.98544311523438" y="555" type="line"/>
      <point x="44.099998474121094" y="456.11456298828125" type="line"/>
    </contour>
    <contour>
      <point x="44.1" y="0" type="line"/>
      <point x="204.1" y="0" type="line"/>
      <point x="204.1" y="160.0" type="line"/>
      <point x="44.1" y="160.0" type="line"/>
    </contour>
  </outline>
</glyph>
<glyph name="at" format="2">
  <advance width="1016.5749000000001"/>
  <unicode hex="0040"/>
  <outline>
    <contour>
      <point x="892.4749" y="559.13565" type="line"/>
      <point x="667.4231000000001" y="784.18745" type="line"/>
      <point x="349.1518" y="784.18745" type="line"/>
      <point x="124.1" y="559.13565" type="line"/>
      <point x="124.1" y="240.86435" type="line"/>
      <point x="349.1518" y="15.81255" type="line"/>
      <point x="667.4231000000001" y="15.81255" type="line"/>
      <point x="892.4749" y="240.86435" type="line"/>
    </contour>
    <contour>
      <point x="414.67288970947266" y="200" type="line"/>
      <point x="315.7874526977539" y="298.88543701171875" type="line"/>
      <point x="315.7874526977539" y="501.11456298828125" type="line"/>
      <point x="414.67288970947266" y="600" type="line"/>
      <point x="475.7874526977539" y="600" type="line"/>
      <point x="475.7874526977539" y="200" type="line"/>
    </contour>
    <contour>
      <point x="619.6728897094727" y="200" type="line"/>
      <point x="520.7874526977539" y="298.88543701171875" type="line"/>
      <point x="520.7874526977539" y="600" type="line"/>
      <point x="680.7874526977539" y="600" type="line"/>
      <point x="680.7874526977539" y="200" type="line"/>
    </contour>
  </outline>
</glyph>
<glyph name="D" format="2">
  <advance width="453.2"/>
  <unicode hex="0044"/>
  <outline>
    <contour>
      <point x="44.099998474121094" y="0" type="line"/>
      <point x="204.0999984741211" y="0" type="line"/>
      <point x="204.0999984741211" y="800" type="line"/>
      <point x="44.099998474121094" y="800" type="line"/>
    </contour>
    <contour>
      <point x="310.21456146240234" y="0" type="line"/>
      <point x="409.0999984741211" y="98.88543701171875" type="line"/>
      <point x="409.0999984741211" y="701.1145629882812" type="line"/>
      <point x="310.21456146240234" y="800" type="line"/>
      <point x="249.0999984741211" y="800" type="line"/>
      <point x="249.0999984741211" y="0" type="line"/>
    </contour>
  </outline>
</glyph>
<glyph name="E" format="2">
  <advance width="453.2"/>
  <unicode hex="0045"/>
  <outline>
    <contour>
      <point x="44.099998474121094" y="0" type="line"/>
      <point x="204.0999984741211" y="0" type="line"/>
      <point x="204.0999984741211" y="800" type="line"/>
      <point x="44.099998474121094" y="800" type="line"/>
    </contour>
    <contour>
      <point x="409.1" y="800.0" type="line"/>
      <point x="249.1" y="800.0" type="line"/>
      <point x="249.1" y="738.88544" type="line"/>
      <point x="347.98544000000004" y="640.0" type="line"/>
      <point x="409.1" y="640.0" type="line"/>
    </contour>
    <contour>
      <point x="409.1" y="480.0" type="line"/>
      <point x="249.1" y="480.0" type="line"/>
      <point x="249.1" y="418.88544" type="line"/>
      <point x="347.98544000000004" y="320.0" type="line"/>
      <point x="409.1" y="320.0" type="line"/>
    </contour>
    <contour>
      <point x="409.1" y="0.0" type="line"/>
      <point x="409.1" y="160.0" type="line"/>
      <point x="347.98544000000004" y="160.0" type="line"/>
      <point x="249.1" y="61.11456" type="line"/>
      <point x="249.1" y="0.0" type="line"/>
    </contour>
  </outline>
</glyph>
<glyph name="F" format="2">
  <advance width="453.2"/>
  <unicode hex="0046"/>
  <outline>
    <contour>
      <point x="44.099998474121094" y="0" type="line"/>
      <point x="204.0999984741211" y="0" type="line"/>
      <point x="204.0999984741211" y="800" type="line"/>
      <point x="44.099998474121094" y="800" type="line"/>
    </contour>
    <contour>
      <point x="409.1" y="800.0" type="line"/>
      <point x="249.1" y="800.0" type="line"/>
      <point x="249.1" y="738.88544" type="line"/>
      <point x="347.98544000000004" y="640.0" type="line"/>
      <point x="409.1" y="640.0" type="line"/>
    </contour>
    <contour>
      <point x="409.1" y="480.0" type="line"/>
      <point x="249.1" y="480.0" type="line"/>
      <point x="249.1" y="418.88544" type="line"/>
      <point x="347.98544000000004" y="320.0" type="line"/>
      <point x="409.1" y="320.0" type="line"/>
    </contour>
  </outline>
</glyph>
<glyph name="G" format="2">
  <advance width="453.2"/>
  <unicode hex="0047"/>
  <outline>
    <contour>
      <point x="142.98544311523438" y="0" type="line"/>
      <point x="204.0999984741211" y="0" type="line"/>
      <point x="204.0999984741211" y="800" type="line"/>
      <point x="142.98544311523438" y="800" type="line"/>
      <point x="44.099998474121094" y="701.1145629882812" type="line"/>
      <point x="44.099998474121094" y="98.88543701171875" type="line"/>
    </contour>
    <contour>
      <point x="409.1" y="800.0" type="line"/>
      <point x="249.1" y="800.0" type="line"/>
      <point x="249.1" y="738.88544" type="line"/>
      <point x="347.98544000000004" y="640.0" type="line"/>
      <point x="409.1" y="640.0" type="line"/>
    </contour>
    <contour>
      <point x="347.9854431152344" y="0" type="line"/>
      <point x="409.0999984741211" y="0" type="line"/>
      <point x="409.0999984741211" y="400" type="line"/>
      <point x="249.0999984741211" y="400" type="line"/>
      <point x="249.0999984741211" y="98.88543701171875" type="line"/>
    </contour>
  </outline>
</glyph>
<glyph name="H" format="2">
  <advance width="658.2"/>
  <unicode hex="0048"/>
  <outline>
    <contour>
      <point x="44.099998474121094" y="0" type="line"/>
      <point x="204.0999984741211" y="0" type="line"/>
      <point x="204.0999984741211" y="800" type="line"/>
      <point x="44.099998474121094" y="800" type="line"/>
    </contour>
    <contour>
      <point x="454.0999984741211" y="0" type="line"/>
      <point x="614.0999984741211" y="0" type="line"/>
      <point x="614.0999984741211" y="800" type="line"/>
      <point x="454.0999984741211" y="800" type="line"/>
    </contour>
    <contour>
      <point x="409.1" y="480.0" type="line"/>
      <point x="249.1" y="480.0" type="line"/>
      <point x="249.1" y="418.88544" type="line"/>
      <point x="347.98544000000004" y="320.0" type="line"/>
      <point x="409.1" y="320.0" type="line"/>
    </contour>
  </outline>
</glyph>
<glyph name="J" format="2">
  <advance width="453.2"/>
  <unicode hex="004A"/>
  <outline>
    <contour>
      <point x="310.21456146240234" y="-5" type="line"/>
      <point x="409.0999984741211" y="93.88543701171875" type="line"/>
      <point x="409.0999984741211" y="800" type="line"/>
      <point x="249.0999984741211" y="800" type="line"/>
      <point x="249.0999984741211" y="-5" type="line"/>
    </contour>
    <contour>
      <point x="204.1" y="155.0" type="line"/>
      <point x="44.1" y="155.0" type="line"/>
      <point x="44.1" y="93.88544" type="line"/>
      <point x="142.98544" y="-5.0" type="line"/>
      <point x="204.1" y="-5.0" type="line"/>
    </contour>
  </outline>
</glyph>
<glyph name="L" format="2">
  <advance width="453.2"/>
  <unicode hex="004C"/>
  <outline>
    <contour>
      <point x="44.099998474121094" y="0" type="line"/>
      <point x="204.0999984741211" y="0" type="line"/>
      <point x="204.0999984741211" y="800" type="line"/>
      <point x="44.099998474121094" y="800" type="line"/>
    </contour>
    <contour>
      <point x="409.1" y="0.0" type="line"/>
      <point x="409.1" y="160.0" type="line"/>
      <point x="347.98544000000004" y="160.0" type="line"/>
      <point x="249.1" y="61.11456" type="line"/>
      <point x="249.1" y="0.0" type="line"/>
    </contour>
  </outline>
</glyph>
<glyph name="P" format="2">
  <advance width="453.2"/>
  <unicode hex="0050"/>
  <outline>
    <contour>
      <point x="44.099998474121094" y="0" type="line"/>
      <point x="204.0999984741211" y="0" type="line"/>
      <point x="204.0999984741211" y="800" type="line"/>
      <point x="44.099998474121094" y="800" type="line"/>
    </contour>
    <contour>
      <point x="310.21456146240234" y="200" type="line"/>
      <point x="409.0999984741211" y="298.88543701171875" type="line"/>
      <point x="409.0999984741211" y="701.1145629882812" type="line"/>
      <point x="310.21456146240234" y="800" type="line"/>
      <point x="249.0999984741211" y="800" type="line"/>
      <point x="249.0999984741211" y="200" type="line"/>
    </contour>
  </outline>
</glyph>
<glyph name="Q" format="2">
  <advance width="453.2"/>
  <unicode hex="0051"/>
  <outline>
    <contour>
      <point x="142.98544311523438" y="-5" type="line"/>
      <point x="204.0999984741211" y="-5" type="line"/>
      <point x="204.0999984741211" y="805" type="line"/>
      <point x="142.98544311523438" y="805" type="line"/>
      <point x="44.099998474121094" y="706.1145629882812" type="line"/>
      <point x="44.099998474121094" y="93.88543701171875" type="line"/>
    </contour>
    <contour>
      <point x="409.0999984741211" y="0" type="line"/>
      <point x="315.21456146240234" y="0" type="line"/>
      <point x="409.0999984741211" y="93.88543701171875" type="line"/>
      <point x="409.0999984741211" y="706.1145629882812" type="line"/>
      <point x="310.21456146240234" y="805" type="line"/>
      <point x="249.0999984741211" y="805" type="line"/>
      <point x="249.0999984741211" y="-61.11456298828125" type="line"/>
      <point x="347.9854431152344" y="-160" type="line"/>
      <point x="409.0999984741211" y="-160" type="line"/>
    </contour>
  </outline>
</glyph>
<glyph name="R" format="2">
  <advance width="453.2"/>
  <unicode hex="0052"/>
  <outline>
    <contour>
      <point x="44.099998474121094" y="0" type="line"/>
      <point x="204.0999984741211" y="0" type="line"/>
      <point x="204.0999984741211" y="800" type="line"/>
      <point x="44.099998474121094" y="800" type="line"/>
    </contour>
    <contour>
      <point x="249.0999984741211" y="0" type="line"/>
      <point x="409.0999984741211" y="0" type="line"/>
      <point x="409.0999984741211" y="101.11456298828125" type="line"/>
      <point x="310.21456146240234" y="200" type="line"/>
      <point x="409.0999984741211" y="298.88543701171875" type="line"/>
      <point x="409.0999984741211" y="701.1145629882812" type="line"/>
      <point x="310.21456146240234" y="800" type="line"/>
      <point x="249.0999984741211" y="800" type="line"/>
    </contour>
  </outline>
</glyph>
<glyph name="T" format="2">
  <advance width="658.2"/>
  <unicode hex="0054"/>
  <outline>
    <contour>
      <point x="44.1" y="800.0" type="line"/>
      <point x="44.1" y="640.0" type="line"/>
      <point x="105.21456" y="640.0" type="line"/>
      <point x="204.1" y="738.88544" type="line"/>
      <point x="204.1" y="800.0" type="line"/>
    </contour>
    <contour>
      <point x="249.0999984741211" y="0" type="line"/>
      <point x="409.0999984741211" y="0" type="line"/>
      <point x="409.0999984741211" y="800" type="line"/>
      <point x="249.0999984741211" y="800" type="line"/>
    </contour>
    <contour>
      <point x="614.1" y="800.0" type="line"/>
      <point x="454.1" y="800.0" type="line"/>
      <point x="454.1" y="738.88544" type="line"/>
      <point x="552.98544" y="640.0" type="line"/>
      <point x="614.1" y="640.0" type="line"/>
    </contour>
  </outline>
</glyph>
<glyph name="U" format="2">
  <advance width="453.2"/>
  <unicode hex="0055"/>
  <outline>
    <contour>
      <point x="142.98544311523438" y="-5" type="line"/>
      <point x="204.0999984741211" y="-5" type="line"/>
      <point x="204.0999984741211" y="800" type="line"/>
      <point x="44.099998474121094" y="800" type="line"/>
      <point x="44.099998474121094" y="93.88543701171875" type="line"/>
    </contour>
    <contour>
      <point x="310.21456146240234" y="-5" type="line"/>
      <point x="409.0999984741211" y="93.88543701171875" type="line"/>
      <point x="409.0999984741211" y="800" type="line"/>
      <point x="249.0999984741211" y="800" type="line"/>
      <point x="249.0999984741211" y="-5" type="line"/>
    </contour>
  </outline>
</glyph>
<glyph name="X" format="2">
  <advance width="453.2"/>
  <unicode hex="0058"/>
  <outline>
    <contour>
      <point x="44.099998474121094" y="0" type="line"/>
      <point x="204.0999984741211" y="0" type="line"/>
      <point x="204.0999984741211" y="800" type="line"/>
      <point x="44.099998474121094" y="800" type="line"/>
      <point x="44.099998474121094" y="498.88543701171875" type="line"/>
      <point x="142.98544311523438" y="400" type="line"/>
      <point x="44.099998474121094" y="301.11456298828125" type="line"/>
    </contour>
    <contour>
      <point x="249.0999984741211" y="0" type="line"/>
      <point x="409.0999984741211" y="0" type="line"/>
      <point x="409.0999984741211" y="301.11456298828125" type="line"/>
      <point x="310.21456146240234" y="400" type="line"/>
      <point x="409.0999984741211" y="498.88543701171875" type="line"/>
      <point x="409.0999984741211" y="800" type="line"/>
      <point x="249.0999984741211" y="800" type="line"/>
    </contour>
  </outline>
</glyph>
<glyph name="bracketleft" format="2">
  <advance width="408.2"/>
  <unicode hex="005B"/>
  <outline>
    <contour>
      <point x="44.099998474121094" y="-100" type="line"/>
      <point x="364.0999984741211" y="-100" type="line"/>
      <point x="364.0999984741211" y="-38.88543701171875" type="line"/>
      <point x="265.21456146240234" y="60" type="line"/>
      <point x="204.0999984741211" y="60" type="line"/>
      <point x="204.0999984741211" y="740" type="line"/>
      <point x="265.21456146240234" y="740" type="line"/>
      <point x="364.0999984741211" y="838.8854370117188" type="line"/>
      <point x="364.0999984741211" y="900" type="line"/>
      <point x="44.099998474121094" y="900" type="line"/>
    </contour>
  </outline>
</glyph>
<glyph name="bracketright" format="2">
  <advance width="408.2"/>
  <unicode hex="005D"/>
  <outline>
    <contour>
      <point x="44.099998474121094" y="838.8854370117188" type="line"/>
      <point x="142.98544311523438" y="740" type="line"/>
      <point x="204.0999984741211" y="740" type="line"/>
      <point x="204.0999984741211" y="60" type="line"/>
      <point x="142.98544311523438" y="60" type="line"/>
      <point x="44.099998474121094" y="-38.88543701171875" type="line"/>
      <point x="44.099998474121094" y="-100" type="line"/>
      <point x="364.0999984741211" y="-100" type="line"/>
      <point x="364.0999984741211" y="900" type="line"/>
      <point x="44.099998474121094" y="900" type="line"/>
    </contour>
  </outline>
</glyph>
<glyph name="asciicircum" format="2">
  <advance width="408.2"/>
  <unicode hex="005E"/>
  <outline>
    <contour>
      <point x="44.099998474121094" y="860" type="line"/>
      <point x="44.099998474121094" y="700" type="line"/>
      <point x="105.21456146240234" y="700" type="line"/>
      <point x="204.0999984741211" y="798.8854370117188" type="line"/>
      <point x="302.9854431152344" y="700" type="line"/>
      <point x="364.0999984741211" y="700" type="line"/>
      <point x="364.0999984741211" y="860" type="line"/>
    </contour>
  </outline>
</glyph>
<glyph name="underscore" format="2">
  <advance width="453.2"/>
  <unicode hex="005F"/>
  <outline>
    <contour>
      <point x="44.099998474121094" y="-180" type="line"/>
      <point x="409.0999984741211" y="-180" type="line"/>
      <point x="409.0999984741211" y="-20" type="line"/>
      <point x="44.099998474121094" y="-20" type="line"/>
    </contour>
  </outline>
</glyph>
<glyph name="grave" format="2">
  <advance width="248.2"/>
  <unicode hex="0060"/>
  <outline>
    <contour>
      <point x="134.1" y="960.0" type="line"/>
      <point x="-25.9" y="960.0" type="line"/>
      <point x="-25.9" y="898.88544" type="line"/>
      <point x="72.98544" y="800.0" type="line"/>
      <point x="134.1" y="800.0" type="line"/>
    </contour>
  </outline>
</glyph>
<glyph name="d" format="2">
  <advance width="453.2"/>
  <unicode hex="0064"/>
  <outline>
    <contour>
      <point x="249.0999984741211" y="0" type="line"/>
      <point x="409.0999984741211" y="0" type="line"/>
      <point x="409.0999984741211" y="800" type="line"/>
      <point x="249.0999984741211" y="800" type="line"/>
    </contour>
    <contour>
      <point x="142.98544311523438" y="0" type="line"/>
      <point x="204.0999984741211" y="0" type="line"/>
      <point x="204.0999984741211" y="605" type="line"/>
      <point x="142.98544311523438" y="605" type="line"/>
      <point x="44.099998474121094" y="506.11456298828125" type="line"/>
      <point x="44.099998474121094" y="98.88543701171875" type="line"/>
    </contour>
  </outline>
</glyph>
<glyph name="f" format="2">
  <advance width="453.2"/>
  <unicode hex="0066"/>
  <outline>
    <contour>
      <point x="44.099998474121094" y="0" type="line"/>
      <point x="204.0999984741211" y="0" type="line"/>
      <point x="204.0999984741211" y="800" type="line"/>
      <point x="142.98544311523438" y="800" type="line"/>
      <point x="44.099998474121094" y="701.1145629882812" type="line"/>
    </contour>
    <contour>
      <point x="409.1" y="800.0" type="line"/>
      <point x="249.1" y="800.0" type="line"/>
      <point x="249.1" y="738.88544" type="line"/>
      <point x="347.98544000000004" y="640.0" type="line"/>
      <point x="409.1" y="640.0" type="line"/>
    </contour>
    <contour>
      <point x="409.1" y="587.5" type="line"/>
      <point x="249.1" y="587.5" type="line"/>
      <point x="249.1" y="526.38544" type="line"/>
      <point x="347.98544000000004" y="427.5" type="line"/>
      <point x="409.1" y="427.5" type="line"/>
    </contour>
  </outline>
</glyph>
<glyph name="i" format="2">
  <advance width="248.2"/>
  <unicode hex="0069"/>
  <outline>
    <contour>
      <point x="44.1" y="638.88889" type="line"/>
      <point x="204.1" y="638.88889" type="line"/>
      <point x="204.1" y="798.88889" type="line"/>
      <point x="44.1" y="798.88889" type="line"/>
    </contour>
    <contour>
      <point x="44.099998474121094" y="0" type="line"/>
      <point x="204.0999984741211" y="0" type="line"/>
      <point x="204.0999984741211" y="600" type="line"/>
      <point x="44.099998474121094" y="600" type="line"/>
    </contour>
  </outline>
</glyph>
<glyph name="j" format="2">
  <advance width="453.2"/>
  <unicode hex="006A"/>
  <outline>
    <contour>
      <point x="249.1" y="638.88889" type="line"/>
      <point x="409.1" y="638.88889" type="line"/>
      <point x="409.1" y="798.88889" type="line"/>
      <point x="249.1" y="798.88889" type="line"/>
    </contour>
    <contour>
      <point x="310.21456146240234" y="-210" type="line"/>
      <point x="409.0999984741211" y="-111.11456298828125" type="line"/>
      <point x="409.0999984741211" y="600" type="line"/>
      <point x="249.0999984741211" y="600" type="line"/>
      <point x="249.0999984741211" y="-210" type="line"/>
    </contour>
    <contour>
      <point x="204.1" y="-50.0" type="line"/>
      <point x="44.1" y="-50.0" type="line"/>
      <point x="44.1" y="-111.11456" type="line"/>
      <point x="142.98544" y="-210.0" type="line"/>
      <point x="204.1" y="-210.0" type="line"/>
    </contour>
  </outline>
</glyph>
<glyph name="l" format="2">
  <advance width="248.2"/>
  <unicode hex="006C"/>
  <outline>
    <contour>
      <point x="142.98544311523438" y="-5" type="line"/>
      <point x="204.0999984741211" y="-5" type="line"/>
      <point x="204.0999984741211" y="800" type="line"/>
      <point x="44.099998474121094" y="800" type="line"/>
      <point x="44.099998474121094" y="93.88543701171875" type="line"/>
    </contour>
  </outline>
</glyph>
<glyph name="m" format="2">
  <advance width="658.2"/>
  <unicode hex="006D"/>
  <outline>
    <contour>
      <point x="44.099998474121094" y="0" type="line"/>
      <point x="204.0999984741211" y="0" type="line"/>
      <point x="204.0999984741211" y="600" type="line"/>
      <point x="44.099998474121094" y="600" type="line"/>
    </contour>
    <contour>
      <point x="249.0999984741211" y="0" type="line"/>
      <point x="409.0999984741211" y="0" type="line"/>
      <point x="409.0999984741211" y="600" type="line"/>
      <point x="249.0999984741211" y="600" type="line"/>
    </contour>
    <contour>
      <point x="454.0999984741211" y="0" type="line"/>
      <point x="614.0999984741211" y="0" type="line"/>
      <point x="614.0999984741211" y="501.11456298828125" type="line"/>
      <point x="515.2145614624023" y="600" type="line"/>
      <point x="454.0999984741211" y="600" type="line"/>
    </contour>
  </outline>
</glyph>
<glyph name="n" format="2">
  <advance width="453.2"/>
  <unicode hex="006E"/>
  <outline>
    <contour>
      <point x="44.099998474121094" y="0" type="line"/>
      <point x="204.0999984741211" y="0" type="line"/>
      <point x="204.0999984741211" y="600" type="line"/>
      <point x="44.099998474121094" y="600" type="line"/>
    </contour>
    <contour>
      <point x="249.0999984741211" y="0" type="line"/>
      <point x="409.0999984741211" y="0" type="line"/>
      <point x="409.0999984741211" y="501.11456298828125" type="line"/>
      <point x="310.21456146240234" y="600" type="line"/>
      <point x="249.0999984741211" y="600" type="line"/>
    </contour>
  </outline>
</glyph>
<glyph name="p" format="2">
  <advance width="453.2"/>
  <unicode hex="0070"/>
  <outline>
    <contour>
      <point x="44.099998474121094" y="-200" type="line"/>
      <point x="204.0999984741211" y="-200" type="line"/>
      <point x="204.0999984741211" y="600" type="line"/>
      <point x="44.099998474121094" y="600" type="line"/>
    </contour>
    <contour>
      <point x="310.21456146240234" y="0" type="line"/>
      <point x="409.0999984741211" y="98.88543701171875" type="line"/>
      <point x="409.0999984741211" y="501.11456298828125" type="line"/>
      <point x="310.21456146240234" y="600" type="line"/>
      <point x="249.0999984741211" y="600" type="line"/>
      <point x="249.0999984741211" y="0" type="line"/>
    </contour>
  </outline>
</glyph>
<glyph name="q" format="2">
  <advance width="453.2"/>
  <unicode hex="0071"/>
  <outline>
    <contour>
      <point x="142.98544311523438" y="0" type="line"/>
      <point x="204.0999984741211" y="0" type="line"/>
      <point x="204.0999984741211" y="600" type="line"/>
      <point x="142.98544311523438" y="600" type="line"/>
      <point x="44.099998474121094" y="501.11456298828125" type="line"/>
      <point x="44.099998474121094" y="98.88543701171875" type="line"/>
    </contour>
    <contour>
      <point x="249.0999984741211" y="-200" type="line"/>
      <point x="409.0999984741211" y="-200" type="line"/>
      <point x="409.0999984741211" y="600" type="line"/>
      <point x="249.0999984741211" y="600" type="line"/>
    </contour>
  </outline>
</glyph>
<glyph name="s" format="2">
  <advance width="453.2"/>
  <unicode hex="0073"/>
  <outline>
    <contour>
      <point x="142.98544311523438" y="220" type="line"/>
      <point x="204.0999984741211" y="220" type="line"/>
      <point x="204.0999984741211" y="600" type="line"/>
      <point x="142.98544311523438" y="600" type="line"/>
      <point x="44.099998474121094" y="501.11456298828125" type="line"/>
      <point x="44.099998474121094" y="318.88543701171875" type="line"/>
    </contour>
    <contour>
      <point x="404.1" y="600.0" type="line"/>
      <point x="244.1" y="600.0" type="line"/>
      <point x="244.1" y="538.88544" type="line"/>
      <point x="342.98544000000004" y="440.0" type="line"/>
      <point x="404.1" y="440.0" type="line"/>
    </contour>
    <contour>
      <point x="310.21456146240234" y="-5" type="line"/>
      <point x="409.0999984741211" y="93.88543701171875" type="line"/>
      <point x="409.0999984741211" y="276.11456298828125" type="line"/>
      <point x="310.21456146240234" y="375" type="line"/>
      <point x="249.0999984741211" y="375" type="line"/>
      <point x="249.0999984741211" y="-5" type="line"/>
    </contour>
    <contour>
      <point x="46.6" y="0" type="line"/>
      <point x="206.6" y="0" type="line"/>
      <point x="206.6" y="61.11456" type="line"/>
      <point x="107.71456" y="160.0" type="line"/>
      <point x="46.6" y="160.0" type="line"/>
    </contour>
  </outline>
</glyph>
<glyph name="x" format="2">
  <advance width="453.2"/>
  <unicode hex="0078"/>
  <outline>
    <contour>
      <point x="44.099998474121094" y="0" type="line"/>
      <point x="204.0999984741211" y="0" type="line"/>
      <point x="204.0999984741211" y="600" type="line"/>
      <point x="44.099998474121094" y="600" type="line"/>
      <point x="44.099998474121094" y="398.88543701171875" type="line"/>
      <point x="142.98544311523438" y="300" type="line"/>
      <point x="44.099998474121094" y="201.11456298828125" type="line"/>
    </contour>
    <contour>
      <point x="249.0999984741211" y="0" type="line"/>
      <point x="409.0999984741211" y="0" type="line"/>
      <point x="409.0999984741211" y="201.11456298828125" type="line"/>
      <point x="310.21456146240234" y="300" type="line"/>
      <point x="409.0999984741211" y="398.88543701171875" type="line"/>
      <point x="409.0999984741211" y="600" type="line"/>
      <point x="249.0999984741211" y="600" type="line"/>
    </contour>
  </outline>
</glyph>
<glyph name="z" format="2">
  <advance width="453.2"/>
  <unicode hex="007A"/>
  <outline>
    <contour>
      <point x="44.1" y="600.0" type="line"/>
      <point x="44.1" y="440.0" type="line"/>
      <point x="105.21456" y="440.0" type="line"/>
      <point x="204.1" y="538.88544" type="line"/>
      <point x="204.1" y="600.0" type="line"/>
    </contour>
    <contour>
      <point x="310.21456146240234" y="220" type="line"/>
      <point x="409.0999984741211" y="318.88543701171875" type="line"/>
      <point x="409.0999984741211" y="600" type="line"/>
      <point x="249.0999984741211" y="600" type="line"/>
      <point x="249.0999984741211" y="220" type="line"/>
    </contour>
    <contour>
      <point x="44.099998474121094" y="0" type="line"/>
      <point x="204.0999984741211" y="0" type="line"/>
      <point x="204.0999984741211" y="380" type="line"/>
      <point x="142.98544311523438" y="380" type="line"/>
      <point x="44.099998474121094" y="281.11456298828125" type="line"/>
    </contour>
    <contour>
      <point x="409.1" y="0.0" type="line"/>
      <point x="409.1" y="160.0" type="line"/>
      <point x="347.98544000000004" y="160.0" type="line"/>
      <point x="249.1" y="61.11456" type="line"/>
      <point x="249.1" y="0.0" type="line"/>
    </contour>
  </outline>
</glyph>
<glyph name="braceleft" format="2">
  <advance width="248.2"/>
  <unicode hex="007B"/>
  <outline>
    <contour>
      <point x="142.98544311523438" y="-100" type="line"/>
      <point x="204.0999984741211" y="-100" type="line"/>
      <point x="204.0999984741211" y="301.11456298828125" type="line"/>
      <point x="105.21456146240234" y="400" type="line"/>
      <point x="204.0999984741211" y="498.88543701171875" type="line"/>
      <point x="204.0999984741211" y="900" type="line"/>
      <point x="142.98544311523438" y="900" type="line"/>
      <point x="44.099998474121094" y="801.1145629882812" type="line"/>
      <point x="44.099998474121094" y="-1.11456298828125" type="line"/>
    </contour>
  </outline>
</glyph>
<glyph name="bar" format="2">
  <advance width="248.2"/>
  <unicode hex="007C"/>
  <outline>
    <contour>
      <point x="44.099998474121094" y="-100" type="line"/>
      <point x="204.0999984741211" y="-100" type="line"/>
      <point x="204.0999984741211" y="900" type="line"/>
      <point x="44.099998474121094" y="900" type="line"/>
    </contour>
  </outline>
</glyph>
<glyph name="braceright" format="2">
  <advance width="248.2"/>
  <unicode hex="007D"/>
  <outline>
    <contour>
      <point x="142.98544311523438" y="400" type="line"/>
      <point x="44.099998474121094" y="301.11456298828125" type="line"/>
      <point x="44.099998474121094" y="-100" type="line"/>
      <point x="105.21456146240234" y="-100" type="line"/>
      <point x="204.0999984741211" y="-1.11456298828125" type="line"/>
      <point x="204.0999984741211" y="801.1145629882812" type="line"/>
      <point x="105.21456146240234" y="900" type="line"/>
      <point x="44.099998474121094" y="900" type="line"/>
      <point x="44.099998474121094" y="498.88543701171875" type="line"/>
    </contour>
  </outline>
</glyph>
<glyph name="tilde" format="2">
  <advance width="453.2"/>
  <unicode hex="007E"/>
  <outline>
    <contour>
      <point x="44.099998474121094" y="381.11456298828125" type="line"/>
      <point x="44.099998474121094" y="320" type="line"/>
      <point x="310.21456146240234" y="320" type="line"/>
      <point x="409.0999984741211" y="418.88543701171875" type="line"/>
      <point x="409.0999984741211" y="480" type="line"/>
      <point x="142.98544311523438" y="480" type="line"/>
    </contour>
  </outline>
</glyph>
<glyph name="invexclamation" format="2">
  <advance width="248.2"/>
  <unicode hex="00A1"/>
  <outline>
    <contour>
      <point x="44.1" y="440.0" type="line"/>
      <point x="204.1" y="440.0" type="line"/>
      <point x="204.1" y="600.0" type="line"/>
      <point x="44.1" y="600.0" type="line"/>
    </contour>
    <contour>
      <point x="44.099998474121094" y="-200" type="line"/>
      <point x="204.0999984741211" y="-200" type="line"/>
      <point x="204.0999984741211" y="370" type="line"/>
      <point x="44.099998474121094" y="370" type="line"/>
    </contour>
  </outline>
</glyph>
<glyph name="cent" format="2">
  <advance width="453.2"/>
  <unicode hex="00A2"/>
  <outline>
    <contour>
      <point x="124.0999984741211" y="0" type="line"/>
      <point x="204.0999984741211" y="0" type="line"/>
      <point x="204.0999984741211" y="600" type="line"/>
      <point x="124.0999984741211" y="600" type="line"/>
      <point x="124.0999984741211" y="486.1145553588867" type="line"/>
      <point x="44.099998474121094" y="406.11456298828125" type="line"/>
      <point x="44.099998474121094" y="193.88543701171875" type="line"/>
      <point x="124.0999984741211" y="113.88544464111328" type="line"/>
    </contour>
    <contour>
      <point x="409.0999984741211" y="510" type="line"/>
      <point x="329.0999984741211" y="510" type="line"/>
      <point x="329.0999984741211" y="600" type="line"/>
      <point x="249.0999984741211" y="600" type="line"/>
      <point x="249.0999984741211" y="448.88543701171875" type="line"/>
      <point x="347.9854431152344" y="350" type="line"/>
      <point x="409.0999984741211" y="350" type="line"/>
    </contour>
    <contour>
      <point x="249.0999984741211" y="0" type="line"/>
      <point x="329.0999984741211" y="0" type="line"/>
      <point x="329.0999984741211" y="90" type="line"/>
      <point x="409.0999984741211" y="90" type="line"/>
      <point x="409.0999984741211" y="250" type="line"/>
      <point x="347.9854431152344" y="250" type="line"/>
      <point x="249.0999984741211" y="151.11456298828125" type="line"/>
    </contour>
  </outline>
</glyph>
<glyph name="pound" format="2">
  <advance width="583.2"/>
  <unicode hex="00A3"/>
  <outline>
    <contour>
      <point x="169.0999984741211" y="0" type="line"/>
      <point x="329.0999984741211" y="0" type="line"/>
      <point x="329.0999984741211" y="805" type="line"/>
      <point x="267.9854431152344" y="805" type="line"/>
      <point x="169.0999984741211" y="706.1145629882812" type="line"/>
    </contour>
    <contour>
      <point x="539.1" y="752.46711" type="line"/>
      <point x="486.56711000000007" y="805.0" type="line"/>
      <point x="421.63289000000003" y="805.0" type="line"/>
      <point x="369.1" y="752.46711" type="line"/>
      <point x="369.1" y="687.53289" type="line"/>
      <point x="421.63289000000003" y="635.0" type="line"/>
      <point x="486.56711000000007" y="635.0" type="line"/>
      <point x="539.1" y="687.53289" type="line"/>
    </contour>
    <contour>
      <point x="44.1" y="360.0" type="line"/>
      <point x="124.1" y="360.0" type="line"/>
      <point x="124.1" y="440.0" type="line"/>
      <point x="44.1" y="440.0" type="line"/>
    </contour>
    <contour>
      <point x="374.0999984741211" y="360" type="line"/>
      <point x="494.0999984741211" y="360" type="line"/>
      <point x="494.0999984741211" y="440" type="line"/>
      <point x="374.0999984741211" y="440" type="line"/>
    </contour>
    <contour>
      <point x="534.1" y="0.0" type="line"/>
      <point x="534.1" y="160.0" type="line"/>
      <point x="472.98544000000004" y="160.0" type="line"/>
      <point x="374.1" y="61.11456" type="line"/>
      <point x="374.1" y="0.0" type="line"/>
    </contour>
    <contour>
      <point x="44.1" y="0" type="line"/>
      <point x="124.1" y="0" type="line"/>
      <point x="124.1" y="80.0" type="line"/>
      <point x="44.1" y="80.0" type="line"/>
    </contour>
  </outline>
</glyph>
<glyph name="currency" format="2">
  <advance width="453.2"/>
  <unicode hex="00A4"/>
  <outline>
    <contour>
      <point x="44.099998474121094" y="210" type="line"/>
      <point x="124.0999984741211" y="210" type="line"/>
      <point x="124.0999984741211" y="238.88544464111328" type="line"/>
      <point x="142.98544311523438" y="220" type="line"/>
      <point x="204.0999984741211" y="220" type="line"/>
      <point x="204.0999984741211" y="580" type="line"/>
      <point x="142.98544311523438" y="580" type="line"/>
      <point x="124.0999984741211" y="561.1145553588867" type="line"/>
      <point x="124.0999984741211" y="590" type="line"/>
      <point x="44.099998474121094" y="590" type="line"/>
      <point x="44.099998474121094" y="510" type="line"/>
      <point x="72.98543548583984" y="510" type="line"/>
      <point x="44.099998474121094" y="481.11456298828125" type="line"/>
      <point x="44.099998474121094" y="318.88543701171875" type="line"/>
      <point x="72.98543548583984" y="290" type="line"/>
      <point x="44.099998474121094" y="290" type="line"/>
    </contour>
    <contour>
      <point x="329.0999984741211" y="210" type="line"/>
      <point x="409.0999984741211" y="210" type="line"/>
      <point x="409.0999984741211" y="290" type="line"/>
      <point x="380.21456146240234" y="290" type="line"/>
      <point x="409.0999984741211" y="318.88543701171875" type="line"/>
      <point x="409.0999984741211" y="481.11456298828125" type="line"/>
      <point x="380.21456146240234" y="510" type="line"/>
      <point x="409.0999984741211" y="510" type="line"/>
      <point x="409.0999984741211" y="590" type="line"/>
      <point x="329.0999984741211" y="590" type="line"/>
      <point x="329.0999984741211" y="561.1145629882812" type="line"/>
      <point x="310.21456146240234" y="580" type="line"/>
      <point x="249.0999984741211" y="580" type="line"/>
      <point x="249.0999984741211" y="220" type="line"/>
      <point x="310.21456146240234" y="220" type="line"/>
      <point x="329.0999984741211" y="238.88543701171875" type="line"/>
    </contour>
  </outline>
</glyph>
<glyph name="yen" format="2">
  <advance width="703.2"/>
  <unicode hex="00A5"/>
  <outline>
    <contour>
      <point x="267.9854431152344" y="200" type="line"/>
      <point x="329.0999984741211" y="200" type="line"/>
      <point x="329.0999984741211" y="706.1145629882812" type="line"/>
      <point x="230.21456146240234" y="805" type="line"/>
      <point x="169.0999984741211" y="805" type="line"/>
      <point x="169.0999984741211" y="298.88543701171875" type="line"/>
    </contour>
    <contour>
      <point x="435.21456146240234" y="-5" type="line"/>
      <point x="534.0999984741211" y="93.88543701171875" type="line"/>
      <point x="534.0999984741211" y="800" type="line"/>
      <point x="374.0999984741211" y="800" type="line"/>
      <point x="374.0999984741211" y="-5" type="line"/>
    </contour>
    <contour>
      <point x="44.1" y="535.0" type="line"/>
      <point x="124.1" y="535.0" type="line"/>
      <point x="124.1" y="615.0" type="line"/>
      <point x="44.1" y="615.0" type="line"/>
    </contour>
    <contour>
      <point x="579.1" y="535.0" type="line"/>
      <point x="659.1" y="535.0" type="line"/>
      <point x="659.1" y="615.0" type="line"/>
      <point x="579.1" y="615.0" type="line"/>
    </contour>
    <contour>
      <point x="44.1" y="385.0" type="line"/>
      <point x="124.1" y="385.0" type="line"/>
      <point x="124.1" y="465.0" type="line"/>
      <point x="44.1" y="465.0" type="line"/>
    </contour>
    <contour>
      <point x="579.1" y="385.0" type="line"/>
      <point x="659.1" y="385.0" type="line"/>
      <point x="659.1" y="465.0" type="line"/>
      <point x="579.1" y="465.0" type="line"/>
    </contour>
  </outline>
</glyph>
<glyph name="brokenbar" format="2">
  <advance width="248.2"/>
  <unicode hex="00A6"/>
  <outline>
    <contour>
      <point x="44.099998474121094" y="500" type="line"/>
      <point x="204.0999984741211" y="500" type="line"/>
      <point x="204.0999984741211" y="900" type="line"/>
      <point x="44.099998474121094" y="900" type="line"/>
    </contour>
    <contour>
      <point x="44.099998474121094" y="-100" type="line"/>
      <point x="204.0999984741211" y="-100" type="line"/>
      <point x="204.0999984741211" y="300" type="line"/>
      <point x="44.099998474121094" y="300" type="line"/>
    </contour>
  </outline>
</glyph>
<glyph name="section" format="2">
  <advance width="453.2"/>
  <unicode hex="00A7"/>
  <outline>
    <contour>
      <point x="44.099998474121094" y="401.11456298828125" type="line"/>
      <point x="44.099998474121094" y="198.88543701171875" type="line"/>
      <point x="142.98544311523438" y="100" type="line"/>
      <point x="204.0999984741211" y="100" type="line"/>
      <point x="204.0999984741211" y="800" type="line"/>
      <point x="142.98544311523438" y="800" type="line"/>
      <point x="44.099998474121094" y="701.1145629882812" type="line"/>
      <point x="44.099998474121094" y="518.8854370117188" type="line"/>
      <point x="102.98544311523438" y="460" type="line"/>
    </contour>
    <contour>
      <point x="409.1" y="800.0" type="line"/>
      <point x="249.1" y="800.0" type="line"/>
      <point x="249.1" y="738.88544" type="line"/>
      <point x="347.98544000000004" y="640.0" type="line"/>
      <point x="409.1" y="640.0" type="line"/>
    </contour>
    <contour>
      <point x="310.21456146240234" y="-200" type="line"/>
      <point x="409.0999984741211" y="-101.11456298828125" type="line"/>
      <point x="409.0999984741211" y="81.11456298828125" type="line"/>
      <point x="350.21456146240234" y="140" type="line"/>
      <point x="409.0999984741211" y="198.88543701171875" type="line"/>
      <point x="409.0999984741211" y="401.11456298828125" type="line"/>
      <point x="310.21456146240234" y="500" type="line"/>
      <point x="249.0999984741211" y="500" type="line"/>
      <point x="249.0999984741211" y="-200" type="line"/>
    </contour>
    <contour>
      <point x="44.1" y="-200" type="line"/>
      <point x="204.1" y="-200" type="line"/>
      <point x="204.1" y="-138.88544" type="line"/>
      <point x="105.21456" y="-40.0" type="line"/>
      <point x="44.1" y="-40.0" type="line"/>
    </contour>
  </outline>
</glyph>
<glyph name="diaeresis" format="2">
  <advance width="453.2"/>
  <unicode hex="00A8"/>
  <outline>
    <contour>
      <point x="44.1" y="840.0" type="line"/>
      <point x="204.1" y="840.0" type="line"/>
      <point x="204.1" y="1000.0" type="line"/>
      <point x="44.1" y="1000.0" type="line"/>
    </contour>
    <contour>
      <point x="249.1" y="840.0" type="line"/>
      <point x="409.1" y="840.0" type="line"/>
      <point x="409.1" y="1000.0" type="line"/>
      <point x="249.1" y="1000.0" type="line"/>
    </contour>
  </outline>
</glyph>
<glyph name="copyright" format="2">
  <advance width="1016.5749000000001"/>
  <unicode hex="00A9"/>
  <outline>
    <contour>
      <point x="892.4749" y="559.13565" type="line"/>
      <point x="667.4231000000001" y="784.18745" type="line"/>
      <point x="349.1518" y="784.18745" type="line"/>
      <point x="124.1" y="559.13565" type="line"/>
      <point x="124.1" y="240.86435" type="line"/>
      <point x="349.1518" y="15.81255" type="line"/>
      <point x="667.4231000000001" y="15.81255" type="line"/>
      <point x="892.4749" y="240.86435" type="line"/>
    </contour>
    <contour>
      <point x="414.67288970947266" y="190" type="line"/>
      <point x="315.7874526977539" y="288.88543701171875" type="line"/>
      <point x="315.7874526977539" y="511.11456298828125" type="line"/>
      <point x="414.67288970947266" y="610" type="line"/>
      <point x="475.7874526977539" y="610" type="line"/>
      <point x="475.7874526977539" y="190" type="line"/>
    </contour>
    <contour>
      <point x="680.78745" y="610.0" type="line"/>
      <point x="680.78745" y="450.0" type="line"/>
      <point x="619.67289" y="450.0" type="line"/>
      <point x="520.78745" y="548.88544" type="line"/>
      <point x="520.78745" y="610.0" type="line"/>
    </contour>
    <contour>
      <point x="680.78745" y="190.0" type="line"/>
      <point x="520.78745" y="190.0" type="line"/>
      <point x="520.78745" y="251.11456" type="line"/>
      <point x="619.67289" y="350.0" type="line"/>
      <point x="680.78745" y="350.0" type="line"/>
    </contour>
  </outline>
</glyph>
<glyph name="ordinalfeminine" format="2">
  <advance width="453.2"/>
  <unicode hex="00AA"/>
  <outline>
    <contour>
      <point x="142.98544311523438" y="400" type="line"/>
      <point x="204.0999984741211" y="400" type="line"/>
      <point x="204.0999984741211" y="800" type="line"/>
      <point x="142.98544311523438" y="800" type="line"/>
      <point x="44.099998474121094" y="701.1145629882812" type="line"/>
      <point x="44.099998474121094" y="498.88543701171875" type="line"/>
    </contour>
    <contour>
      <point x="347.9854431152344" y="400" type="line"/>
      <point x="409.0999984741211" y="400" type="line"/>
      <point x="409.0999984741211" y="800" type="line"/>
      <point x="249.0999984741211" y="800" type="line"/>
      <point x="249.0999984741211" y="498.88543701171875" type="line"/>
    </contour>
  </outline>
</glyph>
<glyph name="angledblleft" format="2">
  <advance width="453.2"/>
  <unicode hex="00AB"/>
  <outline>
    <contour>
      <point x="142.98544311523438" y="240" type="line"/>
      <point x="204.0999984741211" y="240" type="line"/>
      <point x="204.0999984741211" y="560" type="line"/>
      <point x="142.98544311523438" y="560" type="line"/>
      <point x="44.099998474121094" y="461.11456298828125" type="line"/>
      <point x="44.099998474121094" y="338.88543701171875" type="line"/>
    </contour>
    <contour>
      <point x="347.9854431152344" y="240" type="line"/>
      <point x="409.0999984741211" y="240" type="line"/>
      <point x="409.0999984741211" y="560" type="line"/>
      <point x="347.9854431152344" y="560" type="line"/>
      <point x="249.0999984741211" y="461.11456298828125" type="line"/>
      <point x="249.0999984741211" y="338.88543701171875" type="line"/>
    </contour>
  </outline>
</glyph>
<glyph name="registered" format="2">
  <advance width="1016.5749000000001"/>
  <unicode hex="00AE"/>
  <outline>
    <contour>
      <point x="892.4749" y="559.13565" type="line"/>
      <point x="667.4231000000001" y="784.18745" type="line"/>
      <point x="349.1518" y="784.18745" type="line"/>
      <point x="124.1" y="559.13565" type="line"/>
      <point x="124.1" y="240.86435" type="line"/>
      <point x="349.1518" y="15.81255" type="line"/>
      <point x="667.4231000000001" y="15.81255" type="line"/>
      <point x="892.4749" y="240.86435" type="line"/>
    </contour>
    <contour>
      <point x="345.7874526977539" y="200" type="line"/>
      <point x="345.7874526977539" y="600" type="line"/>
      <point x="505.7874526977539" y="600" type="line"/>
      <point x="505.7874526977539" y="200" type="line"/>
    </contour>
    <contour>
      <point x="710.78745" y="600.0" type="line"/>
      <point x="710.78745" y="440.0" type="line"/>
      <point x="649.67289" y="440.0" type="line"/>
      <point x="550.78745" y="538.88544" type="line"/>
      <point x="550.78745" y="600.0" type="line"/>
    </contour>
  </outline>
</glyph>
<glyph name="degree" format="2">
  <advance width="303.2"/>
  <unicode hex="00B0"/>
  <outline>
    <contour>
      <point x="129.1" y="805.0" type="line"/>
      <point x="96.63289" y="805.0" type="line"/>
      <point x="44.1" y="752.46711" type="line"/>
      <point x="44.1" y="687.53289" type="line"/>
      <point x="96.63289" y="635.0" type="line"/>
      <point x="129.1" y="635.0" type="line"/>
    </contour>
    <contour>
      <point x="174.1" y="635.0" type="line"/>
      <point x="206.56710999999999" y="635.0" type="line"/>
      <point x="259.1" y="687.53289" type="line"/>
      <point x="259.1" y="752.46711" type="line"/>
      <point x="206.56710999999999" y="805.0" type="line"/>
      <point x="174.1" y="805.0" type="line"/>
    </contour>
  </outline>
</glyph>
<glyph name="plus_minus" format="2">
  <advance width="658.2"/>
  <unicode hex="00B1"/>
  <outline>
    <contour>
      <point x="249.0999984741211" y="300" type="line"/>
      <point x="409.0999984741211" y="300" type="line"/>
      <point x="409.0999984741211" y="420" type="line"/>
      <point x="569.0999984741211" y="420" type="line"/>
      <point x="569.0999984741211" y="580" type="line"/>
      <point x="409.0999984741211" y="580" type="line"/>
      <point x="409.0999984741211" y="700" type="line"/>
      <point x="249.0999984741211" y="700" type="line"/>
      <point x="249.0999984741211" y="580" type="line"/>
      <point x="89.0999984741211" y="580" type="line"/>
      <point x="89.0999984741211" y="420" type="line"/>
      <point x="249.0999984741211" y="420" type="line"/>
    </contour>
    <contour>
      <point x="89.0999984741211" y="120" type="line"/>
      <point x="569.0999984741211" y="120" type="line"/>
      <point x="569.0999984741211" y="280" type="line"/>
      <point x="89.0999984741211" y="280" type="line"/>
    </contour>
  </outline>
</glyph>
<glyph name="sup_two" format="2">
  <advance width="453.2"/>
  <unicode hex="00B2"/>
  <outline>
    <contour>
      <point x="204.1" y="645.0" type="line"/>
      <point x="204.1" y="805.0" type="line"/>
      <point x="142.98544" y="805.0" type="line"/>
      <point x="44.1" y="706.11456" type="line"/>
      <point x="44.1" y="645.0" type="line"/>
    </contour>
    <contour>
      <point x="310.21456146240234" y="381" type="line"/>
      <point x="409.0999984741211" y="479.88543701171875" type="line"/>
      <point x="409.0999984741211" y="706.1145629882812" type="line"/>
      <point x="310.21456146240234" y="805" type="line"/>
      <point x="249.0999984741211" y="805" type="line"/>
      <point x="249.0999984741211" y="381" type="line"/>
    </contour>
    <contour>
      <point x="44.099998474121094" y="261.11456298828125" type="line"/>
      <point x="44.099998474121094" y="200" type="line"/>
      <point x="409.0999984741211" y="200" type="line"/>
      <point x="409.0999984741211" y="360" type="line"/>
      <point x="142.98544311523438" y="360" type="line"/>
    </contour>
  </outline>
</glyph>
<glyph name="sup_three" format="2">
  <advance width="453.2"/>
  <unicode hex="00B3"/>
  <outline>
    <contour>
      <point x="44.1" y="800.0" type="line"/>
      <point x="44.1" y="640.0" type="line"/>
      <point x="105.21456" y="640.0" type="line"/>
      <point x="204.1" y="738.88544" type="line"/>
      <point x="204.1" y="800.0" type="line"/>
    </contour>
    <contour>
      <point x="310.21456146240234" y="195" type="line"/>
      <point x="409.0999984741211" y="293.88543701171875" type="line"/>
      <point x="409.0999984741211" y="501.11456298828125" type="line"/>
      <point x="310.21456146240234" y="600" type="line"/>
      <point x="409.0999984741211" y="698.8854370117188" type="line"/>
      <point x="409.0999984741211" y="800" type="line"/>
      <point x="249.0999984741211" y="800" type="line"/>
      <point x="249.0999984741211" y="195" type="line"/>
    </contour>
    <contour>
      <point x="204.1" y="355.0" type="line"/>
      <point x="44.1" y="355.0" type="line"/>
      <point x="44.1" y="293.88544" type="line"/>
      <point x="142.98544" y="195.0" type="line"/>
      <point x="204.1" y="195.0" type="line"/>
    </contour>
  </outline>
</glyph>
<glyph name="acute" format="2">
  <advance width="248.2"/>
  <unicode hex="00B4"/>
  <outline>
    <contour>
      <point x="114.1" y="960.0" type="line"/>
      <point x="114.1" y="800.0" type="line"/>
      <point x="175.21456" y="800.0" type="line"/>
      <point x="274.1" y="898.88544" type="line"/>
      <point x="274.1" y="960.0" type="line"/>
    </contour>
  </outline>
</glyph>
<glyph name="mu" format="2">
  <advance width="498.2"/>
  <unicode hex="00B5"/>
  <outline>
    <contour>
      <point x="44.099998474121094" y="-200" type="line"/>
      <point x="204.0999984741211" y="-200" type="line"/>
      <point x="204.0999984741211" y="600" type="line"/>
      <point x="44.099998474121094" y="600" type="line"/>
    </contour>
    <contour>
      <point x="347.9854431152344" y="0" type="line"/>
      <point x="454.0999984741211" y="0" type="line"/>
      <point x="454.0999984741211" y="160" type="line"/>
      <point x="409.0999984741211" y="160" type="line"/>
      <point x="409.0999984741211" y="600" type="line"/>
      <point x="249.0999984741211" y="600" type="line"/>
      <point x="249.0999984741211" y="98.88543701171875" type="line"/>
    </contour>
  </outline>
</glyph>
<glyph name="pilcrow" format="2">
  <advance width="453.2"/>
  <unicode hex="00B6"/>
  <outline>
    <contour>
      <point x="142.98544311523438" y="400" type="line"/>
      <point x="204.0999984741211" y="400" type="line"/>
      <point x="204.0999984741211" y="800" type="line"/>
      <point x="142.98544311523438" y="800" type="line"/>
      <point x="44.099998474121094" y="701.1145629882812" type="line"/>
      <point x="44.099998474121094" y="498.88543701171875" type="line"/>
    </contour>
    <contour>
      <point x="249.0999984741211" y="-100" type="line"/>
      <point x="409.0999984741211" y="-100" type="line"/>
      <point x="409.0999984741211" y="800" type="line"/>
      <point x="249.0999984741211" y="800" type="line"/>
    </contour>
  </outline>
</glyph>
<glyph name="periodcentered" format="2">
  <advance width="248.2"/>
  <unicode hex="00B7"/>
  <outline>
    <contour>
      <point x="44.1" y="320.0" type="line"/>
      <point x="204.1" y="320.0" type="line"/>
      <point x="204.1" y="480.0" type="line"/>
      <point x="44.1" y="480.0" type="line"/>
    </contour>
  </outline>
</glyph>
<glyph name="cedilla" format="2">
  <advance width="248.2"/>
  <unicode hex="00B8"/>
  <outline>
    <contour>
      <point x="114.1" y="-160.0" type="line"/>
      <point x="274.1" y="-160.0" type="line"/>
      <point x="274.1" y="-98.88544" type="line"/>
      <point x="175.21456" y="0.0" type="line"/>
      <point x="114.1" y="0.0" type="line"/>
    </contour>
  </outline>
</glyph>
<glyph name="sup_one" format="2">
  <advance width="248.2"/>
  <unicode hex="00B9"/>
  <outline>
    <contour>
      <point x="44.099998474121094" y="200" type="line"/>
      <point x="204.0999984741211" y="200" type="line"/>
      <point x="204.0999984741211" y="800" type="line"/>
      <point x="44.099998474121094" y="800" type="line"/>
    </contour>
  </outline>
</glyph>
<glyph name="ordinalmasculine" format="2">
  <advance width="453.2"/>
  <unicode hex="00BA"/>
  <outline>
    <contour>
      <point x="142.98544311523438" y="400" type="line"/>
      <point x="204.0999984741211" y="400" type="line"/>
      <point x="204.0999984741211" y="800" type="line"/>
      <point x="142.98544311523438" y="800" type="line"/>
      <point x="44.099998474121094" y="701.1145629882812" type="line"/>
      <point x="44.099998474121094" y="498.88543701171875" type="line"/>
    </contour>
    <contour>
      <point x="310.21456146240234" y="400" type="line"/>
      <point x="409.0999984741211" y="498.88543701171875" type="line"/>
      <point x="409.0999984741211" y="701.1145629882812" type="line"/>
      <point x="310.21456146240234" y="800" type="line"/>
      <point x="249.0999984741211" y="800" type="line"/>
      <point x="249.0999984741211" y="400" type="line"/>
    </contour>
  </outline>
</glyph>
<glyph name="angledblright" format="2">
  <advance width="453.2"/>
  <unicode hex="00BB"/>
  <outline>
    <contour>
      <point x="105.21456146240234" y="240" type="line"/>
      <point x="204.0999984741211" y="338.88543701171875" type="line"/>
      <point x="204.0999984741211" y="461.11456298828125" type="line"/>
      <point x="105.21456146240234" y="560" type="line"/>
      <point x="44.099998474121094" y="560" type="line"/>
      <point x="44.099998474121094" y="240" type="line"/>
    </contour>
    <contour>
      <point x="310.21456146240234" y="240" type="line"/>
      <point x="409.0999984741211" y="338.88543701171875" type="line"/>
      <point x="409.0999984741211" y="461.11456298828125" type="line"/>
      <point x="310.21456146240234" y="560" type="line"/>
      <point x="249.0999984741211" y="560" type="line"/>
      <point x="249.0999984741211" y="240" type="line"/>
    </contour>
  </outline>
</glyph>
<glyph name="one_over_two" format="2">
  <advance width="863.2"/>
  <unicode hex="00BD"/>
  <outline>
    <contour>
      <point x="21.599998474121094" y="200" type="line"/>
      <point x="181.5999984741211" y="200" type="line"/>
      <point x="181.5999984741211" y="800" type="line"/>
      <point x="21.599998474121094" y="800" type="line"/>
    </contour>
    <contour>
      <point x="310.21456146240234" y="-200" type="line"/>
      <point x="409.0999984741211" y="-101.11456298828125" type="line"/>
      <point x="409.0999984741211" y="800" type="line"/>
      <point x="347.9854431152344" y="800" type="line"/>
      <point x="249.0999984741211" y="701.1145629882812" type="line"/>
      <point x="249.0999984741211" y="-200" type="line"/>
    </contour>
    <contour>
      <point x="636.6" y="245.0" type="line"/>
      <point x="636.6" y="405.0" type="line"/>
      <point x="575.48544" y="405.0" type="line"/>
      <point x="476.6" y="306.11456" type="line"/>
      <point x="476.6" y="245.0" type="line"/>
    </contour>
    <contour>
      <point x="742.7145614624023" y="-19" type="line"/>
      <point x="841.5999984741211" y="79.88543701171875" type="line"/>
      <point x="841.5999984741211" y="306.11456298828125" type="line"/>
      <point x="742.7145614624023" y="405" type="line"/>
      <point x="681.5999984741211" y="405" type="line"/>
      <point x="681.5999984741211" y="-19" type="line"/>
    </contour>
    <contour>
      <point x="476.5999984741211" y="-138.88543701171875" type="line"/>
      <point x="476.5999984741211" y="-200" type="line"/>
      <point x="841.5999984741211" y="-200" type="line"/>
      <point x="841.5999984741211" y="-40" type="line"/>
      <point x="575.4854431152344" y="-40" type="line"/>
    </contour>
  </outline>
</glyph>
<glyph name="invquestion" format="2">
  <advance width="453.2"/>
  <unicode hex="00BF"/>
  <outline>
    <contour>
      <point x="249.1" y="440.0" type="line"/>
      <point x="409.1" y="440.0" type="line"/>
      <point x="409.1" y="600.0" type="line"/>
      <point x="249.1" y="600.0" type="line"/>
    </contour>
    <contour>
      <point x="249.0999984741211" y="370" type="line"/>
      <point x="249.0999984741211" y="45" type="line"/>
      <point x="310.21456146240234" y="45" type="line"/>
      <point x="409.0999984741211" y="143.88543701171875" type="line"/>
      <point x="409.0999984741211" y="370" type="line"/>
    </contour>
    <contour>
      <point x="142.98544311523438" y="-205" type="line"/>
      <point x="204.0999984741211" y="-205" type="line"/>
      <point x="204.0999984741211" y="195" type="line"/>
      <point x="142.98544311523438" y="195" type="line"/>
      <point x="44.099998474121094" y="96.11456298828125" type="line"/>
      <point x="44.099998474121094" y="-106.11456298828125" type="line"/>
    </contour>
    <contour>
      <point x="409.1" y="-205.0" type="line"/>
      <point x="409.1" y="-45.0" type="line"/>
      <point x="347.98544000000004" y="-45.0" type="line"/>
      <point x="249.1" y="-143.88544" type="line"/>
      <point x="249.1" y="-205.0" type="line"/>
    </contour>
  </outline>
</glyph>
<glyph name="A_with_grave" format="2">
  <advance width="453.2"/>
  <unicode hex="00C0"/>
  <outline>
    <contour>
      <point x="236.6" y="998.8888888888889" type="line"/>
      <point x="76.6" y="998.8888888888889" type="line"/>
      <point x="76.6" y="937.7743288888889" type="line"/>
      <point x="175.48543999999998" y="838.8888888888889" type="line"/>
      <point x="236.6" y="838.8888888888889" type="line"/>
    </contour>
    <contour>
      <point x="44.099998474121094" y="0" type="line"/>
      <point x="204.0999984741211" y="0" type="line"/>
      <point x="204.0999984741211" y="805" type="line"/>
      <point x="142.98544311523438" y="805" type="line"/>
      <point x="44.099998474121094" y="706.1145629882812" type="line"/>
    </contour>
    <contour>
      <point x="249.0999984741211" y="0" type="line"/>
      <point x="409.0999984741211" y="0" type="line"/>
      <point x="409.0999984741211" y="706.1145629882812" type="line"/>
      <point x="310.21456146240234" y="805" type="line"/>
      <point x="249.0999984741211" y="805" type="line"/>
    </contour>
  </outline>
</glyph>
<glyph name="A_with_ring" format="2">
  <advance width="453.2"/>
  <unicode hex="00C5"/>
  <outline>
    <contour>
      <point x="204.1" y="1003.8888888888889" type="line"/>
      <point x="171.63288999999997" y="1003.8888888888889" type="line"/>
      <point x="119.1" y="951.355998888889" type="line"/>
      <point x="119.1" y="886.4217788888889" type="line"/>
      <point x="171.63288999999997" y="833.8888888888889" type="line"/>
      <point x="204.1" y="833.8888888888889" type="line"/>
    </contour>
    <contour>
      <point x="249.1" y="833.8888888888889" type="line"/>
      <point x="281.56710999999996" y="833.8888888888889" type="line"/>
      <point x="334.1" y="886.4217788888889" type="line"/>
      <point x="334.1" y="951.355998888889" type="line"/>
      <point x="281.56710999999996" y="1003.8888888888889" type="line"/>
      <point x="249.1" y="1003.8888888888889" type="line"/>
    </contour>
    <contour>
      <point x="44.099998474121094" y="0" type="line"/>
      <point x="204.0999984741211" y="0" type="line"/>
      <point x="204.0999984741211" y="805" type="line"/>
      <point x="142.98544311523438" y="805" type="line"/>
      <point x="44.099998474121094" y="706.1145629882812" type="line"/>
    </contour>
    <contour>
      <point x="249.0999984741211" y="0" type="line"/>
      <point x="409.0999984741211" y="0" type="line"/>
      <point x="409.0999984741211" y="706.1145629882812" type="line"/>
      <point x="310.21456146240234" y="805" type="line"/>
      <point x="249.0999984741211" y="805" type="line"/>
    </contour>
  </outline>
</glyph>
<glyph name="E_with_grave" format="2">
  <advance width="453.2"/>
  <unicode hex="00C8"/>
  <outline>
    <contour>
      <point x="236.6" y="998.8888888888889" type="line"/>
      <point x="76.6" y="998.8888888888889" type="line"/>
      <point x="76.6" y="937.7743288888889" type="line"/>
      <point x="175.48543999999998" y="838.8888888888889" type="line"/>
      <point x="236.6" y="838.8888888888889" type="line"/>
    </contour>
    <contour>
      <point x="44.099998474121094" y="0" type="line"/>
      <point x="204.0999984741211" y="0" type="line"/>
      <point x="204.0999984741211" y="800" type="line"/>
      <point x="44.099998474121094" y="800" type="line"/>
    </contour>
    <contour>
      <point x="409.1" y="800.0" type="line"/>
      <point x="249.1" y="800.0" type="line"/>
      <point x="249.1" y="738.88544" type="line"/>
      <point x="347.98544000000004" y="640.0" type="line"/>
      <point x="409.1" y="640.0" type="line"/>
    </contour>
    <contour>
      <point x="409.1" y="480.0" type="line"/>
      <point x="249.1" y="480.0" type="line"/>
      <point x="249.1" y="418.88544" type="line"/>
      <point x="347.98544000000004" y="320.0" type="line"/>
      <point x="409.1" y="320.0" type="line"/>
    </contour>
    <contour>
      <point x="409.1" y="0.0" type="line"/>
      <point x="409.1" y="160.0" type="line"/>
      <point x="347.98544000000004" y="160.0" type="line"/>
      <point x="249.1" y="61.11456" type="line"/>
      <point x="249.1" y="0.0" type="line"/>
    </contour>
  </outline>
</glyph>
<glyph name="E_with_diaeresis" format="2">
  <advance width="453.2"/>
  <unicode hex="00CB"/>
  <outline>
    <contour>
      <point x="44.099999999999994" y="878.8888888888889" type="line"/>
      <point x="204.1" y="878.8888888888889" type="line"/>
      <point x="204.1" y="1038.888888888889" type="line"/>
      <point x="44.099999999999994" y="1038.888888888889" type="line"/>
    </contour>
    <contour>
      <point x="249.1" y="878.8888888888889" type="line"/>
      <point x="409.1" y="878.8888888888889" type="line"/>
      <point x="409.1" y="1038.888888888889" type="line"/>
      <point x="249.1" y="1038.888888888889" type="line"/>
    </contour>
    <contour>
      <point x="44.099998474121094" y="0" type="line"/>
      <point x="204.0999984741211" y="0" type="line"/>
      <point x="204.0999984741211" y="800" type="line"/>
      <point x="44.099998474121094" y="800" type="line"/>
    </contour>
    <contour>
      <point x="409.1" y="800.0" type="line"/>
      <point x="249.1" y="800.0" type="line"/>
      <point x="249.1" y="738.88544" type="line"/>
      <point x="347.98544000000004" y="640.0" type="line"/>
      <point x="409.1" y="640.0" type="line"/>
    </contour>
    <contour>
      <point x="409.1" y="480.0" type="line"/>
      <point x="249.1" y="480.0" type="line"/>
      <point x="249.1" y="418.88544" type="line"/>
      <point x="347.98544000000004" y="320.0" type="line"/>
      <point x="409.1" y="320.0" type="line"/>
    </contour>
    <contour>
      <point x="409.1" y="0.0" type="line"/>
      <point x="409.1" y="160.0" type="line"/>
      <point x="347.98544000000004" y="160.0" type="line"/>
      <point x="249.1" y="61.11456" type="line"/>
      <point x="249.1" y="0.0" type="line"/>
    </contour>
  </outline>
</glyph>
<glyph name="I_with_grave" format="2">
  <advance width="248.2"/>
  <unicode hex="00CC"/>
  <outline>
    <contour>
      <point x="134.1" y="998.8888888888889" type="line"/>
      <point x="-25.900000000000006" y="998.8888888888889" type="line"/>
      <point x="-25.900000000000006" y="937.7743288888889" type="line"/>
      <point x="72.98544" y="838.8888888888889" type="line"/>
      <point x="134.1" y="838.8888888888889" type="line"/>
    </contour>
    <contour>
      <point x="44.099998474121094" y="0" type="line"/>
      <point x="204.0999984741211" y="0" type="line"/>
      <point x="204.0999984741211" y="800" type="line"/>
      <point x="44.099998474121094" y="800" type="line"/>
    </contour>
  </outline>
</glyph>
<glyph name="I_with_circumflex" format="2">
  <advance width="248.2"/>
  <unicode hex="00CE"/>
  <outline>
    <contour>
      <point x="-40.900000000000006" y="998.8888888888889" type="line"/>
      <point x="-40.900000000000006" y="838.8888888888889" type="line"/>
      <point x="20.21455999999999" y="838.8888888888889" type="line"/>
      <point x="119.1" y="937.7743288888889" type="line"/>
      <point x="119.1" y="998.8888888888889" type="line"/>
    </contour>
    <contour>
      <point x="289.1" y="998.8888888888889" type="line"/>
      <point x="129.1" y="998.8888888888889" type="line"/>
      <point x="129.1" y="937.7743288888889" type="line"/>
      <point x="227.98544" y="838.8888888888889" type="line"/>
      <point x="289.1" y="838.8888888888889" type="line"/>
    </contour>
    <contour>
      <point x="44.099998474121094" y="0" type="line"/>
      <point x="204.0999984741211" y="0" type="line"/>
      <point x="204.0999984741211" y="800" type="line"/>
      <point x="44.099998474121094" y="800" type="line"/>
    </contour>
  </outline>
</glyph>
<glyph name="ETH" format="2">
  <advance width="658.2"/>
  <unicode hex="00D0"/>
  <outline>
    <contour>
      <point x="249.0999984741211" y="0" type="line"/>
      <point x="409.0999984741211" y="0" type="line"/>
      <point x="409.0999984741211" y="800" type="line"/>
      <point x="249.0999984741211" y="800" type="line"/>
      <point x="249.0999984741211" y="480" type="line"/>
      <point x="242.98544311523438" y="480" type="line"/>
      <point x="144.0999984741211" y="381.11456298828125" type="line"/>
      <point x="144.0999984741211" y="320" type="line"/>
      <point x="249.0999984741211" y="320" type="line"/>
    </contour>
    <contour>
      <point x="515.2145614624023" y="0" type="line"/>
      <point x="614.0999984741211" y="98.88543701171875" type="line"/>
      <point x="614.0999984741211" y="701.1145629882812" type="line"/>
      <point x="515.2145614624023" y="800" type="line"/>
      <point x="454.0999984741211" y="800" type="line"/>
      <point x="454.0999984741211" y="0" type="line"/>
    </contour>
  </outline>
</glyph>
<glyph name="O_with_stroke" format="2">
  <advance width="453.2"/>
  <unicode hex="00D8"/>
  <outline>
    <contour>
      <point x="289.0999984741211" y="880" type="line"/>
      <point x="289.0999984741211" y="805" type="line"/>
      <point x="249.0999984741211" y="805" type="line"/>
      <point x="249.0999984741211" y="-5" type="line"/>
      <point x="310.21456146240234" y="-5" type="line"/>
      <point x="409.0999984741211" y="93.88543701171875" type="line"/>
      <point x="409.0999984741211" y="706.1145629882812" type="line"/>
      <point x="372.71456146240234" y="742.5" type="line"/>
      <point x="449.0999984741211" y="818.8854370117188" type="line"/>
      <point x="449.0999984741211" y="880" type="line"/>
    </contour>
    <contour>
      <point x="164.0999984741211" y="-80" type="line"/>
      <point x="164.0999984741211" y="-5" type="line"/>
      <point x="204.0999984741211" y="-5" type="line"/>
      <point x="204.0999984741211" y="805" type="line"/>
      <point x="142.98544311523438" y="805" type="line"/>
      <point x="44.099998474121094" y="706.1145629882812" type="line"/>
      <point x="44.099998474121094" y="93.88543701171875" type="line"/>
      <point x="80.48544311523438" y="57.5" type="line"/>
      <point x="4.099998474121094" y="-18.88543701171875" type="line"/>
      <point x="4.099998474121094" y="-80" type="line"/>
    </contour>
  </outline>
</glyph>
<glyph name="U_with_diaeresis" format="2">
  <advance width="453.2"/>
  <unicode hex="00DC"/>
  <outline>
    <contour>
      <point x="44.099999999999994" y="878.8888888888889" type="line"/>
      <point x="204.1" y="878.8888888888889" type="line"/>
      <point x="204.1" y="1038.888888888889" type="line"/>
      <point x="44.099999999999994" y="1038.888888888889" type="line"/>
    </contour>
    <contour>
      <point x="249.1" y="878.8888888888889" type="line"/>
      <point x="409.1" y="878.8888888888889" type="line"/>
      <point x="409.1" y="1038.888888888889" type="line"/>
      <point x="249.1" y="1038.888888888889" type="line"/>
    </contour>
    <contour>
      <point x="142.98544311523438" y="-5" type="line"/>
      <point x="204.0999984741211" y="-5" type="line"/>
      <point x="204.0999984741211" y="800" type="line"/>
      <point x="44.099998474121094" y="800" type="line"/>
      <point x="44.099998474121094" y="93.88543701171875" type="line"/>
    </contour>
    <contour>
      <point x="310.21456146240234" y="-5" type="line"/>
      <point x="409.0999984741211" y="93.88543701171875" type="line"/>
      <point x="409.0999984741211" y="800" type="line"/>
      <point x="249.0999984741211" y="800" type="line"/>
      <point x="249.0999984741211" y="-5" type="line"/>
    </contour>
  </outline>
</glyph>
<glyph name="THORN" format="2">
  <advance width="453.2"/>
  <unicode hex="00DE"/>
  <outline>
    <contour>
      <point x="44.099998474121094" y="0" type="line"/>
      <point x="204.0999984741211" y="0" type="line"/>
      <point x="204.0999984741211" y="800" type="line"/>
      <point x="44.099998474121094" y="800" type="line"/>
    </contour>
    <contour>
      <point x="310.21456146240234" y="100" type="line"/>
      <point x="409.0999984741211" y="198.88543701171875" type="line"/>
      <point x="409.0999984741211" y="601.1145629882812" type="line"/>
      <point x="310.21456146240234" y="700" type="line"/>
      <point x="249.0999984741211" y="700" type="line"/>
      <point x="249.0999984741211" y="100" type="line"/>
    </contour>
  </outline>
</glyph>
<glyph name="a_with_diaeresis" format="2">
  <advance width="453.2"/>
  <unicode hex="00E4"/>
  <outline>
    <contour>
      <point x="44.099999999999994" y="678.8888888888889" type="line"/>
      <point x="204.1" y="678.8888888888889" type="line"/>
      <point x="204.1" y="838.8888888888889" type="line"/>
      <point x="44.099999999999994" y="838.8888888888889" type="line"/>
    </contour>
    <contour>
      <point x="249.1" y="678.8888888888889" type="line"/>
      <point x="409.1" y="678.8888888888889" type="line"/>
      <point x="409.1" y="838.8888888888889" type="line"/>
      <point x="249.1" y="838.8888888888889" type="line"/>
    </contour>
    <contour>
      <point x="44.1" y="600.0" type="line"/>
      <point x="44.1" y="440.0" type="line"/>
      <point x="105.21456" y="440.0" type="line"/>
      <point x="204.1" y="538.88544" type="line"/>
      <point x="204.1" y="600.0" type="line"/>
    </contour>
    <contour>
      <point x="347.9854431152344" y="-5" type="line"/>
      <point x="409.0999984741211" y="-5" type="line"/>
      <point x="409.0999984741211" y="501.11456298828125" type="line"/>
      <point x="310.21456146240234" y="600" type="line"/>
      <point x="249.0999984741211" y="600" type="line"/>
      <point x="249.0999984741211" y="93.88543701171875" type="line"/>
    </contour>
    <contour>
      <point x="142.98544311523438" y="-5" type="line"/>
      <point x="204.0999984741211" y="-5" type="line"/>
      <point x="204.0999984741211" y="400" type="line"/>
      <point x="142.98544311523438" y="400" type="line"/>
      <point x="44.099998474121094" y="301.11456298828125" type="line"/>
      <point x="44.099998474121094" y="93.88543701171875" type="line"/>
    </contour>
  </outline>
</glyph>
<glyph name="e_with_grave" format="2">
  <advance width="453.2"/>
  <unicode hex="00E8"/>
  <outline>
    <contour>
      <point x="236.6" y="798.8888888888889" type="line"/>
      <point x="76.6" y="798.8888888888889" type="line"/>
      <point x="76.6" y="737.7743288888889" type="line"/>
      <point x="175.48543999999998" y="638.8888888888889" type="line"/>
      <point x="236.6" y="638.8888888888889" type="line"/>
    </contour>
    <contour>
      <point x="142.98544311523438" y="-5" type="line"/>
      <point x="204.0999984741211" y="-5" type="line"/>
      <point x="204.0999984741211" y="605" type="line"/>
      <point x="142.98544311523438" y="605" type="line"/>
      <point x="44.099998474121094" y="506.11456298828125" type="line"/>
      <point x="44.099998474121094" y="93.88543701171875" type="line"/>
    </contour>
    <contour>
      <point x="249.0999984741211" y="195" type="line"/>
      <point x="409.0999984741211" y="195" type="line"/>
      <point x="409.0999984741211" y="506.11456298828125" type="line"/>
      <point x="310.21456146240234" y="605" type="line"/>
      <point x="249.0999984741211" y="605" type="line"/>
    </contour>
  </outline>
</glyph>
<glyph name="e_with_diaeresis" format="2">
  <advance width="453.2"/>
  <unicode hex="00EB"/>
  <outline>
    <contour>
      <point x="44.099999999999994" y="678.8888888888889" type="line"/>
      <point x="204.1" y="678.8888888888889" type="line"/>
      <point x="204.1" y="838.8888888888889" type="line"/>
      <point x="44.099999999999994" y="838.8888888888889" type="line"/>
    </contour>
    <contour>
      <point x="249.1" y="678.8888888888889" type="line"/>
      <point x="409.1" y="678.8888888888889" type="line"/>
      <point x="409.1" y="838.8888888888889" type="line"/>
      <point x="249.1" y="838.8888888888889" type="line"/>
    </contour>
    <contour>
      <point x="142.98544311523438" y="-5" type="line"/>
      <point x="204.0999984741211" y="-5" type="line"/>
      <point x="204.0999984741211" y="605" type="line"/>
      <point x="142.98544311523438" y="605" type="line"/>
      <point x="44.099998474121094" y="506.11456298828125" type="line"/>
      <point x="44.099998474121094" y="93.88543701171875" type="line"/>
    </contour>
    <contour>
      <point x="249.0999984741211" y="195" type="line"/>
      <point x="409.0999984741211" y="195" type="line"/>
      <point x="409.0999984741211" y="506.11456298828125" type="line"/>
      <point x="310.21456146240234" y="605" type="line"/>
      <point x="249.0999984741211" y="605" type="line"/>
    </contour>
  </outline>
</glyph>
<glyph name="i_with_grave" format="2">
  <advance width="248.2"/>
  <unicode hex="00EC"/>
  <outline>
    <contour>
      <point x="134.1" y="798.8888888888889" type="line"/>
      <point x="-25.900000000000006" y="798.8888888888889" type="line"/>
      <point x="-25.900000000000006" y="737.7743288888889" type="line"/>
      <point x="72.98544" y="638.8888888888889" type="line"/>
      <point x="134.1" y="638.8888888888889" type="line"/>
    </contour>
    <contour>
      <point x="44.099998474121094" y="0" type="line"/>
      <point x="204.0999984741211" y="0" type="line"/>
      <point x="204.0999984741211" y="600" type="line"/>
      <point x="44.099998474121094" y="600" type="line"/>
    </contour>
  </outline>
</glyph>
<glyph name="i_with_acute" format="2">
  <advance width="248.2"/>
  <unicode hex="00ED"/>
  <outline>
    <contour>
      <point x="114.1" y="798.8888888888889" type="line"/>
      <point x="114.1" y="638.8888888888889" type="line"/>
      <point x="175.21456" y="638.8888888888889" type="line"/>
      <point x="274.1" y="737.7743288888889" type="line"/>
      <point x="274.1" y="798.8888888888889" type="line"/>
    </contour>
    <contour>
      <point x="44.099998474121094" y="0" type="line"/>
      <point x="204.0999984741211" y="0" type="line"/>
      <point x="204.0999984741211" y="600" type="line"/>
      <point x="44.099998474121094" y="600" type="line"/>
    </contour>
  </outline>
</glyph>
<glyph name="i_with_diaeresis" format="2">
  <advance width="248.2"/>
  <unicode hex="00EF"/>
  <outline>
    <contour>
      <point x="-58.400000000000006" y="678.8888888888889" type="line"/>
      <point x="101.6" y="678.8888888888889" type="line"/>
      <point x="101.6" y="838.8888888888889" type="line"/>
      <point x="-58.400000000000006" y="838.8888888888889" type="line"/>
    </contour>
    <contour>
      <point x="146.6" y="678.8888888888889" type="line"/>
      <point x="306.6" y="678.8888888888889" type="line"/>
      <point x="306.6" y="838.8888888888889" type="line"/>
      <point x="146.6" y="838.8888888888889" type="line"/>
    </contour>
    <contour>
      <point x="44.099998474121094" y="0" type="line"/>
      <point x="204.0999984741211" y="0" type="line"/>
      <point x="204.0999984741211" y="600" type="line"/>
      <point x="44.099998474121094" y="600" type="line"/>
    </contour>
  </outline>
</glyph>
<glyph name="n_with_smalltilde" format="2">
  <advance width="453.2"/>
  <unicode hex="00F1"/>
  <outline>
    <contour>
      <point x="66.5999984741211" y="700.0034484863281" type="line"/>
      <point x="66.5999984741211" y="638.8888854980469" type="line"/>
      <point x="287.71456146240234" y="638.8888854980469" type="line"/>
      <point x="386.5999984741211" y="737.7743301391602" type="line"/>
      <point x="386.5999984741211" y="798.8888854980469" type="line"/>
      <point x="165.48544311523438" y="798.8888854980469" type="line"/>
    </contour>
    <contour>
      <point x="44.099998474121094" y="0" type="line"/>
      <point x="204.0999984741211" y="0" type="line"/>
      <point x="204.0999984741211" y="600" type="line"/>
      <point x="44.099998474121094" y="600" type="line"/>
    </contour>
    <contour>
      <point x="249.0999984741211" y="0" type="line"/>
      <point x="409.0999984741211" y="0" type="line"/>
      <point x="409.0999984741211" y="501.11456298828125" type="line"/>
      <point x="310.21456146240234" y="600" type="line"/>
      <point x="249.0999984741211" y="600" type="line"/>
    </contour>
  </outline>
</glyph>
<glyph name="o_with_circumflex" format="2">
  <advance width="453.2"/>
  <unicode hex="00F4"/>
  <outline>
    <contour>
      <point x="61.599999999999994" y="798.8888888888889" type="line"/>
      <point x="61.599999999999994" y="638.8888888888889" type="line"/>
      <point x="122.71455999999999" y="638.8888888888889" type="line"/>
      <point x="221.6" y="737.7743288888889" type="line"/>
      <point x="221.6" y="798.8888888888889" type="line"/>
    </contour>
    <contour>
      <point x="391.6" y="798.8888888888889" type="line"/>
      <point x="231.6" y="798.8888888888889" type="line"/>
      <point x="231.6" y="737.7743288888889" type="line"/>
      <point x="330.48544000000004" y="638.8888888888889" type="line"/>
      <point x="391.6" y="638.8888888888889" type="line"/>
    </contour>
    <contour>
      <point x="142.98544311523438" y="-5" type="line"/>
      <point x="204.0999984741211" y="-5" type="line"/>
      <point x="204.0999984741211" y="605" type="line"/>
      <point x="142.98544311523438" y="605" type="line"/>
      <point x="44.099998474121094" y="506.11456298828125" type="line"/>
      <point x="44.099998474121094" y="93.88543701171875" type="line"/>
    </contour>
    <contour>
      <point x="310.21456146240234" y="-5" type="line"/>
      <point x="409.0999984741211" y="93.88543701171875" type="line"/>
      <point x="409.0999984741211" y="506.11456298828125" type="line"/>
      <point x="310.21456146240234" y="605" type="line"/>
      <point x="249.0999984741211" y="605" type="line"/>
      <point x="249.0999984741211" y="-5" type="line"/>
    </contour>
  </outline>
</glyph>
<glyph name="divide" format="2">
  <advance width="658.2"/>
  <unicode hex="00F7"/>
  <outline>
    <contour>
      <point x="249.1" y="550.0" type="line"/>
      <point x="409.1" y="550.0" type="line"/>
      <point x="409.1" y="710.0" type="line"/>
      <point x="249.1" y="710.0" type="line"/>
    </contour>
    <contour>
      <point x="89.0999984741211" y="320" type="line"/>
      <point x="569.0999984741211" y="320" type="line"/>
      <point x="569.0999984741211" y="480" type="line"/>
      <point x="89.0999984741211" y="480" type="line"/>
    </contour>
    <contour>
      <point x="249.1" y="90.0" type="line"/>
      <point x="409.1" y="90.0" type="line"/>
      <point x="409.1" y="250.0" type="line"/>
      <point x="249.1" y="250.0" type="line"/>
    </contour>
  </outline>
</glyph>
<glyph name="o_with_stroke" format="2">
  <advance width="453.2"/>
  <unicode hex="00F8"/>
  <outline>
    <contour>
      <point x="289.0999984741211" y="680" type="line"/>
      <point x="289.0999984741211" y="605" type="line"/>
      <point x="249.0999984741211" y="605" type="line"/>
      <point x="249.0999984741211" y="-5" type="line"/>
      <point x="310.21456146240234" y="-5" type="line"/>
      <point x="409.0999984741211" y="93.88543701171875" type="line"/>
      <point x="409.0999984741211" y="506.11456298828125" type="line"/>
      <point x="372.71456146240234" y="542.5" type="line"/>
      <point x="449.0999984741211" y="618.8854370117188" type="line"/>
      <point x="449.0999984741211" y="680" type="line"/>
    </contour>
    <contour>
      <point x="164.0999984741211" y="-80" type="line"/>
      <point x="164.0999984741211" y="-5" type="line"/>
      <point x="204.0999984741211" y="-5" type="line"/>
      <point x="204.0999984741211" y="605" type="line"/>
      <point x="142.98544311523438" y="605" type="line"/>
      <point x="44.099998474121094" y="506.11456298828125" type="line"/>
      <point x="44.099998474121094" y="93.88543701171875" type="line"/>
      <point x="80.48544311523438" y="57.5" type="line"/>
      <point x="4.099998474121094" y="-18.88543701171875" type="line"/>
      <point x="4.099998474121094" y="-80" type="line"/>
    </contour>
  </outline>
</glyph>
<glyph name="y_with_diaeresis" format="2">
  <advance width="453.2"/>
  <unicode hex="00FF"/>
  <outline>
    <contour>
      <point x="44.099999999999994" y="678.8888888888889" type="line"/>
      <point x="204.1" y="678.8888888888889" type="line"/>
      <point x="204.1" y="838.8888888888889" type="line"/>
      <point x="44.099999999999994" y="838.8888888888889" type="line"/>
    </contour>
    <contour>
      <point x="249.1" y="678.8888888888889" type="line"/>
      <point x="409.1" y="678.8888888888889" type="line"/>
      <point x="409.1" y="838.8888888888889" type="line"/>
      <point x="249.1" y="838.8888888888889" type="line"/>
    </contour>
    <contour>
      <point x="142.98544311523438" y="5" type="line"/>
      <point x="204.0999984741211" y="5" type="line"/>
      <point x="204.0999984741211" y="501.11456298828125" type="line"/>
      <point x="105.21456146240234" y="600" type="line"/>
      <point x="44.099998474121094" y="600" type="line"/>
      <point x="44.099998474121094" y="103.88543701171875" type="line"/>
    </contour>
    <contour>
      <point x="310.21456146240234" y="-210" type="line"/>
      <point x="409.0999984741211" y="-111.11456298828125" type="line"/>
      <point x="409.0999984741211" y="600" type="line"/>
      <point x="249.0999984741211" y="600" type="line"/>
      <point x="249.0999984741211" y="-210" type="line"/>
    </contour>
    <contour>
      <point x="204.1" y="-50.0" type="line"/>
      <point x="44.1" y="-50.0" type="line"/>
      <point x="44.1" y="-111.11456" type="line"/>
      <point x="142.98544" y="-210.0" type="line"/>
      <point x="204.1" y="-210.0" type="line"/>
    </contour>
  </outline>
</glyph>
<glyph name="A_with_breve" format="2">
  <advance width="453.2"/>
  <unicode hex="0102"/>
  <outline>
    <contour>
      <point x="66.5999984741211" y="937.7743301391602" type="line"/>
      <point x="165.48544311523438" y="838.8888854980469" type="line"/>
      <point x="287.71456146240234" y="838.8888854980469" type="line"/>
      <point x="386.5999984741211" y="937.7743301391602" type="line"/>
      <point x="386.5999984741211" y="998.8888854980469" type="line"/>
      <point x="66.5999984741211" y="998.8888854980469" type="line"/>
    </contour>
    <contour>
      <point x="44.099998474121094" y="0" type="line"/>
      <point x="204.0999984741211" y="0" type="line"/>
      <point x="204.0999984741211" y="805" type="line"/>
      <point x="142.98544311523438" y="805" type="line"/>
      <point x="44.099998474121094" y="706.1145629882812" type="line"/>
    </contour>
    <contour>
      <point x="249.0999984741211" y="0" type="line"/>
      <point x="409.0999984741211" y="0" type="line"/>
      <point x="409.0999984741211" y="706.1145629882812" type="line"/>
      <point x="310.21456146240234" y="805" type="line"/>
      <point x="249.0999984741211" y="805" type="line"/>
    </contour>
  </outline>
</glyph>
<glyph name="a_with_breve" format="2">
  <advance width="453.2"/>
  <unicode hex="0103"/>
  <outline>
    <contour>
      <point x="66.5999984741211" y="737.7743301391602" type="line"/>
      <point x="165.48544311523438" y="638.8888854980469" type="line"/>
      <point x="287.71456146240234" y="638.8888854980469" type="line"/>
      <point x="386.5999984741211" y="737.7743301391602" type="line"/>
      <point x="386.5999984741211" y="798.8888854980469" type="line"/>
      <point x="66.5999984741211" y="798.8888854980469" type="line"/>
    </contour>
    <contour>
      <point x="44.1" y="600.0" type="line"/>
      <point x="44.1" y="440.0" type="line"/>
      <point x="105.21456" y="440.0" type="line"/>
      <point x="204.1" y="538.88544" type="line"/>
      <point x="204.1" y="600.0" type="line"/>
    </contour>
    <contour>
      <point x="347.9854431152344" y="-5" type="line"/>
      <point x="409.0999984741211" y="-5" type="line"/>
      <point x="409.0999984741211" y="501.11456298828125" type="line"/>
      <point x="310.21456146240234" y="600" type="line"/>
      <point x="249.0999984741211" y="600" type="line"/>
      <point x="249.0999984741211" y="93.88543701171875" type="line"/>
    </contour>
    <contour>
      <point x="142.98544311523438" y="0" type="line"/>
      <point x="204.0999984741211" y="0" type="line"/>
      <point x="204.0999984741211" y="400" type="line"/>
      <point x="142.98544311523438" y="400" type="line"/>
      <point x="44.099998474121094" y="301.11456298828125" type="line"/>
      <point x="44.099998474121094" y="98.88543701171875" type="line"/>
    </contour>
  </outline>
</glyph>
<glyph name="A_with_ogonek" format="2">
  <advance width="453.2"/>
  <unicode hex="0104"/>
  <outline>
    <contour>
      <point x="44.099998474121094" y="0" type="line"/>
      <point x="204.0999984741211" y="0" type="line"/>
      <point x="204.0999984741211" y="805" type="line"/>
      <point x="142.98544311523438" y="805" type="line"/>
      <point x="44.099998474121094" y="706.1145629882812" type="line"/>
    </contour>
    <contour>
      <point x="249.0999984741211" y="0" type="line"/>
      <point x="409.0999984741211" y="0" type="line"/>
      <point x="409.0999984741211" y="706.1145629882812" type="line"/>
      <point x="310.21456146240234" y="805" type="line"/>
      <point x="249.0999984741211" y="805" type="line"/>
    </contour>
    <contour>
      <point x="409.1" y="-185.0" type="line"/>
      <point x="409.1" y="-25.0" type="line"/>
      <point x="347.98544000000004" y="-25.0" type="line"/>
      <point x="249.10000000000002" y="-123.88544" type="line"/>
      <point x="249.10000000000002" y="-185.0" type="line"/>
    </contour>
  </outline>
</glyph>
<glyph name="c_with_acute" format="2">
  <advance width="453.2"/>
  <unicode hex="0107"/>
  <outline>
    <contour>
      <point x="216.6" y="798.8888888888889" type="line"/>
      <point x="216.6" y="638.8888888888889" type="line"/>
      <point x="277.71456" y="638.8888888888889" type="line"/>
      <point x="376.6" y="737.7743288888889" type="line"/>
      <point x="376.6" y="798.8888888888889" type="line"/>
    </contour>
    <contour>
      <point x="142.98544311523438" y="0" type="line"/>
      <point x="204.0999984741211" y="0" type="line"/>
      <point x="204.0999984741211" y="600" type="line"/>
      <point x="142.98544311523438" y="600" type="line"/>
      <point x="44.099998474121094" y="501.11456298828125" type="line"/>
      <point x="44.099998474121094" y="98.88543701171875" type="line"/>
    </contour>
    <contour>
      <point x="409.1" y="600.0" type="line"/>
      <point x="249.1" y="600.0" type="line"/>
      <point x="249.1" y="538.88544" type="line"/>
      <point x="347.98544000000004" y="440.0" type="line"/>
      <point x="409.1" y="440.0" type="line"/>
    </contour>
    <contour>
      <point x="406.6" y="0.0" type="line"/>
      <point x="406.6" y="160.0" type="line"/>
      <point x="345.48544000000004" y="160.0" type="line"/>
      <point x="246.6" y="61.11456" type="line"/>
      <point x="246.6" y="0.0" type="line"/>
    </contour>
  </outline>
</glyph>
<glyph name="C_with_dotabove" format="2">
  <advance width="453.2"/>
  <unicode hex="010A"/>
  <outline>
    <contour>
      <point x="146.6" y="878.8888888888889" type="line"/>
      <point x="306.6" y="878.8888888888889" type="line"/>
      <point x="306.6" y="1038.888888888889" type="line"/>
      <point x="146.6" y="1038.888888888889" type="line"/>
    </contour>
    <contour>
      <point x="142.98544311523438" y="0" type="line"/>
      <point x="204.0999984741211" y="0" type="line"/>
      <point x="204.0999984741211" y="800" type="line"/>
      <point x="142.98544311523438" y="800" type="line"/>
      <point x="44.099998474121094" y="701.1145629882812" type="line"/>
      <point x="44.099998474121094" y="98.88543701171875" type="line"/>
    </contour>
    <contour>
      <point x="347.9854431152344" y="440" type="line"/>
      <point x="409.0999984741211" y="440" type="line"/>
      <point x="409.0999984741211" y="800" type="line"/>
      <point x="249.0999984741211" y="800" type="line"/>
      <point x="249.0999984741211" y="538.8854370117188" type="line"/>
    </contour>
    <contour>
      <point x="409.1" y="0.0" type="line"/>
      <point x="409.1" y="160.0" type="line"/>
      <point x="347.98544000000004" y="160.0" type="line"/>
      <point x="249.1" y="61.11456" type="line"/>
      <point x="249.1" y="0.0" type="line"/>
    </contour>
  </outline>
</glyph>
<glyph name="c_with_caron" format="2">
  <advance width="453.2"/>
  <unicode hex="010D"/>
  <outline>
    <contour>
      <point x="61.599999999999994" y="638.8888888888889" type="line"/>
      <point x="221.6" y="638.8888888888889" type="line"/>
      <point x="221.6" y="700.0034488888889" type="line"/>
      <point x="122.71455999999999" y="798.8888888888889" type="line"/>
      <point x="61.599999999999994" y="798.8888888888889" type="line"/>
    </contour>
    <contour>
      <point x="391.6" y="638.8888888888889" type="line"/>
      <point x="391.6" y="798.8888888888889" type="line"/>
      <point x="330.48544000000004" y="798.8888888888889" type="line"/>
      <point x="231.6" y="700.0034488888889" type="line"/>
      <point x="231.6" y="638.8888888888889" type="line"/>
    </contour>
    <contour>
      <point x="142.98544311523438" y="0" type="line"/>
      <point x="204.0999984741211" y="0" type="line"/>
      <point x="204.0999984741211" y="600" type="line"/>
      <point x="142.98544311523438" y="600" type="line"/>
      <point x="44.099998474121094" y="501.11456298828125" type="line"/>
      <point x="44.099998474121094" y="98.88543701171875" type="line"/>
    </contour>
    <contour>
      <point x="409.1" y="600.0" type="line"/>
      <point x="249.1" y="600.0" type="line"/>
      <point x="249.1" y="538.88544" type="line"/>
      <point x="347.98544000000004" y="440.0" type="line"/>
      <point x="409.1" y="440.0" type="line"/>
    </contour>
    <contour>
      <point x="406.6" y="0.0" type="line"/>
      <point x="406.6" y="160.0" type="line"/>
      <point x="345.48544000000004" y="160.0" type="line"/>
      <point x="246.6" y="61.11456" type="line"/>
      <point x="246.6" y="0.0" type="line"/>
    </contour>
  </outline>
</glyph>
<glyph name="E_with_ogonek" format="2">
  <advance width="453.2"/>
  <unicode hex="0118"/>
  <outline>
    <contour>
      <point x="44.099998474121094" y="0" type="line"/>
      <point x="204.0999984741211" y="0" type="line"/>
      <point x="204.0999984741211" y="800" type="line"/>
      <point x="44.099998474121094" y="800" type="line"/>
    </contour>
    <contour>
      <point x="409.1" y="800.0" type="line"/>
      <point x="249.1" y="800.0" type="line"/>
      <point x="249.1" y="738.88544" type="line"/>
      <point x="347.98544000000004" y="640.0" type="line"/>
      <point x="409.1" y="640.0" type="line"/>
    </contour>
    <contour>
      <point x="409.1" y="480.0" type="line"/>
      <point x="249.1" y="480.0" type="line"/>
      <point x="249.1" y="418.88544" type="line"/>
      <point x="347.98544000000004" y="320.0" type="line"/>
      <point x="409.1" y="320.0" type="line"/>
    </contour>
    <contour>
      <point x="409.1" y="0.0" type="line"/>
      <point x="409.1" y="160.0" type="line"/>
      <point x="347.98544000000004" y="160.0" type="line"/>
      <point x="249.1" y="61.11456" type="line"/>
      <point x="249.1" y="0.0" type="line"/>
    </contour>
    <contour>
      <point x="409.1" y="-185.0" type="line"/>
      <point x="409.1" y="-25.0" type="line"/>
      <point x="347.98544000000004" y="-25.0" type="line"/>
      <point x="249.10000000000002" y="-123.88544" type="line"/>
      <point x="249.10000000000002" y="-185.0" type="line"/>
    </contour>
  </outline>
</glyph>
<glyph name="G_with_breve" format="2">
  <advance width="453.2"/>
  <unicode hex="011E"/>
  <outline>
    <contour>
      <point x="66.5999984741211" y="937.7743301391602" type="line"/>
      <point x="165.48544311523438" y="838.8888854980469" type="line"/>
      <point x="287.71456146240234" y="838.8888854980469" type="line"/>
      <point x="386.5999984741211" y="937.7743301391602" type="line"/>
      <point x="386.5999984741211" y="998.8888854980469" type="line"/>
      <point x="66.5999984741211" y="998.8888854980469" type="line"/>
    </contour>
    <contour>
      <point x="142.98544311523438" y="0" type="line"/>
      <point x="204.0999984741211" y="0" type="line"/>
      <point x="204.0999984741211" y="800" type="line"/>
      <point x="142.98544311523438" y="800" type="line"/>
      <point x="44.099998474121094" y="701.1145629882812" type="line"/>
      <point x="44.099998474121094" y="98.88543701171875" type="line"/>
    </contour>
    <contour>
      <point x="409.1" y="800.0" type="line"/>
      <point x="249.1" y="800.0" type="line"/>
      <point x="249.1" y="738.88544" type="line"/>
      <point x="347.98544000000004" y="640.0" type="line"/>
      <point x="409.1" y="640.0" type="line"/>
    </contour>
    <contour>
      <point x="347.9854431152344" y="0" type="line"/>
      <point x="409.0999984741211" y="0" type="line"/>
      <point x="409.0999984741211" y="400" type="line"/>
      <point x="249.0999984741211" y="400" type="line"/>
      <point x="249.0999984741211" y="98.88543701171875" type="line"/>
    </contour>
  </outline>
</glyph>
<glyph name="G_with_dotabove" format="2">
  <advance width="453.2"/>
  <unicode hex="0120"/>
  <outline>
    <contour>
      <point x="146.6" y="878.8888888888889" type="line"/>
      <point x="306.6" y="878.8888888888889" type="line"/>
      <point x="306.6" y="1038.888888888889" type="line"/>
      <point x="146.6" y="1038.888888888889" type="line"/>
    </contour>
    <contour>
      <point x="142.98544311523438" y="0" type="line"/>
      <point x="204.0999984741211" y="0" type="line"/>
      <point x="204.0999984741211" y="800" type="line"/>
      <point x="142.98544311523438" y="800" type="line"/>
      <point x="44.099998474121094" y="701.1145629882812" type="line"/>
      <point x="44.099998474121094" y="98.88543701171875" type="line"/>
    </contour>
    <contour>
      <point x="409.1" y="800.0" type="line"/>
      <point x="249.1" y="800.0" type="line"/>
      <point x="249.1" y="738.88544" type="line"/>
      <point x="347.98544000000004" y="640.0" type="line"/>
      <point x="409.1" y="640.0" type="line"/>
    </contour>
    <contour>
      <point x="347.9854431152344" y="0" type="line"/>
      <point x="409.0999984741211" y="0" type="line"/>
      <point x="409.0999984741211" y="400" type="line"/>
      <point x="249.0999984741211" y="400" type="line"/>
      <point x="249.0999984741211" y="98.88543701171875" type="line"/>
    </contour>
  </outline>
</glyph>
<glyph name="I_with_macron" format="2">
  <advance width="248.2"/>
  <unicode hex="012A"/>
  <outline>
    <contour>
      <point x="-35.900001525878906" y="838.8888854980469" type="line"/>
      <point x="284.0999984741211" y="838.8888854980469" type="line"/>
      <point x="284.0999984741211" y="998.8888854980469" type="line"/>
      <point x="-35.900001525878906" y="998.8888854980469" type="line"/>
    </contour>
    <contour>
      <point x="44.099998474121094" y="0" type="line"/>
      <point x="204.0999984741211" y="0" type="line"/>
      <point x="204.0999984741211" y="800" type="line"/>
      <point x="44.099998474121094" y="800" type="line"/>
    </contour>
  </outline>
</glyph>
<glyph name="i_with_macron" format="2">
  <advance width="248.2"/>
  <unicode hex="012B"/>
  <outline>
    <contour>
      <point x="-35.900001525878906" y="638.8888854980469" type="line"/>
      <point x="284.0999984741211" y="638.8888854980469" type="line"/>
      <point x="284.0999984741211" y="798.8888854980469" type="line"/>
      <point x="-35.900001525878906" y="798.8888854980469" type="line"/>
    </contour>
    <contour>
      <point x="44.099998474121094" y="0" type="line"/>
      <point x="204.0999984741211" y="0" type="line"/>
      <point x="204.0999984741211" y="600" type="line"/>
      <point x="44.099998474121094" y="600" type="line"/>
    </contour>
  </outline>
</glyph>
<glyph name="I_with_ogonek" format="2">
  <advance width="248.2"/>
  <unicode hex="012E"/>
  <outline>
    <contour>
      <point x="44.099998474121094" y="0" type="line"/>
      <point x="204.0999984741211" y="0" type="line"/>
      <point x="204.0999984741211" y="800" type="line"/>
      <point x="44.099998474121094" y="800" type="line"/>
    </contour>
    <contour>
      <point x="204.1" y="-185.0" type="line"/>
      <point x="204.1" y="-25.0" type="line"/>
      <point x="142.98543999999998" y="-25.0" type="line"/>
      <point x="44.099999999999994" y="-123.88544" type="line"/>
      <point x="44.099999999999994" y="-185.0" type="line"/>
    </contour>
  </outline>
</glyph>
<glyph name="I_with_dotabove" format="2">
  <advance width="248.2"/>
  <unicode hex="0130"/>
  <outline>
    <contour>
      <point x="44.099999999999994" y="878.8888888888889" type="line"/>
      <point x="204.1" y="878.8888888888889" type="line"/>
      <point x="204.1" y="1038.888888888889" type="line"/>
      <point x="44.099999999999994" y="1038.888888888889" type="line"/>
    </contour>
    <contour>
      <point x="44.099998474121094" y="0" type="line"/>
      <point x="204.0999984741211" y="0" type="line"/>
      <point x="204.0999984741211" y="800" type="line"/>
      <point x="44.099998474121094" y="800" type="line"/>
    </contour>
  </outline>
</glyph>
<glyph name="ij" format="2">
  <advance width="453.2"/>
  <unicode hex="0133"/>
  <outline>
    <contour>
      <point x="34.1" y="638.88889" type="line"/>
      <point x="194.1" y="638.88889" type="line"/>
      <point x="194.1" y="798.88889" type="line"/>
      <point x="34.1" y="798.88889" type="line"/>
    </contour>
    <contour>
      <point x="249.1" y="638.88889" type="line"/>
      <point x="409.1" y="638.88889" type="line"/>
      <point x="409.1" y="798.88889" type="line"/>
      <point x="249.1" y="798.88889" type="line"/>
    </contour>
    <contour>
      <point x="34.099998474121094" y="16.666671752929688" type="line"/>
      <point x="194.0999984741211" y="16.666671752929688" type="line"/>
      <point x="194.0999984741211" y="600" type="line"/>
      <point x="34.099998474121094" y="600" type="line"/>
    </contour>
    <contour>
      <point x="310.21456146240234" y="-210" type="line"/>
      <point x="409.0999984741211" y="-111.11456298828125" type="line"/>
      <point x="409.0999984741211" y="600" type="line"/>
      <point x="249.0999984741211" y="600" type="line"/>
      <point x="249.0999984741211" y="-210" type="line"/>
    </contour>
    <contour>
      <point x="209.1" y="-50.0" type="line"/>
      <point x="49.1" y="-50.0" type="line"/>
      <point x="49.1" y="-111.11456" type="line"/>
      <point x="147.98544" y="-210.0" type="line"/>
      <point x="209.1" y="-210.0" type="line"/>
    </contour>
  </outline>
</glyph>
<glyph name="J_with_circumflex" format="2">
  <advance width="453.2"/>
  <unicode hex="0134"/>
  <outline>
    <contour>
      <point x="161.6" y="998.8888888888889" type="line"/>
      <point x="161.6" y="838.8888888888889" type="line"/>
      <point x="222.71456" y="838.8888888888889" type="line"/>
      <point x="321.6" y="937.7743288888889" type="line"/>
      <point x="321.6" y="998.8888888888889" type="line"/>
    </contour>
    <contour>
      <point x="491.6" y="998.8888888888889" type="line"/>
      <point x="331.6" y="998.8888888888889" type="line"/>
      <point x="331.6" y="937.7743288888889" type="line"/>
      <point x="430.48544000000004" y="838.8888888888889" type="line"/>
      <point x="491.6" y="838.8888888888889" type="line"/>
    </contour>
    <contour>
      <point x="310.21456146240234" y="-5" type="line"/>
      <point x="409.0999984741211" y="93.88543701171875" type="line"/>
      <point x="409.0999984741211" y="800" type="line"/>
      <point x="249.0999984741211" y="800" type="line"/>
      <point x="249.0999984741211" y="-5" type="line"/>
    </contour>
    <contour>
      <point x="204.1" y="155.0" type="line"/>
      <point x="44.1" y="155.0" type="line"/>
      <point x="44.1" y="93.88544" type="line"/>
      <point x="142.98544" y="-5.0" type="line"/>
      <point x="204.1" y="-5.0" type="line"/>
    </contour>
  </outline>
</glyph>
<glyph name="j_with_circumflex" format="2">
  <advance width="453.2"/>
  <unicode hex="0135"/>
  <outline>
    <contour>
      <point x="164.1" y="798.8888888888889" type="line"/>
      <point x="164.1" y="638.8888888888889" type="line"/>
      <point x="225.21456" y="638.8888888888889" type="line"/>
      <point x="324.1" y="737.7743288888889" type="line"/>
      <point x="324.1" y="798.8888888888889" type="line"/>
    </contour>
    <contour>
      <point x="494.1" y="798.8888888888889" type="line"/>
      <point x="334.1" y="798.8888888888889" type="line"/>
      <point x="334.1" y="737.7743288888889" type="line"/>
      <point x="432.98544000000004" y="638.8888888888889" type="line"/>
      <point x="494.1" y="638.8888888888889" type="line"/>
    </contour>
    <contour>
      <point x="310.21456146240234" y="-210" type="line"/>
      <point x="409.0999984741211" y="-111.11456298828125" type="line"/>
      <point x="409.0999984741211" y="600" type="line"/>
      <point x="249.0999984741211" y="600" type="line"/>
      <point x="249.0999984741211" y="-210" type="line"/>
    </contour>
    <contour>
      <point x="209.1" y="-50.0" type="line"/>
      <point x="49.1" y="-50.0" type="line"/>
      <point x="49.1" y="-111.11456" type="line"/>
      <point x="147.98544" y="-210.0" type="line"/>
      <point x="209.1" y="-210.0" type="line"/>
    </contour>
  </outline>
</glyph>
<glyph name="K_with_cedilla" format="2">
  <advance width="453.2"/>
  <unicode hex="0136"/>
  <outline>
    <contour>
      <point x="44.099998474121094" y="0" type="line"/>
      <point x="204.0999984741211" y="0" type="line"/>
      <point x="204.0999984741211" y="800" type="line"/>
      <point x="44.099998474121094" y="800" type="line"/>
    </contour>
    <contour>
      <point x="249.0999984741211" y="0" type="line"/>
      <point x="409.0999984741211" y="0" type="line"/>
      <point x="409.0999984741211" y="301.11456298828125" type="line"/>
      <point x="310.21456146240234" y="400" type="line"/>
      <point x="409.0999984741211" y="498.88543701171875" type="line"/>
      <point x="409.0999984741211" y="800" type="line"/>
      <point x="249.0999984741211" y="800" type="line"/>
    </contour>
    <contour>
      <point x="216.6" y="-185.0" type="line"/>
      <point x="376.6" y="-185.0" type="line"/>
      <point x="376.6" y="-123.88544" type="line"/>
      <point x="277.71456" y="-25.0" type="line"/>
      <point x="216.6" y="-25.0" type="line"/>
    </contour>
  </outline>
</glyph>
<glyph name="l_with_acute" format="2">
  <advance width="248.2"/>
  <unicode hex="013A"/>
  <outline>
    <contour>
      <point x="114.1" y="998.8888888888889" type="line"/>
      <point x="114.1" y="838.8888888888889" type="line"/>
      <point x="175.21456" y="838.8888888888889" type="line"/>
      <point x="274.1" y="937.7743288888889" type="line"/>
      <point x="274.1" y="998.8888888888889" type="line"/>
    </contour>
    <contour>
      <point x="142.98544311523438" y="-5" type="line"/>
      <point x="204.0999984741211" y="-5" type="line"/>
      <point x="204.0999984741211" y="800" type="line"/>
      <point x="44.099998474121094" y="800" type="line"/>
      <point x="44.099998474121094" y="93.88543701171875" type="line"/>
    </contour>
  </outline>
</glyph>
<glyph name="L_with_cedilla" format="2">
  <advance width="453.2"/>
  <unicode hex="013B"/>
  <outline>
    <contour>
      <point x="44.099998474121094" y="0" type="line"/>
      <point x="204.0999984741211" y="0" type="line"/>
      <point x="204.0999984741211" y="800" type="line"/>
      <point x="44.099998474121094" y="800" type="line"/>
    </contour>
    <contour>
      <point x="409.1" y="0.0" type="line"/>
      <point x="409.1" y="160.0" type="line"/>
      <point x="347.98544000000004" y="160.0" type="line"/>
      <point x="249.1" y="61.11456" type="line"/>
      <point x="249.1" y="0.0" type="line"/>
    </contour>
    <contour>
      <point x="216.6" y="-185.0" type="line"/>
      <point x="376.6" y="-185.0" type="line"/>
      <point x="376.6" y="-123.88544" type="line"/>
      <point x="277.71456" y="-25.0" type="line"/>
      <point x="216.6" y="-25.0" type="line"/>
    </contour>
  </outline>
</glyph>
<glyph name="l_with_cedilla" format="2">
  <advance width="248.2"/>
  <unicode hex="013C"/>
  <outline>
    <contour>
      <point x="142.98544311523438" y="-5" type="line"/>
      <point x="204.0999984741211" y="-5" type="line"/>
      <point x="204.0999984741211" y="800" type="line"/>
      <point x="44.099998474121094" y="800" type="line"/>
      <point x="44.099998474121094" y="93.88543701171875" type="line"/>
    </contour>
    <contour>
      <point x="114.1" y="-190.0" type="line"/>
      <point x="274.1" y="-190.0" type="line"/>
      <point x="274.1" y="-128.88544000000002" type="line"/>
      <point x="175.21456" y="-30.0" type="line"/>
      <point x="114.1" y="-30.0" type="line"/>
    </contour>
  </outline>
</glyph>
<glyph name="L_with_stroke" format="2">
  <advance width="473.2"/>
  <unicode hex="0141"/>
  <outline>
    <contour>
      <point x="64.0999984741211" y="0" type="line"/>
      <point x="224.0999984741211" y="0" type="line"/>
      <point x="224.0999984741211" y="440" type="line"/>
      <point x="225.21456146240234" y="440" type="line"/>
      <point x="324.0999984741211" y="538.8854370117188" type="line"/>
      <point x="324.0999984741211" y="600" type="line"/>
      <point x="224.0999984741211" y="600" type="line"/>
      <point x="224.0999984741211" y="800" type="line"/>
      <point x="64.0999984741211" y="800" type="line"/>
      <point x="64.0999984741211" y="500" type="line"/>
      <point x="62.985443115234375" y="500" type="line"/>
      <point x="-35.900001525878906" y="401.11456298828125" type="line"/>
      <point x="-35.900001525878906" y="340" type="line"/>
      <point x="64.0999984741211" y="340" type="line"/>
    </contour>
    <contour>
      <point x="429.1" y="0.0" type="line"/>
      <point x="429.1" y="160.0" type="line"/>
      <point x="367.98544000000004" y="160.0" type="line"/>
      <point x="269.1" y="61.11456" type="line"/>
      <point x="269.1" y="0.0" type="line"/>
    </contour>
  </outline>
</glyph>
<glyph name="l_with_stroke" format="2">
  <advance width="288.2"/>
  <unicode hex="0142"/>
  <outline>
    <contour>
      <point x="62.985443115234375" y="500" type="line"/>
      <point x="-35.900001525878906" y="401.11456298828125" type="line"/>
      <point x="-35.900001525878906" y="340" type="line"/>
      <point x="64.0999984741211" y="340" type="line"/>
      <point x="64.0999984741211" y="93.88543701171875" type="line"/>
      <point x="162.98544311523438" y="-5" type="line"/>
      <point x="224.0999984741211" y="-5" type="line"/>
      <point x="224.0999984741211" y="440" type="line"/>
      <point x="225.21456146240234" y="440" type="line"/>
      <point x="324.0999984741211" y="538.8854370117188" type="line"/>
      <point x="324.0999984741211" y="600" type="line"/>
      <point x="224.0999984741211" y="600" type="line"/>
      <point x="224.0999984741211" y="800" type="line"/>
      <point x="64.0999984741211" y="800" type="line"/>
      <point x="64.0999984741211" y="500" type="line"/>
    </contour>
  </outline>
</glyph>
<glyph name="n_with_acute" format="2">
  <advance width="453.2"/>
  <unicode hex="0144"/>
  <outline>
    <contour>
      <point x="216.6" y="798.8888888888889" type="line"/>
      <point x="216.6" y="638.8888888888889" type="line"/>
      <point x="277.71456" y="638.8888888888889" type="line"/>
      <point x="376.6" y="737.7743288888889" type="line"/>
      <point x="376.6" y="798.8888888888889" type="line"/>
    </contour>
    <contour>
      <point x="44.099998474121094" y="0" type="line"/>
      <point x="204.0999984741211" y="0" type="line"/>
      <point x="204.0999984741211" y="600" type="line"/>
      <point x="44.099998474121094" y="600" type="line"/>
    </contour>
    <contour>
      <point x="249.0999984741211" y="0" type="line"/>
      <point x="409.0999984741211" y="0" type="line"/>
      <point x="409.0999984741211" y="501.11456298828125" type="line"/>
      <point x="310.21456146240234" y="600" type="line"/>
      <point x="249.0999984741211" y="600" type="line"/>
    </contour>
  </outline>
</glyph>
<glyph name="N_with_caron" format="2">
  <advance width="453.2"/>
  <unicode hex="0147"/>
  <outline>
    <contour>
      <point x="61.599999999999994" y="838.8888888888889" type="line"/>
      <point x="221.6" y="838.8888888888889" type="line"/>
      <point x="221.6" y="900.0034488888889" type="line"/>
      <point x="122.71455999999999" y="998.8888888888889" type="line"/>
      <point x="61.599999999999994" y="998.8888888888889" type="line"/>
    </contour>
    <contour>
      <point x="391.6" y="838.8888888888889" type="line"/>
      <point x="391.6" y="998.8888888888889" type="line"/>
      <point x="330.48544000000004" y="998.8888888888889" type="line"/>
      <point x="231.6" y="900.0034488888889" type="line"/>
      <point x="231.6" y="838.8888888888889" type="line"/>
    </contour>
    <contour>
      <point x="44.099998474121094" y="0" type="line"/>
      <point x="204.0999984741211" y="0" type="line"/>
      <point x="204.0999984741211" y="800" type="line"/>
      <point x="44.099998474121094" y="800" type="line"/>
    </contour>
    <contour>
      <point x="249.0999984741211" y="0" type="line"/>
      <point x="409.0999984741211" y="0" type="line"/>
      <point x="409.0999984741211" y="701.1145629882812" type="line"/>
      <point x="310.21456146240234" y="800" type="line"/>
      <point x="249.0999984741211" y="800" type="line"/>
    </contour>
  </outline>
</glyph>
<glyph name="OE" format="2">
  <advance width="863.2"/>
  <unicode hex="0152"/>
  <outline>
    <contour>
      <point x="142.98544311523438" y="-5" type="line"/>
      <point x="204.0999984741211" y="-5" type="line"/>
      <point x="204.0999984741211" y="805" type="line"/>
      <point x="142.98544311523438" y="805" type="line"/>
      <point x="44.099998474121094" y="706.1145629882812" type="line"/>
      <point x="44.099998474121094" y="93.88543701171875" type="line"/>
    </contour>
    <contour>
      <point x="310.21456146240234" y="-5" type="line"/>
      <point x="409.0999984741211" y="93.88543701171875" type="line"/>
      <point x="409.0999984741211" y="706.1145629882812" type="line"/>
      <point x="310.21456146240234" y="805" type="line"/>
      <point x="249.0999984741211" y="805" type="line"/>
      <point x="249.0999984741211" y="-5" type="line"/>
    </contour>
    <contour>
      <point x="454.0999984741211" y="0" type="line"/>
      <point x="614.0999984741211" y="0" type="line"/>
      <point x="614.0999984741211" y="800" type="line"/>
      <point x="454.0999984741211" y="800" type="line"/>
    </contour>
    <contour>
      <point x="819.1" y="800.0" type="line"/>
      <point x="659.1" y="800.0" type="line"/>
      <point x="659.1" y="738.88544" type="line"/>
      <point x="757.98544" y="640.0" type="line"/>
      <point x="819.1" y="640.0" type="line"/>
    </contour>
    <contour>
      <point x="819.1" y="500.0" type="line"/>
      <point x="659.1" y="500.0" type="line"/>
      <point x="659.1" y="438.88544" type="line"/>
      <point x="757.98544" y="340.0" type="line"/>
      <point x="819.1" y="340.0" type="line"/>
    </contour>
    <contour>
      <point x="819.1" y="0.0" type="line"/>
      <point x="819.1" y="160.0" type="line"/>
      <point x="757.98544" y="160.0" type="line"/>
      <point x="659.1" y="61.11456" type="line"/>
      <point x="659.1" y="0.0" type="line"/>
    </contour>
  </outline>
</glyph>
<glyph name="oe" format="2">
  <advance width="863.2"/>
  <unicode hex="0153"/>
  <outline>
    <contour>
      <point x="142.98544311523438" y="-5" type="line"/>
      <point x="204.0999984741211" y="-5" type="line"/>
      <point x="204.0999984741211" y="605" type="line"/>
      <point x="142.98544311523438" y="605" type="line"/>
      <point x="44.099998474121094" y="506.11456298828125" type="line"/>
      <point x="44.099998474121094" y="93.88543701171875" type="line"/>
    </contour>
    <contour>
      <point x="310.21456146240234" y="-5" type="line"/>
      <point x="409.0999984741211" y="93.88543701171875" type="line"/>
      <point x="409.0999984741211" y="506.11456298828125" type="line"/>
      <point x="310.21456146240234" y="605" type="line"/>
      <point x="249.0999984741211" y="605" type="line"/>
      <point x="249.0999984741211" y="-5" type="line"/>
    </contour>
    <contour>
      <point x="552.9854431152344" y="-5" type="line"/>
      <point x="614.0999984741211" y="-5" type="line"/>
      <point x="614.0999984741211" y="605" type="line"/>
      <point x="552.9854431152344" y="605" type="line"/>
      <point x="454.0999984741211" y="506.11456298828125" type="line"/>
      <point x="454.0999984741211" y="93.88543701171875" type="line"/>
    </contour>
    <contour>
      <point x="659.0999984741211" y="195" type="line"/>
      <point x="819.0999984741211" y="195" type="line"/>
      <point x="819.0999984741211" y="506.11456298828125" type="line"/>
      <point x="720.2145614624023" y="605" type="line"/>
      <point x="659.0999984741211" y="605" type="line"/>
    </contour>
  </outline>
</glyph>
<glyph name="r_with_acute" format="2">
  <advance width="453.2"/>
  <unicode hex="0155"/>
  <outline>
    <contour>
      <point x="216.6" y="798.8888888888889" type="line"/>
      <point x="216.6" y="638.8888888888889" type="line"/>
      <point x="277.71456" y="638.8888888888889" type="line"/>
      <point x="376.6" y="737.7743288888889" type="line"/>
      <point x="376.6" y="798.8888888888889" type="line"/>
    </contour>
    <contour>
      <point x="44.099998474121094" y="0" type="line"/>
      <point x="204.0999984741211" y="0" type="line"/>
      <point x="204.0999984741211" y="600" type="line"/>
      <point x="44.099998474121094" y="600" type="line"/>
    </contour>
    <contour>
      <point x="409.1" y="600.0" type="line"/>
      <point x="249.1" y="600.0" type="line"/>
      <point x="249.1" y="538.88544" type="line"/>
      <point x="347.98544000000004" y="440.0" type="line"/>
      <point x="409.1" y="440.0" type="line"/>
    </contour>
  </outline>
</glyph>
<glyph name="R_with_cedilla" format="2">
  <advance width="453.2"/>
  <unicode hex="0156"/>
  <outline>
    <contour>
      <point x="44.099998474121094" y="0" type="line"/>
      <point x="204.0999984741211" y="0" type="line"/>
      <point x="204.0999984741211" y="800" type="line"/>
      <point x="44.099998474121094" y="800" type="line"/>
    </contour>
    <contour>
      <point x="249.0999984741211" y="0" type="line"/>
      <point x="409.0999984741211" y="0" type="line"/>
      <point x="409.0999984741211" y="101.11456298828125" type="line"/>
      <point x="310.21456146240234" y="200" type="line"/>
      <point x="409.0999984741211" y="298.88543701171875" type="line"/>
      <point x="409.0999984741211" y="701.1145629882812" type="line"/>
      <point x="310.21456146240234" y="800" type="line"/>
      <point x="249.0999984741211" y="800" type="line"/>
    </contour>
    <contour>
      <point x="216.6" y="-185.0" type="line"/>
      <point x="376.6" y="-185.0" type="line"/>
      <point x="376.6" y="-123.88544" type="line"/>
      <point x="277.71456" y="-25.0" type="line"/>
      <point x="216.6" y="-25.0" type="line"/>
    </contour>
  </outline>
</glyph>
<glyph name="r_with_cedilla" format="2">
  <advance width="453.2"/>
  <unicode hex="0157"/>
  <outline>
    <contour>
      <point x="44.099998474121094" y="0" type="line"/>
      <point x="204.0999984741211" y="0" type="line"/>
      <point x="204.0999984741211" y="600" type="line"/>
      <point x="44.099998474121094" y="600" type="line"/>
    </contour>
    <contour>
      <point x="409.1" y="600.0" type="line"/>
      <point x="249.1" y="600.0" type="line"/>
      <point x="249.1" y="538.88544" type="line"/>
      <point x="347.98544000000004" y="440.0" type="line"/>
      <point x="409.1" y="440.0" type="line"/>
    </contour>
    <contour>
      <point x="216.6" y="-185.0" type="line"/>
      <point x="376.6" y="-185.0" type="line"/>
      <point x="376.6" y="-123.88544" type="line"/>
      <point x="277.71456" y="-25.0" type="line"/>
      <point x="216.6" y="-25.0" type="line"/>
    </contour>
  </outline>
</glyph>
<glyph name="S_with_caron" format="2">
  <advance width="453.2"/>
  <unicode hex="0160"/>
  <outline>
    <contour>
      <point x="61.599999999999994" y="838.8888888888889" type="line"/>
      <point x="221.6" y="838.8888888888889" type="line"/>
      <point x="221.6" y="900.0034488888889" type="line"/>
      <point x="122.71455999999999" y="998.8888888888889" type="line"/>
      <point x="61.599999999999994" y="998.8888888888889" type="line"/>
    </contour>
    <contour>
      <point x="391.6" y="838.8888888888889" type="line"/>
      <point x="391.6" y="998.8888888888889" type="line"/>
      <point x="330.48544000000004" y="998.8888888888889" type="line"/>
      <point x="231.6" y="900.0034488888889" type="line"/>
      <point x="231.6" y="838.8888888888889" type="line"/>
    </contour>
    <contour>
      <point x="142.98544311523438" y="320" type="line"/>
      <point x="204.0999984741211" y="320" type="line"/>
      <point x="204.0999984741211" y="800" type="line"/>
      <point x="142.98544311523438" y="800" type="line"/>
      <point x="44.099998474121094" y="701.1145629882812" type="line"/>
      <point x="44.099998474121094" y="418.88543701171875" type="line"/>
    </contour>
    <contour>
      <point x="404.1" y="800.0" type="line"/>
      <point x="244.1" y="800.0" type="line"/>
      <point x="244.1" y="738.88544" type="line"/>
      <point x="342.98544000000004" y="640.0" type="line"/>
      <point x="404.1" y="640.0" type="line"/>
    </contour>
    <contour>
      <point x="310.21456146240234" y="0" type="line"/>
      <point x="409.0999984741211" y="98.88543701171875" type="line"/>
      <point x="409.0999984741211" y="381.11456298828125" type="line"/>
      <point x="310.21456146240234" y="480" type="line"/>
      <point x="249.0999984741211" y="480" type="line"/>
      <point x="249.0999984741211" y="0" type="line"/>
    </contour>
    <contour>
      <point x="46.6" y="0" type="line"/>
      <point x="206.6" y="0" type="line"/>
      <point x="206.6" y="61.11456" type="line"/>
      <point x="107.71456" y="160.0" type="line"/>
      <point x="46.6" y="160.0" type="line"/>
    </contour>
  </outline>
</glyph>
<glyph name="T_with_cedilla" format="2">
  <advance width="658.2"/>
  <unicode hex="0162"/>
  <outline>
    <contour>
      <point x="44.1" y="800.0" type="line"/>
      <point x="44.1" y="640.0" type="line"/>
      <point x="105.21456" y="640.0" type="line"/>
      <point x="204.1" y="738.88544" type="line"/>
      <point x="204.1" y="800.0" type="line"/>
    </contour>
    <contour>
      <point x="249.0999984741211" y="0" type="line"/>
      <point x="409.0999984741211" y="0" type="line"/>
      <point x="409.0999984741211" y="800" type="line"/>
      <point x="249.0999984741211" y="800" type="line"/>
    </contour>
    <contour>
      <point x="614.1" y="800.0" type="line"/>
      <point x="454.1" y="800.0" type="line"/>
      <point x="454.1" y="738.88544" type="line"/>
      <point x="552.98544" y="640.0" type="line"/>
      <point x="614.1" y="640.0" type="line"/>
    </contour>
    <contour>
      <point x="319.1" y="-185.0" type="line"/>
      <point x="479.1" y="-185.0" type="line"/>
      <point x="479.1" y="-123.88544" type="line"/>
      <point x="380.21456" y="-25.0" type="line"/>
      <point x="319.1" y="-25.0" type="line"/>
    </contour>
  </outline>
</glyph>
<glyph name="t_with_cedilla" format="2">
  <advance width="453.2"/>
  <unicode hex="0163"/>
  <outline>
    <contour>
      <point x="44.099998474121094" y="0" type="line"/>
      <point x="204.0999984741211" y="0" type="line"/>
      <point x="204.0999984741211" y="800" type="line"/>
      <point x="142.98544311523438" y="800" type="line"/>
      <point x="44.099998474121094" y="701.1145629882812" type="line"/>
    </contour>
    <contour>
      <point x="249.1" y="600.0" type="line"/>
      <point x="249.1" y="440.0" type="line"/>
      <point x="310.21456" y="440.0" type="line"/>
      <point x="409.1" y="538.88544" type="line"/>
      <point x="409.1" y="600.0" type="line"/>
    </contour>
    <contour>
      <point x="125.35" y="-185.0" type="line"/>
      <point x="285.35" y="-185.0" type="line"/>
      <point x="285.35" y="-123.88544" type="line"/>
      <point x="186.46456" y="-25.0" type="line"/>
      <point x="125.35" y="-25.0" type="line"/>
    </contour>
  </outline>
</glyph>
<glyph name="u_with_breve" format="2">
  <advance width="453.2"/>
  <unicode hex="016D"/>
  <outline>
    <contour>
      <point x="66.5999984741211" y="737.7743301391602" type="line"/>
      <point x="165.48544311523438" y="638.8888854980469" type="line"/>
      <point x="287.71456146240234" y="638.8888854980469" type="line"/>
      <point x="386.5999984741211" y="737.7743301391602" type="line"/>
      <point x="386.5999984741211" y="798.8888854980469" type="line"/>
      <point x="66.5999984741211" y="798.8888854980469" type="line"/>
    </contour>
    <contour>
      <point x="142.98544311523438" y="-5" type="line"/>
      <point x="204.0999984741211" y="-5" type="line"/>
      <point x="204.0999984741211" y="600" type="line"/>
      <point x="44.099998474121094" y="600" type="line"/>
      <point x="44.099998474121094" y="93.88543701171875" type="line"/>
    </contour>
    <contour>
      <point x="310.21456146240234" y="-5" type="line"/>
      <point x="409.0999984741211" y="93.88543701171875" type="line"/>
      <point x="409.0999984741211" y="600" type="line"/>
      <point x="249.0999984741211" y="600" type="line"/>
      <point x="249.0999984741211" y="-5" type="line"/>
    </contour>
  </outline>
</glyph>
<glyph name="U_with_ring" format="2">
  <advance width="453.2"/>
  <unicode hex="016E"/>
  <outline>
    <contour>
      <point x="204.1" y="1003.8888888888889" type="line"/>
      <point x="171.63288999999997" y="1003.8888888888889" type="line"/>
      <point x="119.1" y="951.355998888889" type="line"/>
      <point x="119.1" y="886.4217788888889" type="line"/>
      <point x="171.63288999999997" y="833.8888888888889" type="line"/>
      <point x="204.1" y="833.8888888888889" type="line"/>
    </contour>
    <contour>
      <point x="249.1" y="833.8888888888889" type="line"/>
      <point x="281.56710999999996" y="833.8888888888889" type="line"/>
      <point x="334.1" y="886.4217788888889" type="line"/>
      <point x="334.1" y="951.355998888889" type="line"/>
      <point x="281.56710999999996" y="1003.8888888888889" type="line"/>
      <point x="249.1" y="1003.8888888888889" type="line"/>
    </contour>
    <contour>
      <point x="142.98544311523438" y="-5" type="line"/>
      <point x="204.0999984741211" y="-5" type="line"/>
      <point x="204.0999984741211" y="800" type="line"/>
      <point x="44.099998474121094" y="800" type="line"/>
      <point x="44.099998474121094" y="93.88543701171875" type="line"/>
    </contour>
    <contour>
      <point x="310.21456146240234" y="-5" type="line"/>
      <point x="409.0999984741211" y="93.88543701171875" type="line"/>
      <point x="409.0999984741211" y="800" type="line"/>
      <point x="249.0999984741211" y="800" type="line"/>
      <point x="249.0999984741211" y="-5" type="line"/>
    </contour>
  </outline>
</glyph>
<glyph name="u_with_ring" format="2">
  <advance width="453.2"/>
  <unicode hex="016F"/>
  <outline>
    <contour>
      <point x="204.1" y="803.8888888888889" type="line"/>
      <point x="171.63288999999997" y="803.8888888888889" type="line"/>
      <point x="119.1" y="751.355998888889" type="line"/>
      <point x="119.1" y="686.4217788888889" type="line"/>
      <point x="171.63288999999997" y="633.8888888888889" type="line"/>
      <point x="204.1" y="633.8888888888889" type="line"/>
    </contour>
    <contour>
      <point x="249.1" y="633.8888888888889" type="line"/>
      <point x="281.56710999999996" y="633.8888888888889" type="line"/>
      <point x="334.1" y="686.4217788888889" type="line"/>
      <point x="334.1" y="751.355998888889" type="line"/>
      <point x="281.56710999999996" y="803.8888888888889" type="line"/>
      <point x="249.1" y="803.8888888888889" type="line"/>
    </contour>
    <contour>
      <point x="142.98544311523438" y="-5" type="line"/>
      <point x="204.0999984741211" y="-5" type="line"/>
      <point x="204.0999984741211" y="600" type="line"/>
      <point x="44.099998474121094" y="600" type="line"/>
      <point x="44.099998474121094" y="93.88543701171875" type="line"/>
    </contour>
    <contour>
      <point x="310.21456146240234" y="-5" type="line"/>
      <point x="409.0999984741211" y="93.88543701171875" type="line"/>
      <point x="409.0999984741211" y="600" type="line"/>
      <point x="249.0999984741211" y="600" type="line"/>
      <point x="249.0999984741211" y="-5" type="line"/>
    </contour>
  </outline>
</glyph>
<glyph name="U_with_acutedbl" format="2">
  <advance width="453.2"/>
  <unicode hex="0170"/>
  <outline>
    <contour>
      <point x="44.099999999999994" y="998.8888888888889" type="line"/>
      <point x="44.099999999999994" y="838.8888888888889" type="line"/>
      <point x="105.21455999999999" y="838.8888888888889" type="line"/>
      <point x="204.1" y="937.7743288888889" type="line"/>
      <point x="204.1" y="998.8888888888889" type="line"/>
    </contour>
    <contour>
      <point x="249.1" y="998.8888888888889" type="line"/>
      <point x="249.1" y="838.8888888888889" type="line"/>
      <point x="310.21456" y="838.8888888888889" type="line"/>
      <point x="409.1" y="937.7743288888889" type="line"/>
      <point x="409.1" y="998.8888888888889" type="line"/>
    </contour>
    <contour>
      <point x="142.98544311523438" y="-5" type="line"/>
      <point x="204.0999984741211" y="-5" type="line"/>
      <point x="204.0999984741211" y="800" type="line"/>
      <point x="44.099998474121094" y="800" type="line"/>
      <point x="44.099998474121094" y="93.88543701171875" type="line"/>
    </contour>
    <contour>
      <point x="310.21456146240234" y="-5" type="line"/>
      <point x="409.0999984741211" y="93.88543701171875" type="line"/>
      <point x="409.0999984741211" y="800" type="line"/>
      <point x="249.0999984741211" y="800" type="line"/>
      <point x="249.0999984741211" y="-5" type="line"/>
    </contour>
  </outline>
</glyph>
<glyph name="W_with_circumflex" format="2">
  <advance width="658.2"/>
  <unicode hex="0174"/>
  <outline>
    <contour>
      <point x="164.10000000000002" y="998.8888888888889" type="line"/>
      <point x="164.10000000000002" y="838.8888888888889" type="line"/>
      <point x="225.21456" y="838.8888888888889" type="line"/>
      <point x="324.1" y="937.7743288888889" type="line"/>
      <point x="324.1" y="998.8888888888889" type="line"/>
    </contour>
    <contour>
      <point x="494.1" y="998.8888888888889" type="line"/>
      <point x="334.1" y="998.8888888888889" type="line"/>
      <point x="334.1" y="937.7743288888889" type="line"/>
      <point x="432.98544000000004" y="838.8888888888889" type="line"/>
      <point x="494.1" y="838.8888888888889" type="line"/>
    </contour>
    <contour>
      <point x="142.98544311523438" y="0" type="line"/>
      <point x="204.0999984741211" y="0" type="line"/>
      <point x="204.0999984741211" y="701.1145629882812" type="line"/>
      <point x="105.21456146240234" y="800" type="line"/>
      <point x="44.099998474121094" y="800" type="line"/>
      <point x="44.099998474121094" y="98.88543701171875" type="line"/>
    </contour>
    <contour>
      <point x="249.0999984741211" y="0" type="line"/>
      <point x="409.0999984741211" y="0" type="line"/>
      <point x="409.0999984741211" y="701.1145629882812" type="line"/>
      <point x="310.21456146240234" y="800" type="line"/>
      <point x="249.0999984741211" y="800" type="line"/>
    </contour>
    <contour>
      <point x="515.2145614624023" y="0" type="line"/>
      <point x="614.0999984741211" y="98.88543701171875" type="line"/>
      <point x="614.0999984741211" y="800" type="line"/>
      <point x="454.0999984741211" y="800" type="line"/>
      <point x="454.0999984741211" y="0" type="line"/>
    </contour>
  </outline>
</glyph>
<glyph name="w_with_circumflex" format="2">
  <advance width="658.2"/>
  <unicode hex="0175"/>
  <outline>
    <contour>
      <point x="164.10000000000002" y="798.8888888888889" type="line"/>
      <point x="164.10000000000002" y="638.8888888888889" type="line"/>
      <point x="225.21456" y="638.8888888888889" type="line"/>
      <point x="324.1" y="737.7743288888889" type="line"/>
      <point x="324.1" y="798.8888888888889" type="line"/>
    </contour>
    <contour>
      <point x="494.1" y="798.8888888888889" type="line"/>
      <point x="334.1" y="798.8888888888889" type="line"/>
      <point x="334.1" y="737.7743288888889" type="line"/>
      <point x="432.98544000000004" y="638.8888888888889" type="line"/>
      <point x="494.1" y="638.8888888888889" type="line"/>
    </contour>
    <contour>
      <point x="142.98544311523438" y="0" type="line"/>
      <point x="204.0999984741211" y="0" type="line"/>
      <point x="204.0999984741211" y="501.11456298828125" type="line"/>
      <point x="105.21456146240234" y="600" type="line"/>
      <point x="44.099998474121094" y="600" type="line"/>
      <point x="44.099998474121094" y="98.88543701171875" type="line"/>
    </contour>
    <contour>
      <point x="249.0999984741211" y="0" type="line"/>
      <point x="409.0999984741211" y="0" type="line"/>
      <point x="409.0999984741211" y="501.11456298828125" type="line"/>
      <point x="310.21456146240234" y="600" type="line"/>
      <point x="249.0999984741211" y="600" type="line"/>
    </contour>
    <contour>
      <point x="515.2145614624023" y="0" type="line"/>
      <point x="614.0999984741211" y="98.88543701171875" type="line"/>
      <point x="614.0999984741211" y="600" type="line"/>
      <point x="454.0999984741211" y="600" type="line"/>
      <point x="454.0999984741211" y="0" type="line"/>
    </contour>
  </outline>
</glyph>
<glyph name="y_with_circumflex" format="2">
  <advance width="453.2"/>
  <unicode hex="0177"/>
  <outline>
    <contour>
      <point x="61.599999999999994" y="798.8888888888889" type="line"/>
      <point x="61.599999999999994" y="638.8888888888889" type="line"/>
      <point x="122.71455999999999" y="638.8888888888889" type="line"/>
      <point x="221.6" y="737.7743288888889" type="line"/>
      <point x="221.6" y="798.8888888888889" type="line"/>
    </contour>
    <contour>
      <point x="391.6" y="798.8888888888889" type="line"/>
      <point x="231.6" y="798.8888888888889" type="line"/>
      <point x="231.6" y="737.7743288888889" type="line"/>
      <point x="330.48544000000004" y="638.8888888888889" type="line"/>
      <point x="391.6" y="638.8888888888889" type="line"/>
    </contour>
    <contour>
      <point x="142.98544311523438" y="5" type="line"/>
      <point x="204.0999984741211" y="5" type="line"/>
      <point x="204.0999984741211" y="501.11456298828125" type="line"/>
      <point x="105.21456146240234" y="600" type="line"/>
      <point x="44.099998474121094" y="600" type="line"/>
      <point x="44.099998474121094" y="103.88543701171875" type="line"/>
    </contour>
    <contour>
      <point x="310.21456146240234" y="-210" type="line"/>
      <point x="409.0999984741211" y="-111.11456298828125" type="line"/>
      <point x="409.0999984741211" y="600" type="line"/>
      <point x="249.0999984741211" y="600" type="line"/>
      <point x="249.0999984741211" y="-210" type="line"/>
    </contour>
    <contour>
      <point x="204.1" y="-50.0" type="line"/>
      <point x="44.1" y="-50.0" type="line"/>
      <point x="44.1" y="-111.11456" type="line"/>
      <point x="142.98544" y="-210.0" type="line"/>
      <point x="204.1" y="-210.0" type="line"/>
    </contour>
  </outline>
</glyph>
<glyph name="z_with_acute" format="2">
  <advance width="453.2"/>
  <unicode hex="017A"/>
  <outline>
    <contour>
      <point x="216.6" y="798.8888888888889" type="line"/>
      <point x="216.6" y="638.8888888888889" type="line"/>
      <point x="277.71456" y="638.8888888888889" type="line"/>
      <point x="376.6" y="737.7743288888889" type="line"/>
      <point x="376.6" y="798.8888888888889" type="line"/>
    </contour>
    <contour>
      <point x="44.1" y="600.0" type="line"/>
      <point x="44.1" y="440.0" type="line"/>
      <point x="105.21456" y="440.0" type="line"/>
      <point x="204.1" y="538.88544" type="line"/>
      <point x="204.1" y="600.0" type="line"/>
    </contour>
    <contour>
      <point x="310.21456146240234" y="220" type="line"/>
      <point x="409.0999984741211" y="318.88543701171875" type="line"/>
      <point x="409.0999984741211" y="600" type="line"/>
      <point x="249.0999984741211" y="600" type="line"/>
      <point x="249.0999984741211" y="220" type="line"/>
    </contour>
    <contour>
      <point x="44.099998474121094" y="0" type="line"/>
      <point x="204.0999984741211" y="0" type="line"/>
      <point x="204.0999984741211" y="380" type="line"/>
      <point x="142.98544311523438" y="380" type="line"/>
      <point x="44.099998474121094" y="281.11456298828125" type="line"/>
    </contour>
    <contour>
      <point x="409.1" y="0.0" type="line"/>
      <point x="409.1" y="160.0" type="line"/>
      <point x="347.98544000000004" y="160.0" type="line"/>
      <point x="249.1" y="61.11456" type="line"/>
      <point x="249.1" y="0.0" type="line"/>
    </contour>
  </outline>
</glyph>
<glyph name="Z_with_dotabove" format="2">
  <advance width="453.2"/>
  <unicode hex="017B"/>
  <outline>
    <contour>
      <point x="146.6" y="878.8888888888889" type="line"/>
      <point x="306.6" y="878.8888888888889" type="line"/>
      <point x="306.6" y="1038.888888888889" type="line"/>
      <point x="146.6" y="1038.888888888889" type="line"/>
    </contour>
    <contour>
      <point x="44.1" y="800.0" type="line"/>
      <point x="44.1" y="640.0" type="line"/>
      <point x="105.21456" y="640.0" type="line"/>
      <point x="204.1" y="738.88544" type="line"/>
      <point x="204.1" y="800.0" type="line"/>
    </contour>
    <contour>
      <point x="310.21456146240234" y="320" type="line"/>
      <point x="409.0999984741211" y="418.88543701171875" type="line"/>
      <point x="409.0999984741211" y="800" type="line"/>
      <point x="249.0999984741211" y="800" type="line"/>
      <point x="249.0999984741211" y="320" type="line"/>
    </contour>
    <contour>
      <point x="44.099998474121094" y="0" type="line"/>
      <point x="204.0999984741211" y="0" type="line"/>
      <point x="204.0999984741211" y="480" type="line"/>
      <point x="142.98544311523438" y="480" type="line"/>
      <point x="44.099998474121094" y="381.11456298828125" type="line"/>
    </contour>
    <contour>
      <point x="409.1" y="0.0" type="line"/>
      <point x="409.1" y="160.0" type="line"/>
      <point x="347.98544000000004" y="160.0" type="line"/>
      <point x="249.1" y="61.11456" type="line"/>
      <point x="249.1" y="0.0" type="line"/>
    </contour>
  </outline>
</glyph>
<glyph name="Z_with_caron" format="2">
  <advance width="453.2"/>
  <unicode hex="017D"/>
  <outline>
    <contour>
      <point x="61.599999999999994" y="838.8888888888889" type="line"/>
      <point x="221.6" y="838.8888888888889" type="line"/>
      <point x="221.6" y="900.0034488888889" type="line"/>
      <point x="122.71455999999999" y="998.8888888888889" type="line"/>
      <point x="61.599999999999994" y="998.8888888888889" type="line"/>
    </contour>
    <contour>
      <point x="391.6" y="838.8888888888889" type="line"/>
      <point x="391.6" y="998.8888888888889" type="line"/>
      <point x="330.48544000000004" y="998.8888888888889" type="line"/>
      <point x="231.6" y="900.0034488888889" type="line"/>
      <point x="231.6" y="838.8888888888889" type="line"/>
    </contour>
    <contour>
      <point x="44.1" y="800.0" type="line"/>
      <point x="44.1" y="640.0" type="line"/>
      <point x="105.21456" y="640.0" type="line"/>
      <point x="204.1" y="738.88544" type="line"/>
      <point x="204.1" y="800.0" type="line"/>
    </contour>
    <contour>
      <point x="310.21456146240234" y="320" type="line"/>
      <point x="409.0999984741211" y="418.88543701171875" type="line"/>
      <point x="409.0999984741211" y="800" type="line"/>
      <point x="249.0999984741211" y="800" type="line"/>
      <point x="249.0999984741211" y="320" type="line"/>
    </contour>
    <contour>
      <point x="44.099998474121094" y="0" type="line"/>
      <point x="204.0999984741211" y="0" type="line"/>
      <point x="204.0999984741211" y="480" type="line"/>
      <point x="142.98544311523438" y="480" type="line"/>
      <point x="44.099998474121094" y="381.11456298828125" type="line"/>
    </contour>
    <contour>
      <point x="409.1" y="0.0" type="line"/>
      <point x="409.1" y="160.0" type="line"/>
      <point x="347.98544000000004" y="160.0" type="line"/>
      <point x="249.1" y="61.11456" type="line"/>
      <point x="249.1" y="0.0" type="line"/>
    </contour>
  </outline>
</glyph>
<glyph name="florin" format="2">
  <advance width="658.2"/>
  <unicode hex="0192"/>
  <outline>
    <contour>
      <point x="310.21456146240234" y="0" type="line"/>
      <point x="409.0999984741211" y="98.88543701171875" type="line"/>
      <point x="409.0999984741211" y="805" type="line"/>
      <point x="347.9854431152344" y="805" type="line"/>
      <point x="249.0999984741211" y="706.1145629882812" type="line"/>
      <point x="249.0999984741211" y="0" type="line"/>
    </contour>
    <contour>
      <point x="619.1" y="752.46711" type="line"/>
      <point x="566.5671100000001" y="805.0" type="line"/>
      <point x="501.63289000000003" y="805.0" type="line"/>
      <point x="449.1" y="752.46711" type="line"/>
      <point x="449.1" y="687.53289" type="line"/>
      <point x="501.63289000000003" y="635.0" type="line"/>
      <point x="566.5671100000001" y="635.0" type="line"/>
      <point x="619.1" y="687.53289" type="line"/>
    </contour>
    <contour>
      <point x="104.0999984741211" y="410" type="line"/>
      <point x="204.0999984741211" y="410" type="line"/>
      <point x="204.0999984741211" y="490" type="line"/>
      <point x="104.0999984741211" y="490" type="line"/>
    </contour>
    <contour>
      <point x="454.0999984741211" y="410" type="line"/>
      <point x="574.0999984741211" y="410" type="line"/>
      <point x="574.0999984741211" y="490" type="line"/>
      <point x="454.0999984741211" y="490" type="line"/>
    </contour>
    <contour>
      <point x="209.1" y="112.46711" type="line"/>
      <point x="156.56711" y="165.0" type="line"/>
      <point x="91.63289" y="165.0" type="line"/>
      <point x="39.1" y="112.46711" type="line"/>
      <point x="39.1" y="47.53289" type="line"/>
      <point x="91.63289" y="-5.0" type="line"/>
      <point x="156.56711" y="-5.0" type="line"/>
      <point x="209.1" y="47.53289" type="line"/>
    </contour>
  </outline>
</glyph>
<glyph name="O_with_ogonek" format="2">
  <advance width="453.2"/>
  <unicode hex="01EA"/>
  <outline>
    <contour>
      <point x="142.98544311523438" y="-5" type="line"/>
      <point x="204.0999984741211" y="-5" type="line"/>
      <point x="204.0999984741211" y="805" type="line"/>
      <point x="142.98544311523438" y="805" type="line"/>
      <point x="44.099998474121094" y="706.1145629882812" type="line"/>
      <point x="44.099998474121094" y="93.88543701171875" type="line"/>
    </contour>
    <contour>
      <point x="310.21456146240234" y="-5" type="line"/>
      <point x="409.0999984741211" y="93.88543701171875" type="line"/>
      <point x="409.0999984741211" y="706.1145629882812" type="line"/>
      <point x="310.21456146240234" y="805" type="line"/>
      <point x="249.0999984741211" y="805" type="line"/>
      <point x="249.0999984741211" y="-5" type="line"/>
    </contour>
    <contour>
      <point x="226.60000000000002" y="-190.0" type="line"/>
      <point x="226.60000000000002" y="-30.0" type="line"/>
      <point x="165.48544" y="-30.0" type="line"/>
      <point x="66.60000000000002" y="-128.88544000000002" type="line"/>
      <point x="66.60000000000002" y="-190.0" type="line"/>
    </contour>
  </outline>
</glyph>
<glyph name="AE_with_acute" format="2">
  <advance width="863.2"/>
  <unicode hex="01FC"/>
  <outline>
    <contour>
      <point x="421.6" y="998.8888888888889" type="line"/>
      <point x="421.6" y="838.8888888888889" type="line"/>
      <point x="482.71456" y="838.8888888888889" type="line"/>
      <point x="581.6" y="937.7743288888889" type="line"/>
      <point x="581.6" y="998.8888888888889" type="line"/>
    </contour>
    <contour>
      <point x="44.099998474121094" y="0" type="line"/>
      <point x="204.0999984741211" y="0" type="line"/>
      <point x="204.0999984741211" y="805" type="line"/>
      <point x="142.98544311523438" y="805" type="line"/>
      <point x="44.099998474121094" y="706.1145629882812" type="line"/>
    </contour>
    <contour>
      <point x="249.0999984741211" y="0" type="line"/>
      <point x="409.0999984741211" y="0" type="line"/>
      <point x="409.0999984741211" y="706.1145629882812" type="line"/>
      <point x="310.21456146240234" y="805" type="line"/>
      <point x="249.0999984741211" y="805" type="line"/>
    </contour>
    <contour>
      <point x="454.0999984741211" y="0" type="line"/>
      <point x="614.0999984741211" y="0" type="line"/>
      <point x="614.0999984741211" y="800" type="line"/>
      <point x="454.0999984741211" y="800" type="line"/>
    </contour>
    <contour>
      <point x="819.1" y="800.0" type="line"/>
      <point x="659.1" y="800.0" type="line"/>
      <point x="659.1" y="738.88544" type="line"/>
      <point x="757.98544" y="640.0" type="line"/>
      <point x="819.1" y="640.0" type="line"/>
    </contour>
    <contour>
      <point x="819.1" y="500.0" type="line"/>
      <point x="659.1" y="500.0" type="line"/>
      <point x="659.1" y="438.88544" type="line"/>
      <point x="757.98544" y="340.0" type="line"/>
      <point x="819.1" y="340.0" type="line"/>
    </contour>
    <contour>
      <point x="819.1" y="0.0" type="line"/>
      <point x="819.1" y="160.0" type="line"/>
      <point x="757.98544" y="160.0" type="line"/>
      <point x="659.1" y="61.11456" type="line"/>
      <point x="659.1" y="0.0" type="line"/>
    </contour>
  </outline>
</glyph>
<glyph name="ae_with_acute" format="2">
  <advance width="863.2"/>
  <unicode hex="01FD"/>
  <outline>
    <contour>
      <point x="421.6" y="798.8888888888889" type="line"/>
      <point x="421.6" y="638.8888888888889" type="line"/>
      <point x="482.71456" y="638.8888888888889" type="line"/>
      <point x="581.6" y="737.7743288888889" type="line"/>
      <point x="581.6" y="798.8888888888889" type="line"/>
    </contour>
    <contour>
      <point x="310.21456146240234" y="-5" type="line"/>
      <point x="409.0999984741211" y="93.88543701171875" type="line"/>
      <point x="409.0999984741211" y="506.11456298828125" type="line"/>
      <point x="310.21456146240234" y="605" type="line"/>
      <point x="249.0999984741211" y="605" type="line"/>
      <point x="249.0999984741211" y="-5" type="line"/>
    </contour>
    <contour>
      <point x="552.9854431152344" y="-5" type="line"/>
      <point x="614.0999984741211" y="-5" type="line"/>
      <point x="614.0999984741211" y="605" type="line"/>
      <point x="552.9854431152344" y="605" type="line"/>
      <point x="454.0999984741211" y="506.11456298828125" type="line"/>
      <point x="454.0999984741211" y="93.88543701171875" type="line"/>
    </contour>
    <contour>
      <point x="659.0999984741211" y="195" type="line"/>
      <point x="819.0999984741211" y="195" type="line"/>
      <point x="819.0999984741211" y="506.11456298828125" type="line"/>
      <point x="720.2145614624023" y="605" type="line"/>
      <point x="659.0999984741211" y="605" type="line"/>
    </contour>
    <contour>
      <point x="46.6" y="600.0" type="line"/>
      <point x="46.6" y="440.0" type="line"/>
      <point x="107.71456" y="440.0" type="line"/>
      <point x="206.6" y="538.88544" type="line"/>
      <point x="206.6" y="600.0" type="line"/>
    </contour>
    <contour>
      <point x="142.98544311523438" y="-5" type="line"/>
      <point x="204.0999984741211" y="-5" type="line"/>
      <point x="204.0999984741211" y="395" type="line"/>
      <point x="142.98544311523438" y="395" type="line"/>
      <point x="44.099998474121094" y="296.11456298828125" type="line"/>
      <point x="44.099998474121094" y="93.88543701171875" type="line"/>
    </contour>
  </outline>
</glyph>
<glyph name="e_with_breveinv" format="2">
  <advance width="453.2"/>
  <unicode hex="0207"/>
  <outline>
    <contour>
      <point x="66.5999984741211" y="700.0034484863281" type="line"/>
      <point x="66.5999984741211" y="638.8888854980469" type="line"/>
      <point x="386.5999984741211" y="638.8888854980469" type="line"/>
      <point x="386.5999984741211" y="700.0034484863281" type="line"/>
      <point x="287.71456146240234" y="798.8888854980469" type="line"/>
      <point x="165.48544311523438" y="798.8888854980469" type="line"/>
    </contour>
    <contour>
      <point x="142.98544311523438" y="-5" type="line"/>
      <point x="204.0999984741211" y="-5" type="line"/>
      <point x="204.0999984741211" y="605" type="line"/>
      <point x="142.98544311523438" y="605" type="line"/>
      <point x="44.099998474121094" y="506.11456298828125" type="line"/>
      <point x="44.099998474121094" y="93.88543701171875" type="line"/>
    </contour>
    <contour>
      <point x="249.0999984741211" y="195" type="line"/>
      <point x="409.0999984741211" y="195" type="line"/>
      <point x="409.0999984741211" y="506.11456298828125" type="line"/>
      <point x="310.21456146240234" y="605" type="line"/>
      <point x="249.0999984741211" y="605" type="line"/>
    </contour>
  </outline>
</glyph>
<glyph name="I_with_gravedbl" format="2">
  <advance width="248.2"/>
  <unicode hex="0208"/>
  <outline>
    <contour>
      <point x="101.6" y="998.8888888888889" type="line"/>
      <point x="-58.400000000000006" y="998.8888888888889" type="line"/>
      <point x="-58.400000000000006" y="937.7743288888889" type="line"/>
      <point x="40.48544" y="838.8888888888889" type="line"/>
      <point x="101.6" y="838.8888888888889" type="line"/>
    </contour>
    <contour>
      <point x="306.6" y="998.8888888888889" type="line"/>
      <point x="146.6" y="998.8888888888889" type="line"/>
      <point x="146.6" y="937.7743288888889" type="line"/>
      <point x="245.48544" y="838.8888888888889" type="line"/>
      <point x="306.6" y="838.8888888888889" type="line"/>
    </contour>
    <contour>
      <point x="44.099998474121094" y="0" type="line"/>
      <point x="204.0999984741211" y="0" type="line"/>
      <point x="204.0999984741211" y="800" type="line"/>
      <point x="44.099998474121094" y="800" type="line"/>
    </contour>
  </outline>
</glyph>
<glyph name="i_with_gravedbl" format="2">
  <advance width="248.2"/>
  <unicode hex="0209"/>
  <outline>
    <contour>
      <point x="101.6" y="798.8888888888889" type="line"/>
      <point x="-58.400000000000006" y="798.8888888888889" type="line"/>
      <point x="-58.400000000000006" y="737.7743288888889" type="line"/>
      <point x="40.48544" y="638.8888888888889" type="line"/>
      <point x="101.6" y="638.8888888888889" type="line"/>
    </contour>
    <contour>
      <point x="306.6" y="798.8888888888889" type="line"/>
      <point x="146.6" y="798.8888888888889" type="line"/>
      <point x="146.6" y="737.7743288888889" type="line"/>
      <point x="245.48544" y="638.8888888888889" type="line"/>
      <point x="306.6" y="638.8888888888889" type="line"/>
    </contour>
    <contour>
      <point x="44.099998474121094" y="0" type="line"/>
      <point x="204.0999984741211" y="0" type="line"/>
      <point x="204.0999984741211" y="600" type="line"/>
      <point x="44.099998474121094" y="600" type="line"/>
    </contour>
  </outline>
</glyph>
<glyph name="I_with_breveinv" format="2">
  <advance width="248.2"/>
  <unicode hex="020A"/>
  <outline>
    <contour>
      <point x="-35.900001525878906" y="900.0034484863281" type="line"/>
      <point x="-35.900001525878906" y="838.8888854980469" type="line"/>
      <point x="284.0999984741211" y="838.8888854980469" type="line"/>
      <point x="284.0999984741211" y="900.0034484863281" type="line"/>
      <point x="185.21456146240234" y="998.8888854980469" type="line"/>
      <point x="62.985443115234375" y="998.8888854980469" type="line"/>
    </contour>
    <contour>
      <point x="44.099998474121094" y="0" type="line"/>
      <point x="204.0999984741211" y="0" type="line"/>
      <point x="204.0999984741211" y="800" type="line"/>
      <point x="44.099998474121094" y="800" type="line"/>
    </contour>
  </outline>
</glyph>
<glyph name="o_with_gravedbl" format="2">
  <advance width="453.2"/>
  <unicode hex="020D"/>
  <outline>
    <contour>
      <point x="204.1" y="798.8888888888889" type="line"/>
      <point x="44.099999999999994" y="798.8888888888889" type="line"/>
      <point x="44.099999999999994" y="737.7743288888889" type="line"/>
      <point x="142.98543999999998" y="638.8888888888889" type="line"/>
      <point x="204.1" y="638.8888888888889" type="line"/>
    </contour>
    <contour>
      <point x="409.1" y="798.8888888888889" type="line"/>
      <point x="249.1" y="798.8888888888889" type="line"/>
      <point x="249.1" y="737.7743288888889" type="line"/>
      <point x="347.98544000000004" y="638.8888888888889" type="line"/>
      <point x="409.1" y="638.8888888888889" type="line"/>
    </contour>
    <contour>
      <point x="142.98544311523438" y="-5" type="line"/>
      <point x="204.0999984741211" y="-5" type="line"/>
      <point x="204.0999984741211" y="605" type="line"/>
      <point x="142.98544311523438" y="605" type="line"/>
      <point x="44.099998474121094" y="506.11456298828125" type="line"/>
      <point x="44.099998474121094" y="93.88543701171875" type="line"/>
    </contour>
    <contour>
      <point x="310.21456146240234" y="-5" type="line"/>
      <point x="409.0999984741211" y="93.88543701171875" type="line"/>
      <point x="409.0999984741211" y="506.11456298828125" type="line"/>
      <point x="310.21456146240234" y="605" type="line"/>
      <point x="249.0999984741211" y="605" type="line"/>
      <point x="249.0999984741211" y="-5" type="line"/>
    </contour>
  </outline>
</glyph>
<glyph name="r_with_gravedbl" format="2">
  <advance width="453.2"/>
  <unicode hex="0211"/>
  <outline>
    <contour>
      <point x="204.1" y="798.8888888888889" type="line"/>
      <point x="44.099999999999994" y="798.8888888888889" type="line"/>
      <point x="44.099999999999994" y="737.7743288888889" type="line"/>
      <point x="142.98543999999998" y="638.8888888888889" type="line"/>
      <point x="204.1" y="638.8888888888889" type="line"/>
    </contour>
    <contour>
      <point x="409.1" y="798.8888888888889" type="line"/>
      <point x="249.1" y="798.8888888888889" type="line"/>
      <point x="249.1" y="737.7743288888889" type="line"/>
      <point x="347.98544000000004" y="638.8888888888889" type="line"/>
      <point x="409.1" y="638.8888888888889" type="line"/>
    </contour>
    <contour>
      <point x="44.099998474121094" y="0" type="line"/>
      <point x="204.0999984741211" y="0" type="line"/>
      <point x="204.0999984741211" y="600" type="line"/>
      <point x="44.099998474121094" y="600" type="line"/>
    </contour>
    <contour>
      <point x="409.1" y="600.0" type="line"/>
      <point x="249.1" y="600.0" type="line"/>
      <point x="249.1" y="538.88544" type="line"/>
      <point x="347.98544000000004" y="440.0" type="line"/>
      <point x="409.1" y="440.0" type="line"/>
    </contour>
  </outline>
</glyph>
<glyph name="r_with_breveinv" format="2">
  <advance width="453.2"/>
  <unicode hex="0213"/>
  <outline>
    <contour>
      <point x="66.5999984741211" y="700.0034484863281" type="line"/>
      <point x="66.5999984741211" y="638.8888854980469" type="line"/>
      <point x="386.5999984741211" y="638.8888854980469" type="line"/>
      <point x="386.5999984741211" y="700.0034484863281" type="line"/>
      <point x="287.71456146240234" y="798.8888854980469" type="line"/>
      <point x="165.48544311523438" y="798.8888854980469" type="line"/>
    </contour>
    <contour>
      <point x="44.099998474121094" y="0" type="line"/>
      <point x="204.0999984741211" y="0" type="line"/>
      <point x="204.0999984741211" y="600" type="line"/>
      <point x="44.099998474121094" y="600" type="line"/>
    </contour>
    <contour>
      <point x="409.1" y="600.0" type="line"/>
      <point x="249.1" y="600.0" type="line"/>
      <point x="249.1" y="538.88544" type="line"/>
      <point x="347.98544000000004" y="440.0" type="line"/>
      <point x="409.1" y="440.0" type="line"/>
    </contour>
  </outline>
</glyph>
<glyph name="U_with_breveinv" format="2">
  <advance width="453.2"/>
  <unicode hex="0216"/>
  <outline>
    <contour>
      <point x="66.5999984741211" y="900.0034484863281" type="line"/>
      <point x="66.5999984741211" y="838.8888854980469" type="line"/>
      <point x="386.5999984741211" y="838.8888854980469" type="line"/>
      <point x="386.5999984741211" y="900.0034484863281" type="line"/>
      <point x="287.71456146240234" y="998.8888854980469" type="line"/>
      <point x="165.48544311523438" y="998.8888854980469" type="line"/>
    </contour>
    <contour>
      <point x="142.98544311523438" y="-5" type="line"/>
      <point x="204.0999984741211" y="-5" type="line"/>
      <point x="204.0999984741211" y="800" type="line"/>
      <point x="44.099998474121094" y="800" type="line"/>
      <point x="44.099998474121094" y="93.88543701171875" type="line"/>
    </contour>
    <contour>
      <point x="310.21456146240234" y="-5" type="line"/>
      <point x="409.0999984741211" y="93.88543701171875" type="line"/>
      <point x="409.0999984741211" y="800" type="line"/>
      <point x="249.0999984741211" y="800" type="line"/>
      <point x="249.0999984741211" y="-5" type="line"/>
    </contour>
  </outline>
</glyph>
<glyph name="s_with_commabelow" format="2">
  <advance width="453.2"/>
  <unicode hex="0219"/>
  <outline>
    <contour>
      <point x="142.98544311523438" y="220" type="line"/>
      <point x="204.0999984741211" y="220" type="line"/>
      <point x="204.0999984741211" y="600" type="line"/>
      <point x="142.98544311523438" y="600" type="line"/>
      <point x="44.099998474121094" y="501.11456298828125" type="line"/>
      <point x="44.099998474121094" y="318.88543701171875" type="line"/>
    </contour>
    <contour>
      <point x="404.1" y="600.0" type="line"/>
      <point x="244.1" y="600.0" type="line"/>
      <point x="244.1" y="538.88544" type="line"/>
      <point x="342.98544000000004" y="440.0" type="line"/>
      <point x="404.1" y="440.0" type="line"/>
    </contour>
    <contour>
      <point x="310.21456146240234" y="-5" type="line"/>
      <point x="409.0999984741211" y="93.88543701171875" type="line"/>
      <point x="409.0999984741211" y="276.11456298828125" type="line"/>
      <point x="310.21456146240234" y="375" type="line"/>
      <point x="249.0999984741211" y="375" type="line"/>
      <point x="249.0999984741211" y="-5" type="line"/>
    </contour>
    <contour>
      <point x="46.6" y="0" type="line"/>
      <point x="206.6" y="0" type="line"/>
      <point x="206.6" y="61.11456" type="line"/>
      <point x="107.71456" y="160.0" type="line"/>
      <point x="46.6" y="160.0" type="line"/>
    </contour>
    <contour>
      <point x="146.6" y="-50.0" type="line"/>
      <point x="146.6" y="-210.0" type="line"/>
      <point x="207.71456" y="-210.0" type="line"/>
      <point x="306.6" y="-111.11456" type="line"/>
      <point x="306.6" y="-50.0" type="line"/>
    </contour>
  </outline>
</glyph>
<glyph name="T_with_commabelow" format="2">
  <advance width="658.2"/>
  <unicode hex="021A"/>
  <outline>
    <contour>
      <point x="44.1" y="800.0" type="line"/>
      <point x="44.1" y="640.0" type="line"/>
      <point x="105.21456" y="640.0" type="line"/>
      <point x="204.1" y="738.88544" type="line"/>
      <point x="204.1" y="800.0" type="line"/>
    </contour>
    <contour>
      <point x="249.0999984741211" y="0" type="line"/>
      <point x="409.0999984741211" y="0" type="line"/>
      <point x="409.0999984741211" y="800" type="line"/>
      <point x="249.0999984741211" y="800" type="line"/>
    </contour>
    <contour>
      <point x="614.1" y="800.0" type="line"/>
      <point x="454.1" y="800.0" type="line"/>
      <point x="454.1" y="738.88544" type="line"/>
      <point x="552.98544" y="640.0" type="line"/>
      <point x="614.1" y="640.0" type="line"/>
    </contour>
    <contour>
      <point x="249.10000000000002" y="-45.0" type="line"/>
      <point x="249.10000000000002" y="-205.0" type="line"/>
      <point x="310.21456" y="-205.0" type="line"/>
      <point x="409.1" y="-106.11456" type="line"/>
      <point x="409.1" y="-45.0" type="line"/>
    </contour>
  </outline>
</glyph>
<glyph name="t_with_commabelow" format="2">
  <advance width="453.2"/>
  <unicode hex="021B"/>
  <outline>
    <contour>
      <point x="44.099998474121094" y="0" type="line"/>
      <point x="204.0999984741211" y="0" type="line"/>
      <point x="204.0999984741211" y="800" type="line"/>
      <point x="142.98544311523438" y="800" type="line"/>
      <point x="44.099998474121094" y="701.1145629882812" type="line"/>
    </contour>
    <contour>
      <point x="249.1" y="600.0" type="line"/>
      <point x="249.1" y="440.0" type="line"/>
      <point x="310.21456" y="440.0" type="line"/>
      <point x="409.1" y="538.88544" type="line"/>
      <point x="409.1" y="600.0" type="line"/>
    </contour>
    <contour>
      <point x="146.6" y="-45.0" type="line"/>
      <point x="146.6" y="-205.0" type="line"/>
      <point x="207.71456" y="-205.0" type="line"/>
      <point x="306.6" y="-106.11456" type="line"/>
      <point x="306.6" y="-45.0" type="line"/>
    </contour>
  </outline>
</glyph>
<glyph name="j_dotless" format="2">
  <advance width="453.2"/>
  <unicode hex="0237"/>
  <outline>
    <contour>
      <point x="310.21456146240234" y="-210" type="line"/>
      <point x="409.0999984741211" y="-111.11456298828125" type="line"/>
      <point x="409.0999984741211" y="600" type="line"/>
      <point x="249.0999984741211" y="600" type="line"/>
      <point x="249.0999984741211" y="-210" type="line"/>
    </contour>
    <contour>
      <point x="209.1" y="-50.0" type="line"/>
      <point x="49.1" y="-50.0" type="line"/>
      <point x="49.1" y="-111.11456" type="line"/>
      <point x="147.98544" y="-210.0" type="line"/>
      <point x="209.1" y="-210.0" type="line"/>
    </contour>
  </outline>
</glyph>
<glyph name="turnedcomma" format="2">
  <advance width="248.2"/>
  <unicode hex="02BB"/>
  <outline>
    <contour>
      <point x="44.099998474121094" y="540" type="line"/>
      <point x="204.0999984741211" y="540" type="line"/>
      <point x="204.0999984741211" y="800" type="line"/>
      <point x="142.98544311523438" y="800" type="line"/>
      <point x="44.099998474121094" y="701.1145629882812" type="line"/>
    </contour>
  </outline>
</glyph>
<glyph name="apostrophe" format="2">
  <advance width="248.2"/>
  <unicode hex="02BC"/>
  <outline>
    <contour>
      <point x="105.21456146240234" y="600" type="line"/>
      <point x="204.0999984741211" y="698.8854370117188" type="line"/>
      <point x="204.0999984741211" y="800" type="line"/>
      <point x="44.099998474121094" y="800" type="line"/>
      <point x="44.099998474121094" y="600" type="line"/>
    </contour>
  </outline>
</glyph>
<glyph name="caron" format="2">
  <advance width="453.2"/>
  <unicode hex="02C7"/>
  <outline>
    <contour>
      <point x="61.6" y="800" type="line"/>
      <point x="221.6" y="800" type="line"/>
      <point x="221.6" y="861.11456" type="line"/>
      <point x="122.71456" y="960.0" type="line"/>
      <point x="61.6" y="960.0" type="line"/>
    </contour>
    <contour>
      <point x="391.6" y="800.0" type="line"/>
      <point x="391.6" y="960.0" type="line"/>
      <point x="330.48544000000004" y="960.0" type="line"/>
      <point x="231.6" y="861.11456" type="line"/>
      <point x="231.6" y="800.0" type="line"/>
    </contour>
  </outline>
</glyph>
<glyph name="breve" format="2">
  <advance width="453.2"/>
  <unicode hex="02D8"/>
  <outline>
    <contour>
      <point x="66.5999984741211" y="898.8854370117188" type="line"/>
      <point x="165.48544311523438" y="800" type="line"/>
      <point x="287.71456146240234" y="800" type="line"/>
      <point x="386.5999984741211" y="898.8854370117188" type="line"/>
      <point x="386.5999984741211" y="960" type="line"/>
      <point x="66.5999984741211" y="960" type="line"/>
    </contour>
  </outline>
</glyph>
<glyph name="dotabove" format="2">
  <advance width="248.2"/>
  <unicode hex="02D9"/>
  <outline>
    <contour>
      <point x="44.1" y="840.0" type="line"/>
      <point x="204.1" y="840.0" type="line"/>
      <point x="204.1" y="1000.0" type="line"/>
      <point x="44.1" y="1000.0" type="line"/>
    </contour>
  </outline>
</glyph>
<glyph name="ring" format="2">
  <advance width="453.2"/>
  <unicode hex="02DA"/>
  <outline>
    <contour>
      <point x="204.1" y="965.0" type="line"/>
      <point x="171.63289" y="965.0" type="line"/>
      <point x="119.1" y="912.46711" type="line"/>
      <point x="119.1" y="847.53289" type="line"/>
      <point x="171.63289" y="795.0" type="line"/>
      <point x="204.1" y="795.0" type="line"/>
    </contour>
    <contour>
      <point x="249.1" y="795.0" type="line"/>
      <point x="281.56711" y="795.0" type="line"/>
      <point x="334.1" y="847.53289" type="line"/>
      <point x="334.1" y="912.46711" type="line"/>
      <point x="281.56711" y="965.0" type="line"/>
      <point x="249.1" y="965.0" type="line"/>
    </contour>
  </outline>
</glyph>
<glyph name="ogonek" format="2">
  <advance width="248.2"/>
  <unicode hex="02DB"/>
  <outline>
    <contour>
      <point x="124.1" y="-160.0" type="line"/>
      <point x="124.1" y="0.0" type="line"/>
      <point x="62.98544" y="0.0" type="line"/>
      <point x="-35.9" y="-98.88544" type="line"/>
      <point x="-35.9" y="-160.0" type="line"/>
    </contour>
  </outline>
</glyph>
<glyph name="smalltilde" format="2">
  <advance width="453.2"/>
  <unicode hex="02DC"/>
  <outline>
    <contour>
      <point x="66.5999984741211" y="861.1145629882812" type="line"/>
      <point x="66.5999984741211" y="800" type="line"/>
      <point x="287.71456146240234" y="800" type="line"/>
      <point x="386.5999984741211" y="898.8854370117188" type="line"/>
      <point x="386.5999984741211" y="960" type="line"/>
      <point x="165.48544311523438" y="960" type="line"/>
    </contour>
  </outline>
</glyph>
<glyph name="acutedbl" format="2">
  <advance width="453.2"/>
  <unicode hex="02DD"/>
  <outline>
    <contour>
      <point x="44.1" y="960.0" type="line"/>
      <point x="44.1" y="800.0" type="line"/>
      <point x="105.21456" y="800.0" type="line"/>
      <point x="204.1" y="898.88544" type="line"/>
      <point x="204.1" y="960.0" type="line"/>
    </contour>
    <contour>
      <point x="249.1" y="960.0" type="line"/>
      <point x="249.1" y="800.0" type="line"/>
      <point x="310.21456" y="800.0" type="line"/>
      <point x="409.1" y="898.88544" type="line"/>
      <point x="409.1" y="960.0" type="line"/>
    </contour>
  </outline>
</glyph>
<glyph name="combining_grave" format="2">
  <advance width="248.2"/>
  <unicode hex="0300"/>
  <outline>
    <contour>
      <point x="-319.09999999999997" y="798.88889" type="line"/>
      <point x="-479.1" y="798.88889" type="line"/>
      <point x="-479.1" y="737.77433" type="line"/>
      <point x="-380.21455999999995" y="638.88889" type="line"/>
      <point x="-319.09999999999997" y="638.88889" type="line"/>
    </contour>
  </outline>
</glyph>
<glyph name="combining_acute" format="2">
  <advance width="248.2"/>
  <unicode hex="0301"/>
  <outline>
    <contour>
      <point x="-339.09999999999997" y="798.88889" type="line"/>
      <point x="-339.09999999999997" y="638.88889" type="line"/>
      <point x="-277.98544" y="638.88889" type="line"/>
      <point x="-179.1" y="737.77433" type="line"/>
      <point x="-179.1" y="798.88889" type="line"/>
    </contour>
  </outline>
</glyph>
<glyph name="combining_macron" format="2">
  <advance width="453.2"/>
  <unicode hex="0304"/>
  <outline>
    <contour>
      <point x="-386.5999984741211" y="638.8888931274414" type="line"/>
      <point x="-66.5999984741211" y="638.8888931274414" type="line"/>
      <point x="-66.5999984741211" y="798.8888931274414" type="line"/>
      <point x="-386.5999984741211" y="798.8888931274414" type="line"/>
    </contour>
  </outline>
</glyph>
<glyph name="combining_breve" format="2">
  <advance width="453.2"/>
  <unicode hex="0306"/>
  <outline>
    <contour>
      <point x="-386.5999984741211" y="737.7743301391602" type="line"/>
      <point x="-287.71456146240234" y="638.8888931274414" type="line"/>
      <point x="-165.48544311523438" y="638.8888931274414" type="line"/>
      <point x="-66.5999984741211" y="737.7743301391602" type="line"/>
      <point x="-66.5999984741211" y="798.8888931274414" type="line"/>
      <point x="-386.5999984741211" y="798.8888931274414" type="line"/>
    </contour>
  </outline>
</glyph>
<glyph name="combining_dotabove" format="2">
  <advance width="248.2"/>
  <unicode hex="0307"/>
  <outline>
    <contour>
      <point x="-409.09999999999997" y="678.88889" type="line"/>
      <point x="-249.1" y="678.88889" type="line"/>
      <point x="-249.1" y="838.88889" type="line"/>
      <point x="-409.09999999999997" y="838.88889" type="line"/>
    </contour>
  </outline>
</glyph>
<glyph name="combining_diaeresis" format="2">
  <advance width="453.2"/>
  <unicode hex="0308"/>
  <outline>
    <contour>
      <point x="-409.09999999999997" y="678.88889" type="line"/>
      <point x="-249.1" y="678.88889" type="line"/>
      <point x="-249.1" y="838.88889" type="line"/>
      <point x="-409.09999999999997" y="838.88889" type="line"/>
    </contour>
    <contour>
      <point x="-204.1" y="678.88889" type="line"/>
      <point x="-44.1" y="678.88889" type="line"/>
      <point x="-44.1" y="838.88889" type="line"/>
      <point x="-204.1" y="838.88889" type="line"/>
    </contour>
  </outline>
</glyph>
<glyph name="combining_hook" format="2">
  <advance width="248.2"/>
  <unicode hex="0309"/>
  <outline>
    <contour>
      <point x="-339.09999999999997" y="638.88889" type="line"/>
      <point x="-179.1" y="638.88889" type="line"/>
      <point x="-179.1" y="700.00345" type="line"/>
      <point x="-277.98544" y="798.88889" type="line"/>
      <point x="-339.09999999999997" y="798.88889" type="line"/>
    </contour>
  </outline>
</glyph>
<glyph name="combining_ring" format="2">
  <advance width="453.2"/>
  <unicode hex="030A"/>
  <outline>
    <contour>
      <point x="-249.1" y="803.88889" type="line"/>
      <point x="-281.56710999999996" y="803.88889" type="line"/>
      <point x="-334.09999999999997" y="751.356" type="line"/>
      <point x="-334.09999999999997" y="686.42178" type="line"/>
      <point x="-281.56710999999996" y="633.88889" type="line"/>
      <point x="-249.1" y="633.88889" type="line"/>
    </contour>
    <contour>
      <point x="-204.1" y="633.88889" type="line"/>
      <point x="-171.63289" y="633.88889" type="line"/>
      <point x="-119.1" y="686.42178" type="line"/>
      <point x="-119.1" y="751.356" type="line"/>
      <point x="-171.63289" y="803.88889" type="line"/>
      <point x="-204.1" y="803.88889" type="line"/>
    </contour>
  </outline>
</glyph>
<glyph name="combining_acutedbl" format="2">
  <advance width="453.2"/>
  <unicode hex="030B"/>
  <outline>
    <contour>
      <point x="-409.09999999999997" y="798.88889" type="line"/>
      <point x="-409.09999999999997" y="638.88889" type="line"/>
      <point x="-347.98544" y="638.88889" type="line"/>
      <point x="-249.1" y="737.77433" type="line"/>
      <point x="-249.1" y="798.88889" type="line"/>
    </contour>
    <contour>
      <point x="-204.1" y="798.88889" type="line"/>
      <point x="-204.1" y="638.88889" type="line"/>
      <point x="-142.98544" y="638.88889" type="line"/>
      <point x="-44.1" y="737.77433" type="line"/>
      <point x="-44.1" y="798.88889" type="line"/>
    </contour>
  </outline>
</glyph>
<glyph name="combining_caron" format="2">
  <advance width="453.2"/>
  <unicode hex="030C"/>
  <outline>
    <contour>
      <point x="-391.59999999999997" y="638.88889" type="line"/>
      <point x="-231.6" y="638.88889" type="line"/>
      <point x="-231.6" y="700.00345" type="line"/>
      <point x="-330.48544" y="798.88889" type="line"/>
      <point x="-391.59999999999997" y="798.88889" type="line"/>
    </contour>
    <contour>
      <point x="-61.6" y="638.88889" type="line"/>
      <point x="-61.6" y="798.88889" type="line"/>
      <point x="-122.71456" y="798.88889" type="line"/>
      <point x="-221.6" y="700.00345" type="line"/>
      <point x="-221.6" y="638.88889" type="line"/>
    </contour>
  </outline>
</glyph>
<glyph name="combining_gravedbl" format="2">
  <advance width="453.2"/>
  <unicode hex="030F"/>
  <outline>
    <contour>
      <point x="-249.1" y="798.88889" type="line"/>
      <point x="-409.09999999999997" y="798.88889" type="line"/>
      <point x="-409.09999999999997" y="737.77433" type="line"/>
      <point x="-310.21455999999995" y="638.88889" type="line"/>
      <point x="-249.1" y="638.88889" type="line"/>
    </contour>
    <contour>
      <point x="-44.1" y="798.88889" type="line"/>
      <point x="-204.1" y="798.88889" type="line"/>
      <point x="-204.1" y="737.77433" type="line"/>
      <point x="-105.21456" y="638.88889" type="line"/>
      <point x="-44.1" y="638.88889" type="line"/>
    </contour>
  </outline>
</glyph>
<glyph name="combining_breveinv" format="2">
  <advance width="453.2"/>
  <unicode hex="0311"/>
  <outline>
    <contour>
      <point x="-386.5999984741211" y="700.0034484863281" type="line"/>
      <point x="-386.5999984741211" y="638.8888931274414" type="line"/>
      <point x="-66.5999984741211" y="638.8888931274414" type="line"/>
      <point x="-66.5999984741211" y="700.0034484863281" type="line"/>
      <point x="-165.48544311523438" y="798.8888931274414" type="line"/>
      <point x="-287.71456146240234" y="798.8888931274414" type="line"/>
    </contour>
  </outline>
</glyph>
<glyph name="combining_dotbelow" format="2">
  <advance width="248.2"/>
  <unicode hex="0323"/>
  <outline>
    <contour>
      <point x="-409.09999999999997" y="-180.0" type="line"/>
      <point x="-249.1" y="-180.0" type="line"/>
      <point x="-249.1" y="-20.0" type="line"/>
      <point x="-409.09999999999997" y="-20.0" type="line"/>
    </contour>
  </outline>
</glyph>
<glyph name="combining_diaeresisbelow" format="2">
  <advance width="453.2"/>
  <unicode hex="0324"/>
  <outline>
    <contour>
      <point x="-409.09999999999997" y="-180.0" type="line"/>
      <point x="-249.1" y="-180.0" type="line"/>
      <point x="-249.1" y="-20.0" type="line"/>
      <point x="-409.09999999999997" y="-20.0" type="line"/>
    </contour>
    <contour>
      <point x="-204.1" y="-180.0" type="line"/>
      <point x="-44.1" y="-180.0" type="line"/>
      <point x="-44.1" y="-20.0" type="line"/>
      <point x="-204.1" y="-20.0" type="line"/>
    </contour>
  </outline>
</glyph>
